<svg viewBox="0 0 24 24" fill="none" xmlns="http://www.w3.org/2000/svg">
<path d="M7.34059 6.65708H8.31858C8.60897 5.5324 9.20901 4.51171 10.0505 3.71101C10.892 2.91031 11.9412 2.36169 13.079 2.12751C14.2167 1.89332 15.3973 1.98296 16.4866 2.38622C17.5759 2.78949 18.5303 3.49022 19.2413 4.40879C19.9522 5.32735 20.3913 6.42693 20.5086 7.58257C20.6258 8.73821 20.4166 9.90357 19.9046 10.9462C19.3927 11.9889 18.5985 12.8671 17.6124 13.4809C16.6263 14.0948 15.4878 14.4198 14.3262 14.4189H7.34059C6.31131 14.4189 5.32419 14.01 4.59638 13.2822C3.86857 12.5544 3.45969 11.5673 3.45969 10.538C3.45969 9.50871 3.86857 8.52159 4.59638 7.79378C5.32419 7.06597 6.31131 6.65708 7.34059 6.65708Z" stroke="currentColor" stroke-linecap="round" stroke-linejoin="round"/>
<path d="M20 21.8723H19.1001C18.9341 21.4166 19.0198 20.8497 19.0198 20.3728C19.0198 19.895 18.843 19.7186 18.4412 19.7186H18.1359V21.8723H17.2521V16.6094H18.5859C19.5018 16.6094 19.8955 17.0578 19.8955 17.8516V18.2559C19.8955 18.7851 19.7107 19.1306 19.317 19.2997C19.759 19.4687 19.9036 19.8583 19.9036 20.3949C19.9036 20.8495 19.8034 21.4471 20 21.8723ZM18.5618 17.4033H18.1359V18.9836H18.4814C18.8108 18.9836 19.0117 18.8513 19.0117 18.4397V17.9325C19.0117 17.565 18.8751 17.4033 18.5618 17.4033Z" fill="currentColor"/>
<path d="M14.7173 17.8516V20.63C14.7173 20.9976 14.894 21.1372 15.1752 21.1372C15.4565 21.1372 15.6332 20.9976 15.6332 20.63V17.8516C15.6332 17.4841 15.4565 17.3444 15.1752 17.3444C14.894 17.3444 14.7173 17.4841 14.7173 17.8516ZM13.8334 20.5786V17.903C13.8334 17.0798 14.3075 16.6094 15.1752 16.6094C16.043 16.6094 16.517 17.0798 16.517 17.903V20.5786C16.517 21.4018 16.043 21.8723 15.1752 21.8723C14.3075 21.8723 13.8334 21.4018 13.8334 20.5786Z" fill="currentColor"/>
<path d="M13.2602 21.8723H12.3603C12.1943 21.4166 12.28 20.8497 12.28 20.3728C12.28 19.895 12.1032 19.7186 11.7015 19.7186H11.3961V21.8723H10.5123V16.6094H11.8461C12.7621 16.6094 13.1558 17.0578 13.1558 17.8516V18.2559C13.1558 18.7851 12.971 19.1306 12.5772 19.2997C13.0192 19.4687 13.1638 19.8583 13.1638 20.3949C13.1638 20.8495 13.0636 21.4471 13.2602 21.8723ZM11.822 17.4033H11.3961V18.9836H11.7416C12.0711 18.9836 12.2719 18.8513 12.2719 18.4397V17.9325C12.2719 17.565 12.1353 17.4033 11.822 17.4033Z" fill="currentColor"/>
<path d="M9.86672 21.8723H8.96682C8.80081 21.4166 8.88647 20.8497 8.88647 20.3728C8.88647 19.895 8.70971 19.7186 8.30797 19.7186H8.00264V21.8723H7.11881V16.6094H8.45259C9.36856 16.6094 9.76227 17.0578 9.76227 17.8516V18.2559C9.76227 18.7851 9.57747 19.1306 9.18376 19.2997C9.62568 19.4687 9.7703 19.8583 9.7703 20.3949C9.7703 20.8495 9.67009 21.4471 9.86672 21.8723ZM8.42849 17.4033H8.00264V18.9836H8.34814C8.67757 18.9836 8.87844 18.8513 8.87844 18.4397V17.9325C8.87844 17.565 8.74185 17.4033 8.42849 17.4033Z" fill="currentColor"/>
<path d="M4.88383 17.4033V18.8366H6.09709V19.5716H4.88383V21.0784H6.41045V21.8723H4V16.6094H6.41045V17.4033H4.88383Z" fill="currentColor"/>
</svg>
