<svg viewBox="0 0 24 25" fill="none" xmlns="http://www.w3.org/2000/svg">
<path d="M12.8 2.19952C12.8 1.7577 12.4418 1.39952 12 1.39952C11.5582 1.39952 11.2 1.7577 11.2 2.19952H12.8ZM11.2 5.19952C11.2 5.64135 11.5582 5.99952 12 5.99952C12.4418 5.99952 12.8 5.64135 12.8 5.19952H11.2ZM5 12.9995C5.44183 12.9995 5.8 12.6414 5.8 12.1995C5.8 11.7577 5.44183 11.3995 5 11.3995V12.9995ZM2 11.3995C1.55817 11.3995 1.2 11.7577 1.2 12.1995C1.2 12.6414 1.55817 12.9995 2 12.9995V11.3995ZM19.6357 5.69521C19.9481 5.38279 19.9481 4.87626 19.6357 4.56384C19.3233 4.25142 18.8167 4.25142 18.5043 4.56384L19.6357 5.69521ZM17.0943 5.97384C16.7819 6.28626 16.7819 6.79279 17.0943 7.10521C17.4067 7.41763 17.9133 7.41763 18.2257 7.10521L17.0943 5.97384ZM6.90569 18.4252C7.2181 18.1128 7.21811 17.6063 6.90569 17.2938C6.59327 16.9814 6.08673 16.9814 5.77431 17.2938L6.90569 18.4252ZM4.36431 18.7038C4.05189 19.0163 4.05189 19.5228 4.36431 19.8352C4.67673 20.1476 5.18327 20.1476 5.49569 19.8352L4.36431 18.7038ZM5.77431 7.10521C6.08673 7.41763 6.59327 7.41763 6.90569 7.10521C7.21811 6.79279 7.21811 6.28626 6.90569 5.97384L5.77431 7.10521ZM5.49569 4.56384C5.18327 4.25142 4.67673 4.25142 4.36431 4.56384C4.05189 4.87626 4.05189 5.38279 4.36431 5.69521L5.49569 4.56384ZM11.5858 15.521L11.5858 14.721L11.5858 15.521ZM12.2833 15.521V16.321H12.903L13.0579 15.721L12.2833 15.521ZM16.568 21.0568L16.5686 20.2568H16.568V21.0568ZM9.76651 16.4491C10.1575 16.655 10.6413 16.5049 10.8471 16.1139C11.0529 15.723 10.9028 15.2392 10.5119 15.0334L9.76651 16.4491ZM8.8 12.1995C8.8 10.4322 10.2327 8.99952 12 8.99952V7.39952C9.34903 7.39952 7.2 9.54856 7.2 12.1995H8.8ZM12 8.99952C13.7673 8.99952 15.2 10.4322 15.2 12.1995H16.8C16.8 9.54856 14.651 7.39952 12 7.39952V8.99952ZM11.2 2.19952V5.19952H12.8V2.19952H11.2ZM5 11.3995H2V12.9995H5V11.3995ZM18.5043 4.56384L17.0943 5.97384L18.2257 7.10521L19.6357 5.69521L18.5043 4.56384ZM5.77431 17.2938L4.36431 18.7038L5.49569 19.8352L6.90569 18.4252L5.77431 17.2938ZM6.90569 5.97384L5.49569 4.56384L4.36431 5.69521L5.77431 7.10521L6.90569 5.97384ZM11.5858 16.321H12.2833V14.721H11.5858V16.321ZM13.0579 15.721C13.2276 15.0638 13.5783 14.4673 14.07 13.9994L12.9671 12.8403C12.2585 13.5145 11.7533 14.374 11.5087 15.321L13.0579 15.721ZM14.07 13.9994C14.5618 13.5315 15.1749 13.2109 15.8398 13.074L15.5172 11.5069C14.5592 11.7041 13.6757 12.166 12.9671 12.8403L14.07 13.9994ZM15.8398 13.074C16.5046 12.9372 17.1945 12.9896 17.8311 13.2252L18.3866 11.7247C17.4693 11.3852 16.4752 11.3097 15.5172 11.5069L15.8398 13.074ZM17.8311 13.2252C18.4677 13.4609 19.0254 13.8704 19.4409 14.4072L20.7062 13.4278C20.1075 12.6544 19.3039 12.0643 18.3866 11.7247L17.8311 13.2252ZM19.4409 14.4072C19.8564 14.9439 20.1129 15.5865 20.1815 16.2618L21.7733 16.1003C21.6745 15.1272 21.3048 14.2013 20.7062 13.4278L19.4409 14.4072ZM20.1815 16.2618C20.25 16.9372 20.1277 17.6182 19.8285 18.2275L21.2648 18.9327C21.6958 18.0547 21.872 17.0734 21.7733 16.1003L20.1815 16.2618ZM19.8285 18.2275C19.5294 18.8368 19.0653 19.35 18.489 19.7087L19.3346 21.067C20.165 20.5501 20.8337 19.8106 21.2648 18.9327L19.8285 18.2275ZM18.489 19.7087C17.9128 20.0674 17.2474 20.2573 16.5686 20.2568L16.5675 21.8568C17.5456 21.8575 18.5042 21.5839 19.3346 21.067L18.489 19.7087ZM16.568 20.2568H11.5858V21.8568H16.568V20.2568ZM11.5858 20.2568C11.0639 20.2568 10.5634 20.0495 10.1943 19.6804L9.06293 20.8118C9.73204 21.4809 10.6396 21.8568 11.5858 21.8568V20.2568ZM10.1943 19.6804C9.82525 19.3114 9.61792 18.8108 9.61792 18.2889H8.01792C8.01792 19.2352 8.39382 20.1427 9.06293 20.8118L10.1943 19.6804ZM9.61792 18.2889C9.61792 17.767 9.82525 17.2664 10.1943 16.8974L9.06293 15.766C8.39382 16.4351 8.01792 17.3426 8.01792 18.2889H9.61792ZM10.1943 16.8974C10.5634 16.5283 11.0639 16.321 11.5858 16.321L11.5858 14.721C10.6396 14.721 9.73204 15.0969 9.06293 15.766L10.1943 16.8974ZM10.5119 15.0334C9.49231 14.4966 8.8 13.4283 8.8 12.1995H7.2C7.2 14.0454 8.24219 15.6466 9.76651 16.4491L10.5119 15.0334Z" fill="currentColor"/>
</svg>
