<svg viewBox="0 0 24 25" fill="none" xmlns="http://www.w3.org/2000/svg">
<path d="M6.36501 14.5038C5.37493 13.8875 4.57759 13.0058 4.06357 11.9589C3.54956 10.9121 3.33949 9.74203 3.45722 8.58174C3.57496 7.42146 4.01579 6.31747 4.72962 5.39521C5.44345 4.47295 6.40166 3.76941 7.49536 3.36452C8.58906 2.95963 9.7744 2.86964 10.9167 3.10477C12.059 3.33989 13.1124 3.89071 13.9573 4.69463C14.8022 5.49855 15.4046 6.52334 15.6962 7.65254H16.6781C17.7115 7.65254 18.7026 8.06307 19.4334 8.7938C20.1641 9.52454 20.5746 10.5156 20.5746 11.549C20.5746 12.5825 20.1641 13.5735 19.4334 14.3043M3 15.8871C4.49411 14.3747 6.82528 14.067 8.66163 15.1398L9.22591 15.4694C10.9394 16.4704 13.0606 16.4704 14.7741 15.4694M3 20.663C4.49411 19.1506 6.82528 18.8429 8.66163 19.9157L9.22591 20.2453C10.231 20.8325 11.3763 21.0752 12.4973 20.9736M18.1066 15.8519L17.7184 16.498M17.7184 16.498L17.334 17.1376M17.7184 16.498L18.3732 16.8915M17.7184 16.498L17.0875 16.1189M15.76 19.6873L15.3718 20.3334M15.3718 20.3334L14.9874 20.973M15.3718 20.3334L16.0266 20.7268M15.3718 20.3334L14.7408 19.9543M20.4532 19.4934L20.065 20.1395M20.065 20.1395L19.6807 20.7791M20.065 20.1395L20.7198 20.5329M20.065 20.1395L19.4341 19.7604" stroke="black" stroke-width="1.4" stroke-linecap="round" stroke-linejoin="round"/>
</svg>
