<svg viewBox="0 0 24 25" fill="none" xmlns="http://www.w3.org/2000/svg">
<path d="M14.241 17.8288L13.8528 18.4749M13.8528 18.4749L13.4685 19.1146M13.8528 18.4749L14.5076 18.8684M13.8528 18.4749L13.2219 18.0958M16.5887 21.4519L16.2005 22.098M16.2005 22.098L15.8162 22.7376M16.2005 22.098L16.8554 22.4914M16.2005 22.098L15.5696 21.7189M18.7585 17.8288L18.3703 18.4749M18.3703 18.4749L17.986 19.1146M18.3703 18.4749L19.0251 18.8684M18.3703 18.4749L17.7394 18.0958M5.18187 19.1228L5.34997 18.2355M9.38187 19.1228L9.54997 18.2355M7.28187 22.7228L7.44997 21.8355M11.4819 22.7228L11.65 21.8355M7.34059 6.89256H8.31858C8.60897 5.76787 9.20901 4.74719 10.0505 3.94648C10.892 3.14578 11.9412 2.59717 13.079 2.36298C14.2167 2.1288 15.3973 2.21843 16.4866 2.6217C17.5759 3.02496 18.5303 3.72569 19.2413 4.64426C19.9522 5.56283 20.3913 6.6624 20.5086 7.81804C20.6258 8.97368 20.4166 10.139 19.9046 11.1817C19.3927 12.2244 18.5985 13.1025 17.6124 13.7164C16.6263 14.3303 15.4878 14.6552 14.3262 14.6544H7.34059C6.31131 14.6544 5.32419 14.2455 4.59638 13.5177C3.86857 12.7899 3.45969 11.8027 3.45969 10.7735C3.45969 9.74418 3.86857 8.75706 4.59638 8.02925C5.32419 7.30144 6.31131 6.89256 7.34059 6.89256Z" stroke="currentColor" stroke-linecap="round" stroke-linejoin="round"/>
</svg>
