<svg viewBox="0 0 24 25" fill="none" xmlns="http://www.w3.org/2000/svg">
<path d="M5.34781 19.0868L5.51592 18.1995M8.54781 19.0868L8.71592 18.1995M11.7478 19.0868L11.9159 18.1995M6.94781 22.6868L7.11592 21.7995M10.1478 22.6868L10.3159 21.7995M13.3478 22.6868L13.5159 21.7995M15.6194 17.7929L15.2312 18.439M15.2312 18.439L14.8469 19.0786M15.2312 18.439L15.886 18.8324M15.2312 18.439L14.6003 18.0599M17.3625 21.4879L16.9743 22.134M16.9743 22.134L16.5899 22.7736M16.9743 22.134L17.6291 22.5275M16.9743 22.134L16.3434 21.7549M19.4208 17.7929L19.0326 18.439M19.0326 18.439L18.6482 19.0786M19.0326 18.439L19.6874 18.8324M19.0326 18.439L18.4017 18.0599M7.34059 6.85661H8.31858C8.60897 5.73192 9.20901 4.71124 10.0505 3.91053C10.892 3.10983 11.9412 2.56122 13.079 2.32703C14.2167 2.09285 15.3973 2.18248 16.4866 2.58575C17.5759 2.98901 18.5303 3.68974 19.2413 4.60831C19.9522 5.52688 20.3913 6.62645 20.5086 7.78209C20.6258 8.93773 20.4166 10.1031 19.9046 11.1458C19.3927 12.1884 18.5985 13.0666 17.6124 13.6805C16.6263 14.2943 15.4878 14.6193 14.3262 14.6184H7.34059C6.31131 14.6184 5.32419 14.2095 4.59638 13.4817C3.86857 12.7539 3.45969 11.7668 3.45969 10.7375C3.45969 9.70823 3.86857 8.72111 4.59638 7.9933C5.32419 7.26549 6.31131 6.85661 7.34059 6.85661Z" stroke="black" stroke-width="1.4" stroke-linecap="round" stroke-linejoin="round"/>
</svg>
