<svg viewBox="0 0 24 25" fill="none" xmlns="http://www.w3.org/2000/svg">
<path d="M7.19914 17.238L6.81092 17.8841M6.81092 17.8841L6.42658 18.5237M6.81092 17.8841L7.46575 18.2775M6.81092 17.8841L6.18 17.505M9.31614 20.933L8.92793 21.5791M8.92793 21.5791L8.54359 22.2188M8.92793 21.5791L9.58275 21.9726M8.92793 21.5791L8.297 21.2M15.4912 20.933L15.103 21.5791M15.103 21.5791L14.7186 22.2188M15.103 21.5791L15.7578 21.9726M15.103 21.5791L14.4721 21.2M12.3745 17.238L11.9862 17.8841M11.9862 17.8841L11.6019 18.5237M11.9862 17.8841L12.6411 18.2775M11.9862 17.8841L11.3553 17.505M17.5495 17.238L17.1613 17.8841M17.1613 17.8841L16.7769 18.5237M17.1613 17.8841L17.8161 18.2775M17.1613 17.8841L16.5304 17.505M7.34059 7.30174H8.31858C8.60897 6.17705 9.20901 5.15637 10.0505 4.35566C10.892 3.55496 11.9412 3.00635 13.079 2.77216C14.2167 2.53798 15.3973 2.62761 16.4866 3.03087C17.5759 3.43414 18.5303 4.13487 19.2413 5.05344C19.9522 5.97201 20.3913 7.07158 20.5086 8.22722C20.6258 9.38286 20.4166 10.5482 19.9046 11.5909C19.3927 12.6336 18.5985 13.5117 17.6124 14.1256C16.6263 14.7395 15.4878 15.0644 14.3262 15.0635H7.34059C6.31131 15.0635 5.32419 14.6547 4.59638 13.9269C3.86857 13.199 3.45969 12.2119 3.45969 11.1826C3.45969 10.1534 3.86857 9.16624 4.59638 8.43843C5.32419 7.71062 6.31131 7.30174 7.34059 7.30174Z" stroke="black" stroke-width="1.4" stroke-linecap="round" stroke-linejoin="round"/>
</svg>
