<svg viewBox="0 0 24 25" fill="none" xmlns="http://www.w3.org/2000/svg">
<path d="M5.34781 19.102L5.51592 18.2147M8.54781 19.102L8.71592 18.2147M11.7478 19.102L11.9159 18.2147M14.9478 19.102L15.1159 18.2147M18.3159 19.1584L18.4841 18.2711M6.94781 22.702L7.11592 21.8147M10.1478 22.702L10.3159 21.8147M13.3478 22.702L13.5159 21.8147M16.7159 22.7584L16.8841 21.8711M7.34059 6.87181H8.31858C8.60897 5.74712 9.20901 4.72643 10.0505 3.92573C10.892 3.12503 11.9412 2.57642 13.079 2.34223C14.2167 2.10804 15.3973 2.19768 16.4866 2.60094C17.5759 3.00421 18.5303 3.70494 19.2413 4.62351C19.9522 5.54208 20.3913 6.64165 20.5086 7.79729C20.6258 8.95293 20.4166 10.1183 19.9046 11.161C19.3927 12.2036 18.5985 13.0818 17.6124 13.6956C16.6263 14.3095 15.4878 14.6345 14.3262 14.6336H7.34059C6.31131 14.6336 5.32419 14.2247 4.59638 13.4969C3.86857 12.7691 3.45969 11.782 3.45969 10.7527C3.45969 9.72343 3.86857 8.73631 4.59638 8.0085C5.32419 7.28069 6.31131 6.87181 7.34059 6.87181Z" stroke="currentColor" stroke-linecap="round" stroke-linejoin="round"/>
</svg>
