<svg viewBox="0 0 24 25" fill="none" xmlns="http://www.w3.org/2000/svg">
<path d="M7.28187 19.1302L7.44997 18.2429M11.4819 19.1302L11.65 18.2429M15.6819 19.1302L15.85 18.2429M9.38187 22.7302L9.54997 21.8429M13.5819 22.7302L13.75 21.8429M7.34059 6.9H8.31858C8.60897 5.77532 9.20901 4.75463 10.0505 3.95393C10.892 3.15323 11.9412 2.60461 13.079 2.37043C14.2167 2.13624 15.3973 2.22588 16.4866 2.62914C17.5759 3.03241 18.5303 3.73314 19.2413 4.65171C19.9522 5.57027 20.3913 6.66985 20.5086 7.82549C20.6258 8.98113 20.4166 10.1465 19.9046 11.1892C19.3927 12.2318 18.5985 13.11 17.6124 13.7238C16.6263 14.3377 15.4878 14.6627 14.3262 14.6618H7.34059C6.31131 14.6618 5.32419 14.2529 4.59638 13.5251C3.86857 12.7973 3.45969 11.8102 3.45969 10.7809C3.45969 9.75163 3.86857 8.76451 4.59638 8.0367C5.32419 7.30889 6.31131 6.9 7.34059 6.9Z" stroke="currentColor" stroke-linecap="round" stroke-linejoin="round"/>
</svg>
