<svg  viewBox="0 0 120 120" fill="none" xmlns="http://www.w3.org/2000/svg">
<rect x="3.5" y="3.5" width="113" height="113" rx="20.5" fill="white"/>
<rect x="3.5" y="3.5" width="113" height="113" rx="20.5" stroke="#9692F0" stroke-width="7"/>
<path d="M58.2041 37.102C58.2041 48.7564 48.7564 58.2041 37.102 58.2041C25.4477 58.2041 16 48.7564 16 37.102C16 25.4477 25.4477 16 37.102 16C48.7564 16 58.2041 25.4477 58.2041 37.102Z" fill="#9692F0"/>
<path d="M104 37.102C104 48.7564 94.5523 58.2041 82.898 58.2041C71.2436 58.2041 61.7959 48.7564 61.7959 37.102C61.7959 25.4477 71.2436 16 82.898 16C94.5523 16 104 25.4477 104 37.102Z" fill="#5C59A3"/>
<path d="M58.2041 82.898C58.2041 94.5523 48.7564 104 37.102 104C25.4477 104 16 94.5523 16 82.898C16 71.2436 25.4477 61.7959 37.102 61.7959C48.7564 61.7959 58.2041 71.2436 58.2041 82.898Z" fill="#9692F0"/>
<path d="M104 82.898C104 94.5523 94.5523 104 82.898 104C71.2436 104 61.7959 94.5523 61.7959 82.898C61.7959 71.2436 71.2436 61.7959 82.898 61.7959C94.5523 61.7959 104 71.2436 104 82.898Z" fill="#9692F0"/>
</svg>
