<svg viewBox="0 0 24 24" fill="none" xmlns="http://www.w3.org/2000/svg">
<path d="M12.289 15.7444C12.153 15.5717 11.9133 15.551 11.7536 15.6981C11.7383 15.7123 11.724 15.7277 11.7109 15.7444C10.7036 17.0228 10.2 18.1697 10.2 19.185C10.2 20.1874 11.0059 21 12 21C12.9941 21 13.8 20.1874 13.8 19.185C13.8 18.1697 13.2964 17.0228 12.289 15.7444Z" stroke="currentColor" stroke-linecap="round" stroke-linejoin="round"/>
<path d="M17.689 10.3444C17.553 10.1717 17.3133 10.151 17.1536 10.2981C17.1383 10.3123 17.124 10.3277 17.1109 10.3444C16.1036 11.6228 15.6 12.7697 15.6 13.785C15.6 14.7874 16.4059 15.6 17.4 15.6C18.3941 15.6 19.2 14.7874 19.2 13.785C19.2 12.7697 18.6964 11.6228 17.689 10.3444Z" stroke="currentColor" stroke-linecap="round" stroke-linejoin="round"/>
<path d="M6.88904 9.44436C6.753 9.27169 6.51329 9.25098 6.35363 9.39812C6.33826 9.41228 6.32396 9.42774 6.31087 9.44436C5.30363 10.7228 4.8 11.8697 4.8 12.885C4.8 13.8874 5.60589 14.7 6.6 14.7C7.59412 14.7 8.4 13.8874 8.4 12.885C8.4 11.8697 7.89637 10.7228 6.88904 9.44436Z" stroke="currentColor" stroke-linecap="round" stroke-linejoin="round"/>
<path d="M12.3613 3.16842C12.1912 2.96697 11.8916 2.94282 11.692 3.11447C11.6728 3.13099 11.655 3.14903 11.6386 3.16842C10.3795 4.65995 9.75 5.99799 9.75 7.18255C9.75 8.35198 10.7574 9.3 12 9.3C13.2426 9.3 14.25 8.35198 14.25 7.18255C14.25 5.99797 13.6205 4.65991 12.3613 3.16842Z" stroke="currentColor" stroke-linecap="round" stroke-linejoin="round"/>
</svg>
