<svg width="81" height="82" viewBox="0 0 81 82" fill="none" xmlns="http://www.w3.org/2000/svg">
<path fill-rule="evenodd" clip-rule="evenodd" d="M1 2H41C63.0914 2 81 19.9086 81 42C81 64.0914 63.0914 82 41 82H1V2ZM7.43678 73.8232C7.69855 74.0689 7.86185 74.4166 7.86185 74.8022C7.86185 75.0846 7.77426 75.3467 7.62455 75.5632H11.3609C11.2112 75.3467 11.1236 75.0846 11.1236 74.8022C11.1236 74.0579 11.7321 73.4546 12.4827 73.4546C13.2333 73.4546 13.8418 74.0579 13.8418 74.8022C13.8418 75.0846 13.7542 75.3467 13.6045 75.5632H17.3408C17.1911 75.3467 17.1035 75.0846 17.1035 74.8022C17.1035 74.0579 17.712 73.4546 18.4626 73.4546C19.2132 73.4546 19.8217 74.0579 19.8217 74.8022C19.8217 75.0846 19.7341 75.3467 19.5844 75.5632H23.3207C23.171 75.3467 23.0834 75.0846 23.0834 74.8022C23.0834 74.0579 23.6919 73.4546 24.4425 73.4546C25.1931 73.4546 25.8016 74.0579 25.8016 74.8022C25.8016 75.0846 25.714 75.3467 25.5643 75.5632H29.3006C29.1509 75.3467 29.0633 75.0846 29.0633 74.8022C29.0633 74.0579 29.6718 73.4546 30.4224 73.4546C31.173 73.4546 31.7815 74.0579 31.7815 74.8022C31.7815 75.0846 31.6939 75.3467 31.5442 75.5632H35.2805C35.1308 75.3467 35.0432 75.0846 35.0432 74.8022C35.0432 74.0579 35.6517 73.4546 36.4023 73.4546C37.1529 73.4546 37.7614 74.0579 37.7614 74.8022C37.7614 75.0846 37.6738 75.3467 37.5241 75.5632H41C41.0867 75.5632 41.1732 75.5629 41.2597 75.5622C41.1104 75.3459 41.0231 75.0841 41.0231 74.8022C41.0231 74.0579 41.6316 73.4546 42.3822 73.4546C43.1328 73.4546 43.7413 74.0579 43.7413 74.8022C43.7413 75.0438 43.6771 75.2706 43.5648 75.4667C44.7348 75.3783 45.888 75.2299 47.0214 75.0246C47.0093 74.9522 47.003 74.8779 47.003 74.8022C47.003 74.0579 47.6115 73.4546 48.3621 73.4546C48.9835 73.4546 49.5075 73.8681 49.6695 74.4328C55.7757 72.8047 61.1969 69.4981 65.4087 65.0372C65.1231 64.7901 64.9427 64.4267 64.9427 64.0214C64.9427 63.2771 65.5512 62.6738 66.3018 62.6738C66.6392 62.6738 66.9478 62.7957 67.1854 62.9975C67.9598 62.0331 68.6819 61.025 69.3476 59.9775C69.3291 59.9782 69.3104 59.9786 69.2917 59.9786C68.5411 59.9786 67.9327 59.3752 67.9327 58.631C67.9327 57.8867 68.5411 57.2834 69.2917 57.2834C69.8194 57.2834 70.2768 57.5815 70.502 58.0172C71.1057 56.9077 71.6486 55.7602 72.1263 54.5795C71.4489 54.503 70.9226 53.9327 70.9226 53.2406C70.9226 52.4963 71.5311 51.893 72.2817 51.893C72.5518 51.893 72.8035 51.9711 73.0151 52.1058C74.0209 48.9165 74.5632 45.5216 74.5632 42C74.5632 38.7498 74.1012 35.6075 73.2393 32.6352C72.9937 32.8771 72.6553 33.0266 72.2817 33.0266C71.5311 33.0266 70.9226 32.4232 70.9226 31.679C70.9226 30.9347 71.5311 30.3313 72.2817 30.3313C72.3507 30.3313 72.4185 30.3365 72.4848 30.3463C71.9629 28.9367 71.349 27.5718 70.6505 26.2588C70.6507 26.2687 70.6508 26.2786 70.6508 26.2885C70.6508 27.0328 70.0423 27.6361 69.2917 27.6361C68.5411 27.6361 67.9327 27.0328 67.9327 26.2885C67.9327 25.5443 68.5411 24.9409 69.2917 24.9409C69.569 24.9409 69.8269 25.0233 70.0419 25.1647C69.2898 23.87 68.4536 22.6302 67.5407 21.4529C67.3275 21.9204 66.853 22.2457 66.3018 22.2457C65.5512 22.2457 64.9427 21.6424 64.9427 20.8981C64.9427 20.2624 65.3867 19.7295 65.9839 19.5876C65.119 18.6241 64.1991 17.7109 63.2292 16.8529C62.6187 16.8166 62.1168 16.3807 61.986 15.8054C59.7952 14.0479 57.3792 12.5596 54.7881 11.3906C54.6484 11.4388 54.4983 11.4649 54.342 11.4649C53.7972 11.4649 53.3273 11.1471 53.1105 10.6882C51.9673 10.2457 50.7937 9.86401 49.5939 9.54711C49.6755 9.72029 49.7212 9.91352 49.7212 10.1173C49.7212 10.8616 49.1127 11.4649 48.3621 11.4649C47.6115 11.4649 47.003 10.8616 47.003 10.1173C47.003 9.6931 47.2007 9.31465 47.5097 9.06763C45.4038 8.65372 43.2272 8.43678 41 8.43678H7.43678V9.13837C7.69855 9.384 7.86185 9.73175 7.86185 10.1173C7.86185 10.5029 7.69855 10.8506 7.43678 11.0963V19.9192C7.69855 20.1648 7.86185 20.5126 7.86185 20.8981C7.86185 21.2837 7.69855 21.6315 7.43678 21.8771V30.7C7.69855 30.9456 7.86185 31.2934 7.86185 31.679C7.86185 32.0645 7.69855 32.4123 7.43678 32.6579V41.4808C7.69855 41.7265 7.86185 42.0742 7.86185 42.4598C7.86185 42.8453 7.69855 43.1931 7.43678 43.4387V52.2616C7.69855 52.5073 7.86185 52.855 7.86185 53.2406C7.86185 53.6261 7.69855 53.9739 7.43678 54.2195V63.0424C7.69855 63.2881 7.86185 63.6358 7.86185 64.0214C7.86185 64.407 7.69855 64.7547 7.43678 65.0003V73.8232ZM16.1724 25.1331V17.1724H43.0189C46.7645 17.1724 50.3537 18.0662 53.359 19.9676C53.6064 19.7106 53.9554 19.5505 54.342 19.5505C55.0926 19.5505 55.7011 20.1539 55.7011 20.8981C55.7011 21.1524 55.63 21.3902 55.5066 21.5932C55.5465 21.629 55.5862 21.6651 55.6258 21.7014C58.1408 24.01 59.7586 26.9949 60.4427 30.3366C61.1367 30.3972 61.681 30.9751 61.681 31.679C61.681 32.2628 61.3065 32.7599 60.7827 32.9471C60.8055 33.3314 60.8169 33.7191 60.8169 34.1096C60.8169 36.042 60.4147 38.6557 59.1734 41.1445C59.2495 41.2527 59.3244 41.3618 59.3978 41.4716C59.6403 41.2486 59.965 41.1122 60.3219 41.1122C61.0725 41.1122 61.681 41.7155 61.681 42.4598C61.681 43.0821 61.2555 43.6059 60.6773 43.7608C61.6352 45.8529 62.1494 48.1481 62.1494 50.5316C62.1494 55.4228 60.4207 59.8882 56.9963 63.0996C56.5776 63.4923 56.1413 63.859 55.6892 64.2001C55.6011 64.8599 55.0315 65.369 54.342 65.369C54.2195 65.369 54.1009 65.3529 53.988 65.3228C51.1242 66.9665 47.7814 67.7471 44.2935 67.7471H16.1724V59.7865C15.968 59.9084 15.7286 59.9786 15.4726 59.9786C14.722 59.9786 14.1136 59.3752 14.1136 58.631C14.1136 57.8867 14.722 57.2834 15.4726 57.2834C15.7286 57.2834 15.968 57.3535 16.1724 57.4755V49.0056C15.968 49.1276 15.7286 49.1978 15.4726 49.1978C14.722 49.1978 14.1136 48.5944 14.1136 47.8502C14.1136 47.1059 14.722 46.5026 15.4726 46.5026C15.7286 46.5026 15.968 46.5727 16.1724 46.6947V38.2248C15.968 38.3468 15.7286 38.417 15.4726 38.417C14.722 38.417 14.1136 37.8136 14.1136 37.0694C14.1136 36.3251 14.722 35.7218 15.4726 35.7218C15.7286 35.7218 15.968 35.7919 16.1724 35.9139V27.444C15.968 27.566 15.7286 27.6361 15.4726 27.6361C14.722 27.6361 14.1136 27.0328 14.1136 26.2885C14.1136 25.5443 14.722 24.9409 15.4726 24.9409C15.7286 24.9409 15.968 25.0111 16.1724 25.1331ZM55.2864 45.8349C54.4335 44.1439 53.1072 42.6515 51.3618 41.5134C53.1891 40.3795 54.216 38.5726 54.7053 36.7876C54.9607 35.8561 55.0698 34.9305 55.0698 34.1096C55.0698 27.3182 50.261 22.9761 43.0189 22.9761H21.9195V61.9435H44.2935C51.5935 61.9435 56.4023 57.4901 56.4023 50.5316C56.4023 48.8855 56.0189 47.287 55.2864 45.8349ZM42.1498 38.2847C43.8879 38.2847 45.1046 37.0043 45.1625 35.1116C45.2205 32.9963 44.0038 31.6046 42.1498 31.6046H31.7688V38.2847H42.1498ZM43.4823 53.2036C45.1625 53.2036 46.4951 51.8676 46.4951 49.8636C46.4951 47.7482 45.1625 46.3008 43.4823 46.3008H31.7688V53.2036H43.4823ZM12.4827 11.4649C13.2333 11.4649 13.8418 10.8616 13.8418 10.1173C13.8418 9.37306 13.2333 8.76972 12.4827 8.76972C11.7321 8.76972 11.1236 9.37306 11.1236 10.1173C11.1236 10.8616 11.7321 11.4649 12.4827 11.4649ZM19.8217 10.1173C19.8217 10.8616 19.2132 11.4649 18.4626 11.4649C17.712 11.4649 17.1035 10.8616 17.1035 10.1173C17.1035 9.37306 17.712 8.76972 18.4626 8.76972C19.2132 8.76972 19.8217 9.37306 19.8217 10.1173ZM24.4425 11.4649C25.1931 11.4649 25.8016 10.8616 25.8016 10.1173C25.8016 9.37306 25.1931 8.76972 24.4425 8.76972C23.6919 8.76972 23.0834 9.37306 23.0834 10.1173C23.0834 10.8616 23.6919 11.4649 24.4425 11.4649ZM31.7815 10.1173C31.7815 10.8616 31.173 11.4649 30.4224 11.4649C29.6718 11.4649 29.0633 10.8616 29.0633 10.1173C29.0633 9.37306 29.6718 8.76972 30.4224 8.76972C31.173 8.76972 31.7815 9.37306 31.7815 10.1173ZM36.4023 11.4649C37.1529 11.4649 37.7614 10.8616 37.7614 10.1173C37.7614 9.37306 37.1529 8.76972 36.4023 8.76972C35.6517 8.76972 35.0432 9.37306 35.0432 10.1173C35.0432 10.8616 35.6517 11.4649 36.4023 11.4649ZM43.7413 10.1173C43.7413 10.8616 43.1328 11.4649 42.3822 11.4649C41.6316 11.4649 41.0231 10.8616 41.0231 10.1173C41.0231 9.37306 41.6316 8.76972 42.3822 8.76972C43.1328 8.76972 43.7413 9.37306 43.7413 10.1173ZM9.49273 16.8553C10.2433 16.8553 10.8518 16.252 10.8518 15.5077C10.8518 14.7635 10.2433 14.1601 9.49273 14.1601C8.74214 14.1601 8.13367 14.7635 8.13367 15.5077C8.13367 16.252 8.74214 16.8553 9.49273 16.8553ZM16.8317 15.5077C16.8317 16.252 16.2232 16.8553 15.4726 16.8553C14.722 16.8553 14.1136 16.252 14.1136 15.5077C14.1136 14.7635 14.722 14.1601 15.4726 14.1601C16.2232 14.1601 16.8317 14.7635 16.8317 15.5077ZM21.4525 16.8553C22.2031 16.8553 22.8116 16.252 22.8116 15.5077C22.8116 14.7635 22.2031 14.1601 21.4525 14.1601C20.7019 14.1601 20.0935 14.7635 20.0935 15.5077C20.0935 16.252 20.7019 16.8553 21.4525 16.8553ZM28.7915 15.5077C28.7915 16.252 28.183 16.8553 27.4324 16.8553C26.6818 16.8553 26.0734 16.252 26.0734 15.5077C26.0734 14.7635 26.6818 14.1601 27.4324 14.1601C28.183 14.1601 28.7915 14.7635 28.7915 15.5077ZM33.4123 16.8553C34.1629 16.8553 34.7714 16.252 34.7714 15.5077C34.7714 14.7635 34.1629 14.1601 33.4123 14.1601C32.6617 14.1601 32.0533 14.7635 32.0533 15.5077C32.0533 16.252 32.6617 16.8553 33.4123 16.8553ZM40.7513 15.5077C40.7513 16.252 40.1428 16.8553 39.3922 16.8553C38.6417 16.8553 38.0332 16.252 38.0332 15.5077C38.0332 14.7635 38.6417 14.1601 39.3922 14.1601C40.1428 14.1601 40.7513 14.7635 40.7513 15.5077ZM45.3721 16.8553C46.1227 16.8553 46.7312 16.252 46.7312 15.5077C46.7312 14.7635 46.1227 14.1601 45.3721 14.1601C44.6215 14.1601 44.0131 14.7635 44.0131 15.5077C44.0131 16.252 44.6215 16.8553 45.3721 16.8553ZM52.7111 15.5077C52.7111 16.252 52.1026 16.8553 51.352 16.8553C50.6014 16.8553 49.993 16.252 49.993 15.5077C49.993 14.7635 50.6014 14.1601 51.352 14.1601C52.1026 14.1601 52.7111 14.7635 52.7111 15.5077ZM57.3319 16.8553C58.0825 16.8553 58.691 16.252 58.691 15.5077C58.691 14.7635 58.0825 14.1601 57.3319 14.1601C56.5813 14.1601 55.9729 14.7635 55.9729 15.5077C55.9729 16.252 56.5813 16.8553 57.3319 16.8553ZM13.8418 20.8981C13.8418 21.6424 13.2333 22.2457 12.4827 22.2457C11.7321 22.2457 11.1236 21.6424 11.1236 20.8981C11.1236 20.1539 11.7321 19.5505 12.4827 19.5505C13.2333 19.5505 13.8418 20.1539 13.8418 20.8981ZM61.681 20.8981C61.681 21.6424 61.0725 22.2457 60.3219 22.2457C59.5713 22.2457 58.9628 21.6424 58.9628 20.8981C58.9628 20.1539 59.5713 19.5505 60.3219 19.5505C61.0725 19.5505 61.681 20.1539 61.681 20.8981ZM10.8518 26.2885C10.8518 27.0328 10.2433 27.6361 9.49273 27.6361C8.74214 27.6361 8.13367 27.0328 8.13367 26.2885C8.13367 25.5443 8.74214 24.9409 9.49273 24.9409C10.2433 24.9409 10.8518 25.5443 10.8518 26.2885ZM64.6709 26.2885C64.6709 27.0328 64.0624 27.6361 63.3118 27.6361C62.5612 27.6361 61.9528 27.0328 61.9528 26.2885C61.9528 25.5443 62.5612 24.9409 63.3118 24.9409C64.0624 24.9409 64.6709 25.5443 64.6709 26.2885ZM12.4827 33.0266C13.2333 33.0266 13.8418 32.4232 13.8418 31.679C13.8418 30.9347 13.2333 30.3313 12.4827 30.3313C11.7321 30.3313 11.1236 30.9347 11.1236 31.679C11.1236 32.4232 11.7321 33.0266 12.4827 33.0266ZM66.3018 33.0266C67.0524 33.0266 67.6609 32.4232 67.6609 31.679C67.6609 30.9347 67.0524 30.3313 66.3018 30.3313C65.5512 30.3313 64.9427 30.9347 64.9427 31.679C64.9427 32.4232 65.5512 33.0266 66.3018 33.0266ZM9.49273 38.417C10.2433 38.417 10.8518 37.8136 10.8518 37.0694C10.8518 36.3251 10.2433 35.7218 9.49273 35.7218C8.74214 35.7218 8.13367 36.3251 8.13367 37.0694C8.13367 37.8136 8.74214 38.417 9.49273 38.417ZM63.3118 38.417C64.0624 38.417 64.6709 37.8136 64.6709 37.0694C64.6709 36.3251 64.0624 35.7218 63.3118 35.7218C62.5612 35.7218 61.9528 36.3251 61.9528 37.0694C61.9528 37.8136 62.5612 38.417 63.3118 38.417ZM70.6508 37.0694C70.6508 37.8136 70.0423 38.417 69.2917 38.417C68.5411 38.417 67.9327 37.8136 67.9327 37.0694C67.9327 36.3251 68.5411 35.7218 69.2917 35.7218C70.0423 35.7218 70.6508 36.3251 70.6508 37.0694ZM13.8418 42.4598C13.8418 43.204 13.2333 43.8074 12.4827 43.8074C11.7321 43.8074 11.1236 43.204 11.1236 42.4598C11.1236 41.7155 11.7321 41.1122 12.4827 41.1122C13.2333 41.1122 13.8418 41.7155 13.8418 42.4598ZM67.6609 42.4598C67.6609 43.204 67.0524 43.8074 66.3018 43.8074C65.5512 43.8074 64.9427 43.204 64.9427 42.4598C64.9427 41.7155 65.5512 41.1122 66.3018 41.1122C67.0524 41.1122 67.6609 41.7155 67.6609 42.4598ZM72.2817 43.8074C73.0323 43.8074 73.6408 43.204 73.6408 42.4598C73.6408 41.7155 73.0323 41.1122 72.2817 41.1122C71.5311 41.1122 70.9226 41.7155 70.9226 42.4598C70.9226 43.204 71.5311 43.8074 72.2817 43.8074ZM10.8518 47.8502C10.8518 48.5944 10.2433 49.1978 9.49273 49.1978C8.74214 49.1978 8.13367 48.5944 8.13367 47.8502C8.13367 47.1059 8.74214 46.5026 9.49273 46.5026C10.2433 46.5026 10.8518 47.1059 10.8518 47.8502ZM64.6709 47.8502C64.6709 48.5944 64.0624 49.1978 63.3118 49.1978C62.5612 49.1978 61.9528 48.5944 61.9528 47.8502C61.9528 47.1059 62.5612 46.5026 63.3118 46.5026C64.0624 46.5026 64.6709 47.1059 64.6709 47.8502ZM69.2917 49.1978C70.0423 49.1978 70.6508 48.5944 70.6508 47.8502C70.6508 47.1059 70.0423 46.5026 69.2917 46.5026C68.5411 46.5026 67.9327 47.1059 67.9327 47.8502C67.9327 48.5944 68.5411 49.1978 69.2917 49.1978ZM12.4827 54.5882C13.2333 54.5882 13.8418 53.9848 13.8418 53.2406C13.8418 52.4963 13.2333 51.893 12.4827 51.893C11.7321 51.893 11.1236 52.4963 11.1236 53.2406C11.1236 53.9848 11.7321 54.5882 12.4827 54.5882ZM67.6609 53.2406C67.6609 53.9848 67.0524 54.5882 66.3018 54.5882C65.5512 54.5882 64.9427 53.9848 64.9427 53.2406C64.9427 52.4963 65.5512 51.893 66.3018 51.893C67.0524 51.893 67.6609 52.4963 67.6609 53.2406ZM10.8518 58.631C10.8518 59.3752 10.2433 59.9786 9.49273 59.9786C8.74214 59.9786 8.13367 59.3752 8.13367 58.631C8.13367 57.8867 8.74214 57.2834 9.49273 57.2834C10.2433 57.2834 10.8518 57.8867 10.8518 58.631ZM64.6709 58.631C64.6709 59.3752 64.0624 59.9786 63.3118 59.9786C62.5612 59.9786 61.9528 59.3752 61.9528 58.631C61.9528 57.8867 62.5612 57.2834 63.3118 57.2834C64.0624 57.2834 64.6709 57.8867 64.6709 58.631ZM12.4827 65.369C13.2333 65.369 13.8418 64.7657 13.8418 64.0214C13.8418 63.2771 13.2333 62.6738 12.4827 62.6738C11.7321 62.6738 11.1236 63.2771 11.1236 64.0214C11.1236 64.7657 11.7321 65.369 12.4827 65.369ZM60.3219 65.369C61.0725 65.369 61.681 64.7657 61.681 64.0214C61.681 63.2771 61.0725 62.6738 60.3219 62.6738C59.5713 62.6738 58.9628 63.2771 58.9628 64.0214C58.9628 64.7657 59.5713 65.369 60.3219 65.369ZM9.49273 70.7594C10.2433 70.7594 10.8518 70.1561 10.8518 69.4118C10.8518 68.6675 10.2433 68.0642 9.49273 68.0642C8.74214 68.0642 8.13367 68.6675 8.13367 69.4118C8.13367 70.1561 8.74214 70.7594 9.49273 70.7594ZM16.8317 69.4118C16.8317 70.1561 16.2232 70.7594 15.4726 70.7594C14.722 70.7594 14.1136 70.1561 14.1136 69.4118C14.1136 68.6675 14.722 68.0642 15.4726 68.0642C16.2232 68.0642 16.8317 68.6675 16.8317 69.4118ZM21.4525 70.7594C22.2031 70.7594 22.8116 70.1561 22.8116 69.4118C22.8116 68.6675 22.2031 68.0642 21.4525 68.0642C20.7019 68.0642 20.0935 68.6675 20.0935 69.4118C20.0935 70.1561 20.7019 70.7594 21.4525 70.7594ZM28.7915 69.4118C28.7915 70.1561 28.183 70.7594 27.4324 70.7594C26.6818 70.7594 26.0734 70.1561 26.0734 69.4118C26.0734 68.6675 26.6818 68.0642 27.4324 68.0642C28.183 68.0642 28.7915 68.6675 28.7915 69.4118ZM33.4123 70.7594C34.1629 70.7594 34.7714 70.1561 34.7714 69.4118C34.7714 68.6675 34.1629 68.0642 33.4123 68.0642C32.6617 68.0642 32.0533 68.6675 32.0533 69.4118C32.0533 70.1561 32.6617 70.7594 33.4123 70.7594ZM40.7513 69.4118C40.7513 70.1561 40.1428 70.7594 39.3922 70.7594C38.6417 70.7594 38.0332 70.1561 38.0332 69.4118C38.0332 68.6675 38.6417 68.0642 39.3922 68.0642C40.1428 68.0642 40.7513 68.6675 40.7513 69.4118ZM45.3721 70.7594C46.1227 70.7594 46.7312 70.1561 46.7312 69.4118C46.7312 68.6675 46.1227 68.0642 45.3721 68.0642C44.6215 68.0642 44.0131 68.6675 44.0131 69.4118C44.0131 70.1561 44.6215 70.7594 45.3721 70.7594ZM52.7111 69.4118C52.7111 70.1561 52.1026 70.7594 51.352 70.7594C50.6014 70.7594 49.993 70.1561 49.993 69.4118C49.993 68.6675 50.6014 68.0642 51.352 68.0642C52.1026 68.0642 52.7111 68.6675 52.7111 69.4118ZM57.3319 70.7594C58.0825 70.7594 58.691 70.1561 58.691 69.4118C58.691 68.6675 58.0825 68.0642 57.3319 68.0642C56.5813 68.0642 55.9729 68.6675 55.9729 69.4118C55.9729 70.1561 56.5813 70.7594 57.3319 70.7594Z" fill="#160925"/>
</svg>
