<svg viewBox="0 0 24 24" fill="none" xmlns="http://www.w3.org/2000/svg">
<path d="M11.5 6V15.5M11.5 15.5C10.6716 15.5 10 16.1716 10 17M11.5 15.5C12.3284 15.5 13 16.1716 13 17M11.5 15.5V18.5M13 17C13 17.8284 12.3284 18.5 11.5 18.5M13 17C12.6 17 10.8333 17 10 17M11.5 18.5C10.6716 18.5 10 17.8284 10 17M9 5C9 3.61929 10.1193 2.5 11.5 2.5C12.8807 2.5 14 3.61929 14 5V13.2578C15.206 14.065 16 15.4398 16 17C16 19.4853 13.9853 21.5 11.5 21.5C9.01472 21.5 7 19.4853 7 17C7 15.4398 7.79401 14.065 9 13.2578V5Z" stroke="currentColor" stroke-linecap="round" stroke-linejoin="round"/>
</svg>
