<svg width="49" height="48" viewBox="0 0 49 48" fill="none" xmlns="http://www.w3.org/2000/svg">
<path d="M20.9955 47.0365C20.5211 47.0365 20.1366 46.6598 20.1366 46.1951C20.1366 45.2057 22.569 38.7031 23.1564 34.3277C23.227 33.8015 22.5723 33.5918 22.2765 34.0198C20.8587 36.071 19.4295 38.2647 15.5412 38.3169C8.29705 38.4143 4.1239 31.3948 6.40256 25.0075C7.51977 21.8755 22.8879 0.9635 24.976 0.963486C27.0641 0.963471 42.4323 21.8756 43.5495 25.0075C45.8281 31.3948 41.655 38.4143 34.4108 38.3169C30.5225 38.2647 29.0933 36.071 27.6756 34.0198C27.3797 33.5918 26.725 33.8015 26.7956 34.3277C27.383 38.7031 29.8154 45.2057 29.8154 46.1951C29.8154 46.6598 29.4309 47.0365 28.9565 47.0365H20.9955Z" fill="white"/>
</svg>
