<svg  viewBox="0 0 18 22" fill="none" xmlns="http://www.w3.org/2000/svg">
<path d="M15.125 11C15.125 14.3827 12.3827 17.125 9 17.125C5.61726 17.125 2.875 14.3827 2.875 11C2.875 7.61726 5.61726 4.875 9 4.875C12.3827 4.875 15.125 7.61726 15.125 11Z" stroke="currentColor" stroke-width="1.75"/>
<path fill-rule="evenodd" clip-rule="evenodd" d="M6.79517 14.4865V7.51355H9.87109C10.6529 7.51355 11.2974 7.73542 11.8045 8.17915C12.3116 8.61583 12.5652 9.19339 12.5652 9.91181C12.5652 10.6161 12.3081 11.1937 11.7939 11.6445C11.2798 12.0952 10.6388 12.3206 9.87109 12.3206H8.61235V14.4865H6.79517ZM8.61232 10.7359H9.88163C10.1352 10.7359 10.3359 10.6619 10.4838 10.514C10.6388 10.3591 10.7163 10.1583 10.7163 9.9118C10.7163 9.66529 10.6388 9.46807 10.4838 9.32016C10.3359 9.17225 10.1352 9.0983 9.88163 9.0983H8.61232V10.7359Z" fill="currentColor"/>
</svg>
