<svg viewBox="0 0 24 24" fill="none" xmlns="http://www.w3.org/2000/svg">
<path d="M12 13.3096C13.1104 13.3096 14.4813 13.9336 15 14.8611C15.5187 13.9336 16.8896 13.3096 18 13.3096C19.1104 13.3096 20.0799 13.9336 20.5987 14.8611H21C21 9.71962 16.9706 5.55159 12 5.55159C7.02944 5.55159 3 9.71962 3 14.8611H3.40135C3.92006 13.9336 4.88958 13.3096 6 13.3096C7.11042 13.3096 8.48128 13.9336 9 14.8611C9.51872 13.9336 10.8896 13.3096 12 13.3096ZM12 13.3096V18.9883C12 20.0993 11.1331 21 10.0636 21C8.99418 21 8.12724 20.0993 8.12724 18.9883V18.7353M12 4.54749V4" stroke="currentColor" stroke-linecap="round" stroke-linejoin="round"/>
</svg>
