<svg viewBox="0 0 24 24" fill="none" xmlns="http://www.w3.org/2000/svg">
<path d="M7.991 17.0751V18.0751M16.009 17.0751V18.0751M7.991 21.1096V22.1096M11.997 17.0751L10.997 19.3338L12.997 19.851L11.997 22.1096M16.003 21.1096V22.1096M19.009 18.9138V19.9138M4.61751 18.9138V19.9138M7.34059 6.54744H8.31858C8.60897 5.42275 9.20901 4.40206 10.0505 3.60136C10.892 2.80066 11.9412 2.25204 13.079 2.01786C14.2167 1.78367 15.3973 1.87331 16.4866 2.27657C17.5759 2.67984 18.5303 3.38057 19.2413 4.29914C19.9522 5.2177 20.3913 6.31728 20.5086 7.47292C20.6258 8.62856 20.4166 9.79392 19.9046 10.8366C19.3927 11.8792 18.5985 12.7574 17.6124 13.3713C16.6263 13.9851 15.4878 14.3101 14.3262 14.3092H7.34059C6.31131 14.3092 5.32419 13.9004 4.59638 13.1726C3.86857 12.4447 3.45969 11.4576 3.45969 10.4283C3.45969 9.39906 3.86857 8.41194 4.59638 7.68413C5.32419 6.95632 6.31131 6.54744 7.34059 6.54744Z" stroke="currentColor" stroke-linecap="round" stroke-linejoin="round"/>
</svg>
