<svg viewBox="0 0 24 24" fill="none" xmlns="http://www.w3.org/2000/svg">
<path d="M14.8619 19C16.0616 18.148 16.8434 16.7543 16.8434 15.1796C16.8434 12.5858 14.7225 10.4832 12.1062 10.4832C9.48992 10.4832 7.36901 12.5858 7.36901 15.1796C7.36901 16.7655 8.16193 18.1497 9.3762 19L12.1062 16.0949L14.8619 19ZM14.8619 19H22M12.1062 8.11553V4M8.55108 9.06193L7.45303 7.17243M15.6613 9.06193L16.7594 7.17243M19.2165 15.1796H21.4105M4.99595 15.1796H2.80188M18.2639 11.6475L21.8472 9.59216M5.94854 11.6475L2.36522 9.59216M2 19H9.1381" stroke="currentColor" stroke-linecap="round" stroke-linejoin="round"/>
</svg>
