<svg viewBox="0 0 24 25" fill="none" xmlns="http://www.w3.org/2000/svg">
<path d="M7.16289 7.79904C7.34526 7.06347 7.67721 6.37098 8.1408 5.76688C8.76516 4.95326 9.60328 4.33259 10.5599 3.9754C11.5165 3.6182 12.5533 3.53881 13.5525 3.74624C14.5516 3.95367 15.473 4.4396 16.212 5.14882C16.951 5.85804 17.478 6.76211 17.733 7.7583H18.5918C19.4957 7.7583 20.3626 8.12046 21.0018 8.76512C21.6409 9.40978 22 10.2841 22 11.1958C22 12.1075 21.6409 12.9818 21.0018 13.6265C20.5443 14.0879 19.9702 14.4046 19.3493 14.5473M15.8274 12.6093H14.7997C14.4945 11.4274 13.8639 10.3548 12.9797 9.5134C12.0954 8.67198 10.9928 8.09548 9.79723 7.84938C8.60166 7.60329 7.36104 7.69748 6.21632 8.12125C5.07161 8.54502 4.06872 9.28138 3.3216 10.2467C2.57447 11.2119 2.11308 12.3674 1.98985 13.5818C1.86662 14.7962 2.08649 16.0208 2.62448 17.1165C3.16247 18.2122 3.997 19.135 5.03325 19.7801C6.0695 20.4252 7.26592 20.7666 8.48655 20.7657H15.8274C16.909 20.7657 17.9463 20.3361 18.7111 19.5712C19.4759 18.8064 19.9056 17.7691 19.9056 16.6875C19.9056 15.6059 19.4759 14.5686 18.7111 13.8038C17.9463 13.0389 16.909 12.6093 15.8274 12.6093Z" stroke="currentColor" stroke-linecap="round" stroke-linejoin="round"/>
</svg>
