<svg viewBox="0 0 24 25" fill="none" xmlns="http://www.w3.org/2000/svg">
<path d="M3.58867 19.3133L3.65827 18.9857M7.78867 19.3133L7.85827 18.9857M11.9887 19.3133L12.0583 18.9857M16.1887 19.3133L16.2583 18.9857M5.68867 21.9133L5.75827 21.5857M9.88867 21.9133L9.95827 21.5857M14.0887 21.9133L14.1583 21.5857M20.3417 19.3133L20.4113 18.9857M18.2417 21.9133L18.3113 21.5857M7.34059 7.14274H8.31858C8.60897 6.01805 9.20901 4.99737 10.0505 4.19667C10.892 3.39596 11.9412 2.84735 13.079 2.61316C14.2167 2.37898 15.3973 2.46861 16.4866 2.87188C17.5759 3.27514 18.5303 3.97587 19.2413 4.89444C19.9522 5.81301 20.3913 6.91259 20.5086 8.06822C20.6258 9.22386 20.4166 10.3892 19.9046 11.4319C19.3927 12.4746 18.5985 13.3527 17.6124 13.9666C16.6263 14.5805 15.4878 14.9054 14.3262 14.9046H7.34059C6.31131 14.9046 5.32419 14.4957 4.59638 13.7679C3.86857 13.04 3.45969 12.0529 3.45969 11.0236C3.45969 9.99437 3.86857 9.00724 4.59638 8.27943C5.32419 7.55162 6.31131 7.14274 7.34059 7.14274Z" stroke="currentColor" stroke-linecap="round" stroke-linejoin="round"/>
</svg>
