<svg viewBox="0 0 24 25" fill="none" xmlns="http://www.w3.org/2000/svg">
<path d="M6.11164 17.738L5.72342 18.3841M5.72342 18.3841L5.33908 19.0237M5.72342 18.3841L6.37824 18.7775M5.72342 18.3841L5.09249 18.005M8.22864 21.433L7.84042 22.0791M7.84042 22.0791L7.45608 22.7188M7.84042 22.0791L8.49525 22.4726M7.84042 22.0791L7.2095 21.7M12.4037 21.433L12.0155 22.0791M12.0155 22.0791L11.6311 22.7188M12.0155 22.0791L12.6703 22.4726M12.0155 22.0791L11.3845 21.7M16.5787 21.433L16.1905 22.0791M16.1905 22.0791L15.8062 22.7188M16.1905 22.0791L16.8453 22.4726M16.1905 22.0791L15.5596 21.7M10.2869 17.738L9.89873 18.3841M9.89873 18.3841L9.51439 19.0237M9.89873 18.3841L10.5536 18.7775M9.89873 18.3841L9.2678 18.005M14.462 17.738L14.0738 18.3841M14.0738 18.3841L13.6894 19.0237M14.0738 18.3841L14.7286 18.7775M14.0738 18.3841L13.4428 18.005M18.637 17.738L18.2488 18.3841M18.2488 18.3841L17.8645 19.0237M18.2488 18.3841L18.9036 18.7775M18.2488 18.3841L17.6179 18.005M7.34059 6.80174H8.31858C8.60897 5.67705 9.20901 4.65637 10.0505 3.85566C10.892 3.05496 11.9412 2.50635 13.079 2.27216C14.2167 2.03798 15.3973 2.12761 16.4866 2.53087C17.5759 2.93414 18.5303 3.63487 19.2413 4.55344C19.9522 5.47201 20.3913 6.57158 20.5086 7.72722C20.6258 8.88286 20.4166 10.0482 19.9046 11.0909C19.3927 12.1336 18.5985 13.0117 17.6124 13.6256C16.6263 14.2395 15.4878 14.5644 14.3262 14.5635H7.34059C6.31131 14.5635 5.32419 14.1547 4.59638 13.4269C3.86857 12.699 3.45969 11.7119 3.45969 10.6826C3.45969 9.65336 3.86857 8.66624 4.59638 7.93843C5.32419 7.21062 6.31131 6.80174 7.34059 6.80174Z" stroke="black" stroke-width="1.4" stroke-linecap="round" stroke-linejoin="round"/>
</svg>
