<svg viewBox="0 0 24 25" fill="none" xmlns="http://www.w3.org/2000/svg">
<path d="M7.991 17.5617V18.5617M16.009 17.5617V18.5617M7.991 21.5962V22.5962M11.997 17.5617L10.997 19.8204L12.997 20.3376L11.997 22.5962M16.003 21.5962V22.5962M19.009 19.4004V20.4004M4.61751 19.4004V20.4004M7.34059 7.03404H8.31858C8.60897 5.90935 9.20901 4.88867 10.0505 4.08796C10.892 3.28726 11.9412 2.73865 13.079 2.50446C14.2167 2.27028 15.3973 2.35991 16.4866 2.76317C17.5759 3.16644 18.5303 3.86717 19.2413 4.78574C19.9522 5.70431 20.3913 6.80388 20.5086 7.95952C20.6258 9.11516 20.4166 10.2805 19.9046 11.3232C19.3927 12.3659 18.5985 13.244 17.6124 13.8579C16.6263 14.4718 15.4878 14.7967 14.3262 14.7958H7.34059C6.31131 14.7958 5.32419 14.387 4.59638 13.6592C3.86857 12.9313 3.45969 11.9442 3.45969 10.9149C3.45969 9.88566 3.86857 8.89854 4.59638 8.17073C5.32419 7.44292 6.31131 7.03404 7.34059 7.03404Z" stroke="currentColor" stroke-linecap="round" stroke-linejoin="round"/>
</svg>
