<svg  viewBox="0 0 24 24" fill="none" xmlns="http://www.w3.org/2000/svg">
<path  fill="currentColor" d="M5.32285 17.1775C5.14477 17.5515 5.30357 17.9991 5.67755 18.1771C6.05153 18.3552 6.49906 18.1964 6.67715 17.8225L5.32285 17.1775ZM17.9271 6.57245C18.1052 6.19847 17.9464 5.75094 17.5725 5.57285C17.1985 5.39477 16.7509 5.55357 16.5729 5.92755L17.9271 6.57245ZM15.6973 9.51074L15.0201 9.18829L15.6973 9.51074ZM10.6876 11.9875L10.5982 11.2428L10.6876 11.9875ZM6.5 3.25H17.5V1.75H6.5V3.25ZM20.75 6.5V17.5H22.25V6.5H20.75ZM17.5 20.75H6.5V22.25H17.5V20.75ZM3.25 17.5V6.5H1.75V17.5H3.25ZM6.67715 17.8225L8.22988 14.5617L6.87559 13.9168L5.32285 17.1775L6.67715 17.8225ZM10.777 12.7321L12.6518 12.5072L12.4731 11.0179L10.5982 11.2428L10.777 12.7321ZM16.3744 9.83319L17.9271 6.57245L16.5729 5.92755L15.0201 9.18829L16.3744 9.83319ZM17.25 6.25V7.75C18.0784 7.75 18.75 7.07843 18.75 6.25H17.25ZM17.25 6.25H15.75C15.75 7.07843 16.4216 7.75 17.25 7.75V6.25ZM17.25 6.25V4.75C16.4216 4.75 15.75 5.42157 15.75 6.25H17.25ZM17.25 6.25H18.75C18.75 5.42157 18.0784 4.75 17.25 4.75V6.25ZM14.75 11.5V13C15.5784 13 16.25 12.3284 16.25 11.5H14.75ZM14.75 11.5H13.25C13.25 12.3284 13.9216 13 14.75 13V11.5ZM14.75 11.5V10C13.9216 10 13.25 10.6716 13.25 11.5H14.75ZM14.75 11.5H16.25C16.25 10.6716 15.5784 10 14.75 10V11.5ZM8.5 12.25V13.75C9.32843 13.75 10 13.0784 10 12.25H8.5ZM8.5 12.25H7C7 13.0784 7.67157 13.75 8.5 13.75V12.25ZM8.5 12.25V10.75C7.67157 10.75 7 11.4216 7 12.25H8.5ZM8.5 12.25H10C10 11.4216 9.32843 10.75 8.5 10.75V12.25ZM6 17.5V19C6.82843 19 7.5 18.3284 7.5 17.5H6ZM6 17.5H4.5C4.5 18.3284 5.17157 19 6 19V17.5ZM6 17.5V16C5.17157 16 4.5 16.6716 4.5 17.5H6ZM6 17.5H7.5C7.5 16.6716 6.82843 16 6 16V17.5ZM12.6518 12.5072C14.2691 12.3131 15.6741 11.3038 16.3744 9.83319L15.0201 9.18829C14.541 10.1945 13.5796 10.8851 12.4731 11.0179L12.6518 12.5072ZM6.5 20.75C4.70507 20.75 3.25 19.2949 3.25 17.5H1.75C1.75 20.1234 3.87665 22.25 6.5 22.25V20.75ZM20.75 17.5C20.75 19.2949 19.2949 20.75 17.5 20.75V22.25C20.1234 22.25 22.25 20.1234 22.25 17.5H20.75ZM17.5 3.25C19.2949 3.25 20.75 4.70507 20.75 6.5H22.25C22.25 3.87665 20.1234 1.75 17.5 1.75V3.25ZM8.22988 14.5617C8.70904 13.5555 9.67039 12.8649 10.777 12.7321L10.5982 11.2428C8.98095 11.4369 7.5759 12.4462 6.87559 13.9168L8.22988 14.5617ZM6.5 1.75C3.87665 1.75 1.75 3.87665 1.75 6.5H3.25C3.25 4.70507 4.70507 3.25 6.5 3.25V1.75Z"/>
</svg>
