<svg viewBox="0 0 24 24" fill="none" xmlns="http://www.w3.org/2000/svg">
<path d="M16.0254 17.0297L14.9749 23C14.0247 22.7223 13.0897 22.3923 12.1743 22.0127M16.0254 17.0297L7.47194 11.9203M16.0254 17.0297L16.9896 15.3018C17.3527 14.6512 17.0726 13.7805 16.364 13.3573C15.6554 12.934 15.3753 12.0634 15.7384 11.4127L15.9576 11.02L15.4468 10.7149M7.47194 11.9203L3 15.8467C3.7198 16.5717 4.4771 17.2555 5.26722 17.8953M7.47194 11.9203L8.43613 10.1924C8.79922 9.54167 9.66799 9.35733 10.3766 9.78062C11.0852 10.2039 11.9539 10.0196 12.317 9.36888L12.5362 8.97616L13.1878 9.36539M5.26722 17.8953C7.36723 19.5959 9.69901 20.9859 12.1743 22.0127M5.26722 17.8953L7.08943 15.6714M12.1743 22.0127L13.0769 19.2481M10.534 16.6518L8.55804 20.1929M15.4468 10.7149L19.8178 3.00131C20.653 1.50457 18.3939 0.155094 17.5587 1.65184L13.1878 9.36539M15.4468 10.7149L13.1878 9.36539" stroke="currentColor" stroke-linecap="round" stroke-linejoin="round"/>
</svg>
