<svg width="72" height="72" viewBox="0 0 72 72" fill="none" xmlns="http://www.w3.org/2000/svg">
<path fill-rule="evenodd" clip-rule="evenodd" d="M2.77148 68.9999H35.7714C53.9968 68.9999 68.7713 54.2253 68.7713 36C68.7713 17.7746 53.9968 3.00005 35.7714 3.00005H2.77148V68.9999ZM8.08182 9.74598C8.29783 9.54332 8.4326 9.2564 8.4326 8.93826C8.4326 8.70528 8.36032 8.48904 8.2368 8.31038H11.3193C11.1958 8.48904 11.1236 8.70528 11.1236 8.93826C11.1236 9.55227 11.6255 10.05 12.2448 10.05C12.864 10.05 13.366 9.55227 13.366 8.93826C13.366 8.70528 13.2937 8.48904 13.1702 8.31038H16.2528C16.1292 8.48904 16.057 8.70528 16.057 8.93826C16.057 9.55227 16.5589 10.05 17.1782 10.05C17.7974 10.05 18.2994 9.55227 18.2994 8.93826C18.2994 8.70528 18.2271 8.48904 18.1036 8.31038H21.1862C21.0626 8.48904 20.9904 8.70528 20.9904 8.93826C20.9904 9.55227 21.4924 10.05 22.1116 10.05C22.7308 10.05 23.2328 9.55227 23.2328 8.93826C23.2328 8.70528 23.1606 8.48904 23.037 8.31038H26.1196C25.996 8.48904 25.9238 8.70528 25.9238 8.93826C25.9238 9.55227 26.4258 10.05 27.045 10.05C27.6642 10.05 28.1662 9.55227 28.1662 8.93826C28.1662 8.70528 28.094 8.48904 27.9704 8.31038H31.053C30.9294 8.48904 30.8572 8.70528 30.8572 8.93826C30.8572 9.55227 31.3592 10.05 31.9784 10.05C32.5976 10.05 33.0996 9.55227 33.0996 8.93826C33.0996 8.70528 33.0274 8.48904 32.9038 8.31038H35.7714C35.8429 8.31038 35.9144 8.31065 35.9858 8.31119C35.8626 8.4897 35.7906 8.70563 35.7906 8.93826C35.7906 9.55227 36.2926 10.05 36.9118 10.05C37.5311 10.05 38.033 9.55227 38.033 8.93826C38.033 8.73891 37.9801 8.55181 37.8875 8.39003C38.8527 8.46297 39.8041 8.5854 40.7392 8.75478C40.7292 8.81446 40.724 8.87576 40.724 8.93826C40.724 9.55227 41.226 10.05 41.8452 10.05C42.3579 10.05 42.7902 9.70885 42.9238 9.24298C47.9615 10.5862 52.4339 13.3142 55.9086 16.9944C55.6731 17.1982 55.5242 17.4981 55.5242 17.8324C55.5242 18.4464 56.0262 18.9442 56.6455 18.9442C56.9238 18.9442 57.1784 18.8436 57.3744 18.6772C58.0132 19.4728 58.609 20.3045 59.1582 21.1686C59.1429 21.168 59.1276 21.1677 59.1121 21.1677C58.4929 21.1677 57.9909 21.6655 57.9909 22.2795C57.9909 22.8935 58.4929 23.3912 59.1121 23.3912C59.5474 23.3912 59.9248 23.1453 60.1106 22.7859C60.6086 23.7013 61.0565 24.6479 61.4505 25.622C60.8917 25.6851 60.4576 26.1556 60.4576 26.7266C60.4576 27.3406 60.9596 27.8383 61.5789 27.8383C61.8017 27.8383 62.0093 27.7739 62.1838 27.6628C63.0136 30.2939 63.461 33.0947 63.461 36C63.461 38.6814 63.0799 41.2738 62.3688 43.7259C62.1662 43.5264 61.887 43.4031 61.5789 43.4031C60.9596 43.4031 60.4576 43.9008 60.4576 44.5149C60.4576 45.1289 60.9596 45.6266 61.5789 45.6266C61.6358 45.6266 61.6917 45.6224 61.7463 45.6143C61.3158 46.7771 60.8093 47.9031 60.2331 48.9863C60.2333 48.9782 60.2334 48.9701 60.2334 48.9619C60.2334 48.3479 59.7314 47.8502 59.1121 47.8502C58.4929 47.8502 57.9909 48.3479 57.9909 48.9619C57.9909 49.5759 58.4929 50.0737 59.1121 50.0737C59.3408 50.0737 59.5535 50.0058 59.7309 49.8892C59.1104 50.9573 58.4206 51.98 57.6675 52.9513C57.4916 52.5656 57.1001 52.2972 56.6455 52.2972C56.0262 52.2972 55.5242 52.795 55.5242 53.409C55.5242 53.9334 55.8904 54.373 56.3831 54.4902C55.6695 55.2851 54.9106 56.0385 54.1104 56.7464C53.6069 56.7764 53.1929 57.1359 53.085 57.6104C51.2775 59.0603 49.2843 60.2882 47.1466 61.2527C47.0313 61.213 46.9075 61.1914 46.7786 61.1914C46.3292 61.1914 45.9415 61.4536 45.7627 61.8321C44.8195 62.1972 43.8513 62.5121 42.8615 62.7735C42.9288 62.6307 42.9665 62.4713 42.9665 62.3032C42.9665 61.6892 42.4645 61.1914 41.8452 61.1914C41.226 61.1914 40.724 61.6892 40.724 62.3032C40.724 62.6531 40.8871 62.9653 41.142 63.1691C39.4046 63.5106 37.6089 63.6896 35.7714 63.6896H8.08182V63.1109C8.29783 62.9082 8.4326 62.6213 8.4326 62.3032C8.4326 61.985 8.29783 61.6981 8.08182 61.4954V54.2167C8.29783 54.0141 8.4326 53.7271 8.4326 53.409C8.4326 53.0909 8.29783 52.8039 8.08182 52.6013V45.3226C8.29783 45.1199 8.4326 44.833 8.4326 44.5149C8.4326 44.1967 8.29783 43.9098 8.08182 43.7071V36.4284C8.29783 36.2258 8.4326 35.9388 8.4326 35.6207C8.4326 35.3026 8.29783 35.0156 8.08182 34.813V27.5343C8.29783 27.3316 8.4326 27.0447 8.4326 26.7266C8.4326 26.4084 8.29783 26.1215 8.08182 25.9188V18.6401C8.29783 18.4375 8.4326 18.1505 8.4326 17.8324C8.4326 17.5143 8.29783 17.2273 8.08182 17.0247V9.74598ZM15.2887 49.9152V56.4826H37.437C40.5272 56.4826 43.4882 55.7453 45.9675 54.1766C46.1717 54.3887 46.4596 54.5208 46.7786 54.5208C47.3979 54.5208 47.8999 54.023 47.8999 53.409C47.8999 53.1992 47.8412 53.003 47.7394 52.8355C47.7723 52.8059 47.805 52.7762 47.8377 52.7462C49.9125 50.8417 51.2472 48.3792 51.8116 45.6223C52.3842 45.5723 52.8333 45.0956 52.8333 44.5149C52.8333 44.0331 52.5243 43.623 52.0921 43.4686C52.1109 43.1515 52.1203 42.8317 52.1203 42.5095C52.1203 40.9152 51.7885 38.7589 50.7644 36.7057C50.8273 36.6164 50.889 36.5265 50.9496 36.4358C51.1497 36.6199 51.4176 36.7325 51.712 36.7325C52.3313 36.7325 52.8333 36.2347 52.8333 35.6207C52.8333 35.1072 52.4822 34.6751 52.0051 34.5473C52.7955 32.8213 53.2197 30.9278 53.2197 28.9614C53.2197 24.9261 51.7934 21.2421 48.9683 18.5928C48.6229 18.2688 48.2631 17.9664 47.8901 17.685C47.8173 17.1406 47.3475 16.7206 46.7786 16.7206C46.6776 16.7206 46.5798 16.7339 46.4867 16.7587C44.124 15.4026 41.3662 14.7586 38.4885 14.7586H15.2887V21.3262C15.1201 21.2256 14.9226 21.1677 14.7115 21.1677C14.0922 21.1677 13.5902 21.6655 13.5902 22.2795C13.5902 22.8935 14.0922 23.3912 14.7115 23.3912C14.9226 23.3912 15.1201 23.3334 15.2887 23.2328V30.2203C15.1201 30.1197 14.9226 30.0619 14.7115 30.0619C14.0922 30.0619 13.5902 30.5596 13.5902 31.1736C13.5902 31.7876 14.0922 32.2854 14.7115 32.2854C14.9226 32.2854 15.1201 32.2275 15.2887 32.1269V39.1145C15.1201 39.0139 14.9226 38.956 14.7115 38.956C14.0922 38.956 13.5902 39.4538 13.5902 40.0678C13.5902 40.6818 14.0922 41.1796 14.7115 41.1796C14.9226 41.1796 15.1201 41.1217 15.2887 41.0211V48.0086C15.1201 47.908 14.9226 47.8502 14.7115 47.8502C14.0922 47.8502 13.5902 48.3479 13.5902 48.9619C13.5902 49.5759 14.0922 50.0737 14.7115 50.0737C14.9226 50.0737 15.1201 50.0158 15.2887 49.9152ZM47.5577 32.8362C46.854 34.2312 45.7599 35.4625 44.3199 36.4013C45.8274 37.3368 46.6746 38.8275 47.0783 40.3001C47.289 41.0686 47.379 41.8323 47.379 42.5095C47.379 48.1124 43.4117 51.6946 37.437 51.6946H20.0301V19.5466H38.4885C44.5111 19.5466 48.4783 23.2206 48.4783 28.9614C48.4783 30.3194 48.162 31.6381 47.5577 32.8362ZM36.72 39.065C38.1539 39.065 39.1577 40.1213 39.2055 41.6828C39.2533 43.428 38.2495 44.5761 36.72 44.5761H28.1557V39.065H36.72ZM37.8194 26.7569C39.2055 26.7569 40.3049 27.8592 40.3049 29.5125C40.3049 31.2577 39.2055 32.4517 37.8194 32.4517H28.1557V26.7569H37.8194ZM12.2448 61.1914C12.864 61.1914 13.366 61.6892 13.366 62.3032C13.366 62.9172 12.864 63.4149 12.2448 63.4149C11.6255 63.4149 11.1236 62.9172 11.1236 62.3032C11.1236 61.6892 11.6255 61.1914 12.2448 61.1914ZM18.2994 62.3032C18.2994 61.6892 17.7974 61.1914 17.1782 61.1914C16.5589 61.1914 16.057 61.6892 16.057 62.3032C16.057 62.9172 16.5589 63.4149 17.1782 63.4149C17.7974 63.4149 18.2994 62.9172 18.2994 62.3032ZM22.1116 61.1914C22.7308 61.1914 23.2328 61.6892 23.2328 62.3032C23.2328 62.9172 22.7308 63.4149 22.1116 63.4149C21.4924 63.4149 20.9904 62.9172 20.9904 62.3032C20.9904 61.6892 21.4924 61.1914 22.1116 61.1914ZM28.1662 62.3032C28.1662 61.6892 27.6642 61.1914 27.045 61.1914C26.4258 61.1914 25.9238 61.6892 25.9238 62.3032C25.9238 62.9172 26.4258 63.4149 27.045 63.4149C27.6642 63.4149 28.1662 62.9172 28.1662 62.3032ZM31.9784 61.1914C32.5976 61.1914 33.0996 61.6892 33.0996 62.3032C33.0996 62.9172 32.5976 63.4149 31.9784 63.4149C31.3592 63.4149 30.8572 62.9172 30.8572 62.3032C30.8572 61.6892 31.3592 61.1914 31.9784 61.1914ZM38.033 62.3032C38.033 61.6892 37.5311 61.1914 36.9118 61.1914C36.2926 61.1914 35.7906 61.6892 35.7906 62.3032C35.7906 62.9172 36.2926 63.4149 36.9118 63.4149C37.5311 63.4149 38.033 62.9172 38.033 62.3032ZM9.77807 56.7443C10.3973 56.7443 10.8993 57.2421 10.8993 57.8561C10.8993 58.4701 10.3973 58.9679 9.77807 58.9679C9.15883 58.9679 8.65684 58.4701 8.65684 57.8561C8.65684 57.2421 9.15883 56.7443 9.77807 56.7443ZM15.8327 57.8561C15.8327 57.2421 15.3307 56.7443 14.7115 56.7443C14.0922 56.7443 13.5902 57.2421 13.5902 57.8561C13.5902 58.4701 14.0922 58.9679 14.7115 58.9679C15.3307 58.9679 15.8327 58.4701 15.8327 57.8561ZM19.6449 56.7443C20.2641 56.7443 20.7661 57.2421 20.7661 57.8561C20.7661 58.4701 20.2641 58.9679 19.6449 58.9679C19.0257 58.9679 18.5237 58.4701 18.5237 57.8561C18.5237 57.2421 19.0257 56.7443 19.6449 56.7443ZM25.6995 57.8561C25.6995 57.2421 25.1975 56.7443 24.5783 56.7443C23.9591 56.7443 23.4571 57.2421 23.4571 57.8561C23.4571 58.4701 23.9591 58.9679 24.5783 58.9679C25.1975 58.9679 25.6995 58.4701 25.6995 57.8561ZM29.5117 56.7443C30.1309 56.7443 30.6329 57.2421 30.6329 57.8561C30.6329 58.4701 30.1309 58.9679 29.5117 58.9679C28.8925 58.9679 28.3905 58.4701 28.3905 57.8561C28.3905 57.2421 28.8925 56.7443 29.5117 56.7443ZM35.5663 57.8561C35.5663 57.2421 35.0644 56.7443 34.4451 56.7443C33.8259 56.7443 33.3239 57.2421 33.3239 57.8561C33.3239 58.4701 33.8259 58.9679 34.4451 58.9679C35.0644 58.9679 35.5663 58.4701 35.5663 57.8561ZM39.3785 56.7443C39.9978 56.7443 40.4998 57.2421 40.4998 57.8561C40.4998 58.4701 39.9978 58.9679 39.3785 58.9679C38.7593 58.9679 38.2573 58.4701 38.2573 57.8561C38.2573 57.2421 38.7593 56.7443 39.3785 56.7443ZM45.4332 57.8561C45.4332 57.2421 44.9312 56.7443 44.3119 56.7443C43.6927 56.7443 43.1907 57.2421 43.1907 57.8561C43.1907 58.4701 43.6927 58.9679 44.3119 58.9679C44.9312 58.9679 45.4332 58.4701 45.4332 57.8561ZM49.2453 56.7443C49.8646 56.7443 50.3666 57.2421 50.3666 57.8561C50.3666 58.4701 49.8646 58.9679 49.2453 58.9679C48.6261 58.9679 48.1241 58.4701 48.1241 57.8561C48.1241 57.2421 48.6261 56.7443 49.2453 56.7443ZM13.366 53.409C13.366 52.795 12.864 52.2972 12.2448 52.2972C11.6255 52.2972 11.1236 52.795 11.1236 53.409C11.1236 54.023 11.6255 54.5208 12.2448 54.5208C12.864 54.5208 13.366 54.023 13.366 53.409ZM52.8333 53.409C52.8333 52.795 52.3313 52.2972 51.712 52.2972C51.0928 52.2972 50.5908 52.795 50.5908 53.409C50.5908 54.023 51.0928 54.5208 51.712 54.5208C52.3313 54.5208 52.8333 54.023 52.8333 53.409ZM10.8993 48.9619C10.8993 48.3479 10.3973 47.8502 9.77807 47.8502C9.15883 47.8502 8.65684 48.3479 8.65684 48.9619C8.65684 49.5759 9.15883 50.0737 9.77807 50.0737C10.3973 50.0737 10.8993 49.5759 10.8993 48.9619ZM55.3 48.9619C55.3 48.3479 54.798 47.8502 54.1787 47.8502C53.5595 47.8502 53.0575 48.3479 53.0575 48.9619C53.0575 49.5759 53.5595 50.0737 54.1787 50.0737C54.798 50.0737 55.3 49.5759 55.3 48.9619ZM12.2448 43.4031C12.864 43.4031 13.366 43.9008 13.366 44.5149C13.366 45.1289 12.864 45.6266 12.2448 45.6266C11.6255 45.6266 11.1236 45.1289 11.1236 44.5149C11.1236 43.9008 11.6255 43.4031 12.2448 43.4031ZM56.6455 43.4031C57.2647 43.4031 57.7667 43.9008 57.7667 44.5149C57.7667 45.1289 57.2647 45.6266 56.6455 45.6266C56.0262 45.6266 55.5242 45.1289 55.5242 44.5149C55.5242 43.9008 56.0262 43.4031 56.6455 43.4031ZM9.77807 38.956C10.3973 38.956 10.8993 39.4538 10.8993 40.0678C10.8993 40.6818 10.3973 41.1796 9.77807 41.1796C9.15883 41.1796 8.65684 40.6818 8.65684 40.0678C8.65684 39.4538 9.15883 38.956 9.77807 38.956ZM54.1787 38.956C54.798 38.956 55.3 39.4538 55.3 40.0678C55.3 40.6818 54.798 41.1796 54.1787 41.1796C53.5595 41.1796 53.0575 40.6818 53.0575 40.0678C53.0575 39.4538 53.5595 38.956 54.1787 38.956ZM60.2334 40.0678C60.2334 39.4538 59.7314 38.956 59.1121 38.956C58.4929 38.956 57.9909 39.4538 57.9909 40.0678C57.9909 40.6818 58.4929 41.1796 59.1121 41.1796C59.7314 41.1796 60.2334 40.6818 60.2334 40.0678ZM13.366 35.6207C13.366 35.0067 12.864 34.5089 12.2448 34.5089C11.6255 34.5089 11.1236 35.0067 11.1236 35.6207C11.1236 36.2347 11.6255 36.7325 12.2448 36.7325C12.864 36.7325 13.366 36.2347 13.366 35.6207ZM57.7667 35.6207C57.7667 35.0067 57.2647 34.5089 56.6455 34.5089C56.0262 34.5089 55.5242 35.0067 55.5242 35.6207C55.5242 36.2347 56.0262 36.7325 56.6455 36.7325C57.2647 36.7325 57.7667 36.2347 57.7667 35.6207ZM61.5789 34.5089C62.1981 34.5089 62.7001 35.0067 62.7001 35.6207C62.7001 36.2347 62.1981 36.7325 61.5789 36.7325C60.9596 36.7325 60.4576 36.2347 60.4576 35.6207C60.4576 35.0067 60.9596 34.5089 61.5789 34.5089ZM10.8993 31.1736C10.8993 30.5596 10.3973 30.0619 9.77807 30.0619C9.15883 30.0619 8.65684 30.5596 8.65684 31.1736C8.65684 31.7876 9.15883 32.2854 9.77807 32.2854C10.3973 32.2854 10.8993 31.7876 10.8993 31.1736ZM55.3 31.1736C55.3 30.5596 54.798 30.0619 54.1787 30.0619C53.5595 30.0619 53.0575 30.5596 53.0575 31.1736C53.0575 31.7876 53.5595 32.2854 54.1787 32.2854C54.798 32.2854 55.3 31.7876 55.3 31.1736ZM59.1121 30.0619C59.7314 30.0619 60.2334 30.5596 60.2334 31.1736C60.2334 31.7876 59.7314 32.2854 59.1121 32.2854C58.4929 32.2854 57.9909 31.7876 57.9909 31.1736C57.9909 30.5596 58.4929 30.0619 59.1121 30.0619ZM12.2448 25.6148C12.864 25.6148 13.366 26.1125 13.366 26.7266C13.366 27.3406 12.864 27.8383 12.2448 27.8383C11.6255 27.8383 11.1236 27.3406 11.1236 26.7266C11.1236 26.1125 11.6255 25.6148 12.2448 25.6148ZM57.7667 26.7266C57.7667 26.1125 57.2647 25.6148 56.6455 25.6148C56.0262 25.6148 55.5242 26.1125 55.5242 26.7266C55.5242 27.3406 56.0262 27.8383 56.6455 27.8383C57.2647 27.8383 57.7667 27.3406 57.7667 26.7266ZM10.8993 22.2795C10.8993 21.6655 10.3973 21.1677 9.77807 21.1677C9.15883 21.1677 8.65684 21.6655 8.65684 22.2795C8.65684 22.8935 9.15883 23.3912 9.77807 23.3912C10.3973 23.3912 10.8993 22.8935 10.8993 22.2795ZM55.3 22.2795C55.3 21.6655 54.798 21.1677 54.1787 21.1677C53.5595 21.1677 53.0575 21.6655 53.0575 22.2795C53.0575 22.8935 53.5595 23.3912 54.1787 23.3912C54.798 23.3912 55.3 22.8935 55.3 22.2795ZM12.2448 16.7206C12.864 16.7206 13.366 17.2184 13.366 17.8324C13.366 18.4464 12.864 18.9442 12.2448 18.9442C11.6255 18.9442 11.1236 18.4464 11.1236 17.8324C11.1236 17.2184 11.6255 16.7206 12.2448 16.7206ZM51.712 16.7206C52.3313 16.7206 52.8333 17.2184 52.8333 17.8324C52.8333 18.4464 52.3313 18.9442 51.712 18.9442C51.0928 18.9442 50.5908 18.4464 50.5908 17.8324C50.5908 17.2184 51.0928 16.7206 51.712 16.7206ZM9.77807 12.2736C10.3973 12.2736 10.8993 12.7713 10.8993 13.3853C10.8993 13.9993 10.3973 14.4971 9.77807 14.4971C9.15883 14.4971 8.65684 13.9993 8.65684 13.3853C8.65684 12.7713 9.15883 12.2736 9.77807 12.2736ZM15.8327 13.3853C15.8327 12.7713 15.3307 12.2736 14.7115 12.2736C14.0922 12.2736 13.5902 12.7713 13.5902 13.3853C13.5902 13.9993 14.0922 14.4971 14.7115 14.4971C15.3307 14.4971 15.8327 13.9993 15.8327 13.3853ZM19.6449 12.2736C20.2641 12.2736 20.7661 12.7713 20.7661 13.3853C20.7661 13.9993 20.2641 14.4971 19.6449 14.4971C19.0257 14.4971 18.5237 13.9993 18.5237 13.3853C18.5237 12.7713 19.0257 12.2736 19.6449 12.2736ZM25.6995 13.3853C25.6995 12.7713 25.1975 12.2736 24.5783 12.2736C23.9591 12.2736 23.4571 12.7713 23.4571 13.3853C23.4571 13.9993 23.9591 14.4971 24.5783 14.4971C25.1975 14.4971 25.6995 13.9993 25.6995 13.3853ZM29.5117 12.2736C30.1309 12.2736 30.6329 12.7713 30.6329 13.3853C30.6329 13.9993 30.1309 14.4971 29.5117 14.4971C28.8925 14.4971 28.3905 13.9993 28.3905 13.3853C28.3905 12.7713 28.8925 12.2736 29.5117 12.2736ZM35.5663 13.3853C35.5663 12.7713 35.0644 12.2736 34.4451 12.2736C33.8259 12.2736 33.3239 12.7713 33.3239 13.3853C33.3239 13.9993 33.8259 14.4971 34.4451 14.4971C35.0644 14.4971 35.5663 13.9993 35.5663 13.3853ZM39.3785 12.2736C39.9978 12.2736 40.4998 12.7713 40.4998 13.3853C40.4998 13.9993 39.9978 14.4971 39.3785 14.4971C38.7593 14.4971 38.2573 13.9993 38.2573 13.3853C38.2573 12.7713 38.7593 12.2736 39.3785 12.2736ZM45.4332 13.3853C45.4332 12.7713 44.9312 12.2736 44.3119 12.2736C43.6927 12.2736 43.1907 12.7713 43.1907 13.3853C43.1907 13.9993 43.6927 14.4971 44.3119 14.4971C44.9312 14.4971 45.4332 13.9993 45.4332 13.3853ZM49.2453 12.2736C49.8646 12.2736 50.3666 12.7713 50.3666 13.3853C50.3666 13.9993 49.8646 14.4971 49.2453 14.4971C48.6261 14.4971 48.1241 13.9993 48.1241 13.3853C48.1241 12.7713 48.6261 12.2736 49.2453 12.2736Z" fill="#DADDEA"/>
</svg>
