<svg width="48" height="48" viewBox="0 0 48 48" fill="none" xmlns="http://www.w3.org/2000/svg">
<path d="M23.5 9.88043C25.433 9.88043 27 8.31343 27 6.38043C27 4.44744 25.433 2.88043 23.5 2.88043C21.567 2.88043 20 4.44744 20 6.38043C20 8.31343 21.567 9.88043 23.5 9.88043Z" fill="white"/>
<path d="M5.25043 15.5315C4.73553 15.8295 4.13768 16 3.5 16C1.567 16 0 14.433 0 12.5C0 10.567 1.567 9 3.5 9C5.433 9 7 10.567 7 12.5C7 13.7633 6.3307 14.8703 5.32734 15.4857L15.7884 21.0338L23.5636 10.4292L31.3388 21.0338L41.8909 15.4374L38.6454 37.1196H8.48184L5.25043 15.5315Z" fill="white"/>
<path d="M9.08059 41.1196L9.67933 45.1196H37.4479L38.0467 41.1196H9.08059Z" fill="white"/>
<path d="M44.5 16C46.433 16 48 14.433 48 12.5C48 10.567 46.433 9 44.5 9C42.567 9 41 10.567 41 12.5C41 14.433 42.567 16 44.5 16Z" fill="white"/>
</svg>
