<svg  viewBox="0 0 100 100" fill="none" xmlns="http://www.w3.org/2000/svg">
<path fill-rule="evenodd" clip-rule="evenodd" d="M9.08634 2.72239L13.7823 7.38865L18.4783 2.72239L13.7823 -1.94388L9.08634 2.72239ZM16.7917 2.72239L13.7823 5.71268L10.773 2.72239L13.7823 -0.267914L16.7917 2.72239Z" fill="#7572FF"/>
<path fill-rule="evenodd" clip-rule="evenodd" d="M32.9389 2.72239L37.6349 7.38865L42.3309 2.72239L37.6349 -1.94388L32.9389 2.72239ZM40.6442 2.72239L37.6349 5.71268L34.6256 2.72239L37.6349 -0.267914L40.6442 2.72239Z" fill="#7572FF"/>
<path fill-rule="evenodd" clip-rule="evenodd" d="M56.7915 2.72239L61.4875 7.38865L66.1835 2.72239L61.4875 -1.94388L56.7915 2.72239ZM64.4968 2.72239L61.4875 5.71268L58.4781 2.72239L61.4875 -0.267914L64.4968 2.72239Z" fill="#7572FF"/>
<path fill-rule="evenodd" clip-rule="evenodd" d="M80.6441 2.72239L85.34 7.38865L90.036 2.72239L85.34 -1.94388L80.6441 2.72239ZM88.3494 2.72239L85.34 5.71268L82.3307 2.72239L85.34 -0.267914L88.3494 2.72239Z" fill="#7572FF"/>
<path fill-rule="evenodd" clip-rule="evenodd" d="M-2.83994 2.57425L1.85603 7.24052L6.55201 2.57425L1.85603 -2.09201L-2.83994 2.57425ZM4.86538 2.57425L1.85603 5.56455L-1.15331 2.57425L1.85603 -0.416045L4.86538 2.57425Z" fill="#7572FF"/>
<path fill-rule="evenodd" clip-rule="evenodd" d="M-2.83994 14.5732L1.85603 19.2395L6.55201 14.5732L1.85603 9.90695L-2.83994 14.5732ZM4.86538 14.5732L1.85603 17.5635L-1.15331 14.5732L1.85603 11.5829L4.86538 14.5732Z" fill="#7572FF"/>
<path fill-rule="evenodd" clip-rule="evenodd" d="M-8.87762 8.57374L-4.18165 3.90746L0.514324 8.57374L-4.18165 13.24L-8.87762 8.57374ZM-4.18165 11.564L-1.17231 8.57374L-4.18165 5.58343L-7.19099 8.57374L-4.18165 11.564Z" fill="#7572FF"/>
<path fill-rule="evenodd" clip-rule="evenodd" d="M3.19774 8.57374L7.89372 13.24L12.5897 8.57374L7.89372 3.90746L3.19774 8.57374ZM10.9031 8.57374L7.89372 11.564L4.88438 8.57374L7.89372 5.58343L10.9031 8.57374Z" fill="#7572FF"/>
<path fill-rule="evenodd" clip-rule="evenodd" d="M21.0126 2.57425L25.7086 7.24052L30.4046 2.57425L25.7086 -2.09201L21.0126 2.57425ZM28.718 2.57425L25.7086 5.56455L22.6993 2.57425L25.7086 -0.416045L28.718 2.57425Z" fill="#7572FF"/>
<path fill-rule="evenodd" clip-rule="evenodd" d="M21.0126 14.5732L25.7086 19.2395L30.4046 14.5732L25.7086 9.90695L21.0126 14.5732ZM28.718 14.5732L25.7086 17.5635L22.6993 14.5732L25.7086 11.5829L28.718 14.5732Z" fill="#7572FF"/>
<path fill-rule="evenodd" clip-rule="evenodd" d="M14.975 8.57374L19.6709 3.90746L24.3669 8.57374L19.6709 13.24L14.975 8.57374ZM19.6709 11.564L22.6803 8.57374L19.6709 5.58343L16.6616 8.57374L19.6709 11.564Z" fill="#7572FF"/>
<path fill-rule="evenodd" clip-rule="evenodd" d="M27.0503 8.57374L31.7463 13.24L36.4423 8.57374L31.7463 3.90746L27.0503 8.57374ZM34.7556 8.57374L31.7463 11.564L28.737 8.57374L31.7463 5.58343L34.7556 8.57374Z" fill="#7572FF"/>
<path fill-rule="evenodd" clip-rule="evenodd" d="M44.8652 2.57425L49.5612 7.24052L54.2572 2.57425L49.5612 -2.09201L44.8652 2.57425ZM52.5705 2.57425L49.5612 5.56455L46.5518 2.57425L49.5612 -0.416045L52.5705 2.57425Z" fill="#7572FF"/>
<path fill-rule="evenodd" clip-rule="evenodd" d="M44.8652 14.5732L49.5612 19.2395L54.2572 14.5732L49.5612 9.90695L44.8652 14.5732ZM52.5705 14.5732L49.5612 17.5635L46.5518 14.5732L49.5612 11.5829L52.5705 14.5732Z" fill="#7572FF"/>
<path fill-rule="evenodd" clip-rule="evenodd" d="M38.8275 8.57374L43.5235 3.90746L48.2195 8.57374L43.5235 13.24L38.8275 8.57374ZM43.5235 11.564L46.5328 8.57374L43.5235 5.58343L40.5142 8.57374L43.5235 11.564Z" fill="#7572FF"/>
<path fill-rule="evenodd" clip-rule="evenodd" d="M50.9029 8.57374L55.5989 13.24L60.2949 8.57374L55.5989 3.90746L50.9029 8.57374ZM58.6082 8.57374L55.5989 11.564L52.5895 8.57374L55.5989 5.58343L58.6082 8.57374Z" fill="#7572FF"/>
<path fill-rule="evenodd" clip-rule="evenodd" d="M68.7178 2.57425L73.4138 7.24052L78.1097 2.57425L73.4138 -2.09201L68.7178 2.57425ZM76.4231 2.57425L73.4138 5.56455L70.4044 2.57425L73.4138 -0.416045L76.4231 2.57425Z" fill="#7572FF"/>
<path fill-rule="evenodd" clip-rule="evenodd" d="M68.7178 14.5732L73.4138 19.2395L78.1097 14.5732L73.4138 9.90695L68.7178 14.5732ZM76.4231 14.5732L73.4138 17.5635L70.4044 14.5732L73.4138 11.5829L76.4231 14.5732Z" fill="#7572FF"/>
<path fill-rule="evenodd" clip-rule="evenodd" d="M62.6801 8.57374L67.3761 3.90746L72.0721 8.57374L67.3761 13.24L62.6801 8.57374ZM67.3761 11.564L70.3854 8.57374L67.3761 5.58343L64.3667 8.57374L67.3761 11.564Z" fill="#7572FF"/>
<path fill-rule="evenodd" clip-rule="evenodd" d="M74.7555 8.57374L79.4514 13.24L84.1474 8.57374L79.4514 3.90746L74.7555 8.57374ZM82.4608 8.57374L79.4514 11.564L76.4421 8.57374L79.4514 5.58343L82.4608 8.57374Z" fill="#7572FF"/>
<path fill-rule="evenodd" clip-rule="evenodd" d="M92.5704 2.57425L97.2663 7.24052L101.962 2.57425L97.2663 -2.09201L92.5704 2.57425ZM100.276 2.57425L97.2663 5.56455L94.257 2.57425L97.2663 -0.416045L100.276 2.57425Z" fill="#7572FF"/>
<path fill-rule="evenodd" clip-rule="evenodd" d="M92.5704 14.5732L97.2663 19.2395L101.962 14.5732L97.2663 9.90695L92.5704 14.5732ZM100.276 14.5732L97.2663 17.5635L94.257 14.5732L97.2663 11.5829L100.276 14.5732Z" fill="#7572FF"/>
<path fill-rule="evenodd" clip-rule="evenodd" d="M86.5327 8.57374L91.2287 3.90746L95.9246 8.57374L91.2287 13.24L86.5327 8.57374ZM91.2287 11.564L94.238 8.57374L91.2287 5.58343L88.2193 8.57374L91.2287 11.564Z" fill="#7572FF"/>
<path fill-rule="evenodd" clip-rule="evenodd" d="M98.608 8.57374L103.304 13.24L108 8.57374L103.304 3.90746L98.608 8.57374ZM106.313 8.57374L103.304 11.564L100.295 8.57374L103.304 5.58343L106.313 8.57374Z" fill="#7572FF"/>
<path fill-rule="evenodd" clip-rule="evenodd" d="M-8.72854 20.4246L-4.03257 25.0908L0.663405 20.4246L-4.03257 15.7583L-8.72854 20.4246ZM-1.02323 20.4246L-4.03257 23.4149L-7.04191 20.4246L-4.03257 17.4343L-1.02323 20.4246Z" fill="#7572FF"/>
<path fill-rule="evenodd" clip-rule="evenodd" d="M9.08634 14.4251L13.7823 19.0913L18.4783 14.4251L13.7823 9.75881L9.08634 14.4251ZM16.7917 14.4251L13.7823 17.4154L10.773 14.4251L13.7823 11.4348L16.7917 14.4251Z" fill="#7572FF"/>
<path fill-rule="evenodd" clip-rule="evenodd" d="M9.08634 26.424L13.7823 31.0903L18.4783 26.424L13.7823 21.7578L9.08634 26.424ZM16.7917 26.424L13.7823 29.4143L10.773 26.424L13.7823 23.4337L16.7917 26.424Z" fill="#7572FF"/>
<path fill-rule="evenodd" clip-rule="evenodd" d="M3.04867 20.4246L7.74464 15.7583L12.4406 20.4246L7.74464 25.0908L3.04867 20.4246ZM7.74464 23.4149L10.754 20.4246L7.74464 17.4343L4.7353 20.4246L7.74464 23.4149Z" fill="#7572FF"/>
<path fill-rule="evenodd" clip-rule="evenodd" d="M15.124 20.4246L19.82 25.0908L24.516 20.4246L19.82 15.7583L15.124 20.4246ZM22.8293 20.4246L19.82 23.4149L16.8107 20.4246L19.82 17.4343L22.8293 20.4246Z" fill="#7572FF"/>
<path fill-rule="evenodd" clip-rule="evenodd" d="M32.9389 14.4251L37.6349 19.0913L42.3309 14.4251L37.6349 9.75881L32.9389 14.4251ZM40.6442 14.4251L37.6349 17.4154L34.6256 14.4251L37.6349 11.4348L40.6442 14.4251Z" fill="#7572FF"/>
<path fill-rule="evenodd" clip-rule="evenodd" d="M32.9389 26.424L37.6349 31.0903L42.3309 26.424L37.6349 21.7578L32.9389 26.424ZM40.6442 26.424L37.6349 29.4143L34.6256 26.424L37.6349 23.4337L40.6442 26.424Z" fill="#7572FF"/>
<path fill-rule="evenodd" clip-rule="evenodd" d="M26.9012 20.4246L31.5972 15.7583L36.2932 20.4246L31.5972 25.0908L26.9012 20.4246ZM31.5972 23.4149L34.6066 20.4246L31.5972 17.4343L28.5879 20.4246L31.5972 23.4149Z" fill="#7572FF"/>
<path fill-rule="evenodd" clip-rule="evenodd" d="M38.9766 20.4246L43.6726 25.0908L48.3686 20.4246L43.6726 15.7583L38.9766 20.4246ZM46.6819 20.4246L43.6726 23.4149L40.6632 20.4246L43.6726 17.4343L46.6819 20.4246Z" fill="#7572FF"/>
<path fill-rule="evenodd" clip-rule="evenodd" d="M56.7915 14.4251L61.4875 19.0913L66.1835 14.4251L61.4875 9.75881L56.7915 14.4251ZM64.4968 14.4251L61.4875 17.4154L58.4781 14.4251L61.4875 11.4348L64.4968 14.4251Z" fill="#7572FF"/>
<path fill-rule="evenodd" clip-rule="evenodd" d="M56.7915 26.424L61.4875 31.0903L66.1835 26.424L61.4875 21.7578L56.7915 26.424ZM64.4968 26.424L61.4875 29.4143L58.4781 26.424L61.4875 23.4337L64.4968 26.424Z" fill="#7572FF"/>
<path fill-rule="evenodd" clip-rule="evenodd" d="M50.7538 20.4246L55.4498 15.7583L60.1458 20.4246L55.4498 25.0908L50.7538 20.4246ZM55.4498 23.4149L58.4591 20.4246L55.4498 17.4343L52.4405 20.4246L55.4498 23.4149Z" fill="#7572FF"/>
<path fill-rule="evenodd" clip-rule="evenodd" d="M62.8292 20.4246L67.5252 25.0908L72.2211 20.4246L67.5252 15.7583L62.8292 20.4246ZM70.5345 20.4246L67.5252 23.4149L64.5158 20.4246L67.5252 17.4343L70.5345 20.4246Z" fill="#7572FF"/>
<path fill-rule="evenodd" clip-rule="evenodd" d="M80.6441 14.4251L85.34 19.0913L90.036 14.4251L85.34 9.75881L80.6441 14.4251ZM88.3494 14.4251L85.34 17.4154L82.3307 14.4251L85.34 11.4348L88.3494 14.4251Z" fill="#7572FF"/>
<path fill-rule="evenodd" clip-rule="evenodd" d="M80.6441 26.424L85.34 31.0903L90.036 26.424L85.34 21.7578L80.6441 26.424ZM88.3494 26.424L85.34 29.4143L82.3307 26.424L85.34 23.4337L88.3494 26.424Z" fill="#7572FF"/>
<path fill-rule="evenodd" clip-rule="evenodd" d="M74.6064 20.4246L79.3024 15.7583L83.9983 20.4246L79.3024 25.0908L74.6064 20.4246ZM79.3024 23.4149L82.3117 20.4246L79.3024 17.4343L76.293 20.4246L79.3024 23.4149Z" fill="#7572FF"/>
<path fill-rule="evenodd" clip-rule="evenodd" d="M86.6818 20.4246L91.3777 25.0908L96.0737 20.4246L91.3777 15.7583L86.6818 20.4246ZM94.3871 20.4246L91.3777 23.4149L88.3684 20.4246L91.3777 17.4343L94.3871 20.4246Z" fill="#7572FF"/>
<path fill-rule="evenodd" clip-rule="evenodd" d="M98.459 20.4246L103.155 15.7583L107.851 20.4246L103.155 25.0908L98.459 20.4246ZM103.155 23.4149L106.164 20.4246L103.155 17.4343L100.146 20.4246L103.155 23.4149Z" fill="#7572FF"/>
<path fill-rule="evenodd" clip-rule="evenodd" d="M-2.83994 26.2759L1.85603 30.9422L6.55201 26.2759L1.85603 21.6096L-2.83994 26.2759ZM4.86538 26.2759L1.85603 29.2662L-1.15331 26.2759L1.85603 23.2856L4.86538 26.2759Z" fill="#7572FF"/>
<path fill-rule="evenodd" clip-rule="evenodd" d="M-2.83994 38.2749L1.85603 42.9411L6.55201 38.2749L1.85603 33.6086L-2.83994 38.2749ZM4.86538 38.2749L1.85603 41.2652L-1.15331 38.2749L1.85603 35.2846L4.86538 38.2749Z" fill="#7572FF"/>
<path fill-rule="evenodd" clip-rule="evenodd" d="M-8.87762 32.2754L-4.18165 27.6091L0.514324 32.2754L-4.18165 36.9417L-8.87762 32.2754ZM-4.18165 35.2657L-1.17231 32.2754L-4.18165 29.2851L-7.19099 32.2754L-4.18165 35.2657Z" fill="#7572FF"/>
<path fill-rule="evenodd" clip-rule="evenodd" d="M3.19774 32.2754L7.89372 36.9417L12.5897 32.2754L7.89372 27.6091L3.19774 32.2754ZM10.9031 32.2754L7.89372 35.2657L4.88438 32.2754L7.89372 29.2851L10.9031 32.2754Z" fill="#7572FF"/>
<path fill-rule="evenodd" clip-rule="evenodd" d="M21.0126 26.2759L25.7086 30.9422L30.4046 26.2759L25.7086 21.6096L21.0126 26.2759ZM28.718 26.2759L25.7086 29.2662L22.6993 26.2759L25.7086 23.2856L28.718 26.2759Z" fill="#7572FF"/>
<path fill-rule="evenodd" clip-rule="evenodd" d="M21.0126 38.2749L25.7086 42.9411L30.4046 38.2749L25.7086 33.6086L21.0126 38.2749ZM28.718 38.2749L25.7086 41.2652L22.6993 38.2749L25.7086 35.2846L28.718 38.2749Z" fill="#7572FF"/>
<path fill-rule="evenodd" clip-rule="evenodd" d="M14.975 32.2754L19.6709 27.6091L24.3669 32.2754L19.6709 36.9417L14.975 32.2754ZM19.6709 35.2657L22.6803 32.2754L19.6709 29.2851L16.6616 32.2754L19.6709 35.2657Z" fill="#7572FF"/>
<path fill-rule="evenodd" clip-rule="evenodd" d="M27.0503 32.2754L31.7463 36.9417L36.4423 32.2754L31.7463 27.6091L27.0503 32.2754ZM34.7556 32.2754L31.7463 35.2657L28.737 32.2754L31.7463 29.2851L34.7556 32.2754Z" fill="#7572FF"/>
<path fill-rule="evenodd" clip-rule="evenodd" d="M44.8652 26.2759L49.5612 30.9422L54.2572 26.2759L49.5612 21.6096L44.8652 26.2759ZM52.5705 26.2759L49.5612 29.2662L46.5518 26.2759L49.5612 23.2856L52.5705 26.2759Z" fill="#7572FF"/>
<path fill-rule="evenodd" clip-rule="evenodd" d="M44.8652 38.2749L49.5612 42.9411L54.2572 38.2749L49.5612 33.6086L44.8652 38.2749ZM52.5705 38.2749L49.5612 41.2652L46.5518 38.2749L49.5612 35.2846L52.5705 38.2749Z" fill="#7572FF"/>
<path fill-rule="evenodd" clip-rule="evenodd" d="M38.8275 32.2754L43.5235 27.6091L48.2195 32.2754L43.5235 36.9417L38.8275 32.2754ZM43.5235 35.2657L46.5328 32.2754L43.5235 29.2851L40.5142 32.2754L43.5235 35.2657Z" fill="#7572FF"/>
<path fill-rule="evenodd" clip-rule="evenodd" d="M50.9029 32.2754L55.5989 36.9417L60.2949 32.2754L55.5989 27.6091L50.9029 32.2754ZM58.6082 32.2754L55.5989 35.2657L52.5895 32.2754L55.5989 29.2851L58.6082 32.2754Z" fill="#7572FF"/>
<path fill-rule="evenodd" clip-rule="evenodd" d="M68.7178 26.2759L73.4138 30.9422L78.1097 26.2759L73.4138 21.6096L68.7178 26.2759ZM76.4231 26.2759L73.4138 29.2662L70.4044 26.2759L73.4138 23.2856L76.4231 26.2759Z" fill="#7572FF"/>
<path fill-rule="evenodd" clip-rule="evenodd" d="M68.7178 38.2749L73.4138 42.9411L78.1097 38.2749L73.4138 33.6086L68.7178 38.2749ZM76.4231 38.2749L73.4138 41.2652L70.4044 38.2749L73.4138 35.2846L76.4231 38.2749Z" fill="#7572FF"/>
<path fill-rule="evenodd" clip-rule="evenodd" d="M62.6801 32.2754L67.3761 27.6091L72.0721 32.2754L67.3761 36.9417L62.6801 32.2754ZM67.3761 35.2657L70.3854 32.2754L67.3761 29.2851L64.3667 32.2754L67.3761 35.2657Z" fill="#7572FF"/>
<path fill-rule="evenodd" clip-rule="evenodd" d="M74.7555 32.2754L79.4514 36.9417L84.1474 32.2754L79.4514 27.6091L74.7555 32.2754ZM82.4608 32.2754L79.4514 35.2657L76.4421 32.2754L79.4514 29.2851L82.4608 32.2754Z" fill="#7572FF"/>
<path fill-rule="evenodd" clip-rule="evenodd" d="M92.5704 26.2759L97.2663 30.9422L101.962 26.2759L97.2663 21.6096L92.5704 26.2759ZM100.276 26.2759L97.2663 29.2662L94.257 26.2759L97.2663 23.2856L100.276 26.2759Z" fill="#7572FF"/>
<path fill-rule="evenodd" clip-rule="evenodd" d="M92.5704 38.2749L97.2663 42.9411L101.962 38.2749L97.2663 33.6086L92.5704 38.2749ZM100.276 38.2749L97.2663 41.2652L94.257 38.2749L97.2663 35.2846L100.276 38.2749Z" fill="#7572FF"/>
<path fill-rule="evenodd" clip-rule="evenodd" d="M86.5327 32.2754L91.2287 27.6091L95.9246 32.2754L91.2287 36.9417L86.5327 32.2754ZM91.2287 35.2657L94.238 32.2754L91.2287 29.2851L88.2193 32.2754L91.2287 35.2657Z" fill="#7572FF"/>
<path fill-rule="evenodd" clip-rule="evenodd" d="M98.608 32.2754L103.304 36.9417L108 32.2754L103.304 27.6091L98.608 32.2754ZM106.313 32.2754L103.304 35.2657L100.295 32.2754L103.304 29.2851L106.313 32.2754Z" fill="#7572FF"/>
<path fill-rule="evenodd" clip-rule="evenodd" d="M-8.72854 44.1262L-4.03257 48.7925L0.663405 44.1262L-4.03257 39.46L-8.72854 44.1262ZM-1.02323 44.1262L-4.03257 47.1165L-7.04191 44.1262L-4.03257 41.1359L-1.02323 44.1262Z" fill="#7572FF"/>
<path fill-rule="evenodd" clip-rule="evenodd" d="M9.08634 38.1267L13.7823 42.793L18.4783 38.1267L13.7823 33.4605L9.08634 38.1267ZM16.7917 38.1267L13.7823 41.117L10.773 38.1267L13.7823 35.1364L16.7917 38.1267Z" fill="#7572FF"/>
<path fill-rule="evenodd" clip-rule="evenodd" d="M9.08634 50.1257L13.7823 54.792L18.4783 50.1257L13.7823 45.4594L9.08634 50.1257ZM16.7917 50.1257L13.7823 53.116L10.773 50.1257L13.7823 47.1354L16.7917 50.1257Z" fill="#7572FF"/>
<path fill-rule="evenodd" clip-rule="evenodd" d="M3.04867 44.1262L7.74464 39.46L12.4406 44.1262L7.74464 48.7925L3.04867 44.1262ZM7.74464 47.1165L10.754 44.1262L7.74464 41.1359L4.7353 44.1262L7.74464 47.1165Z" fill="#7572FF"/>
<path fill-rule="evenodd" clip-rule="evenodd" d="M15.124 44.1262L19.82 48.7925L24.516 44.1262L19.82 39.46L15.124 44.1262ZM22.8293 44.1262L19.82 47.1165L16.8107 44.1262L19.82 41.1359L22.8293 44.1262Z" fill="#7572FF"/>
<path fill-rule="evenodd" clip-rule="evenodd" d="M32.9389 38.1267L37.6349 42.793L42.3309 38.1267L37.6349 33.4605L32.9389 38.1267ZM40.6442 38.1267L37.6349 41.117L34.6256 38.1267L37.6349 35.1364L40.6442 38.1267Z" fill="#7572FF"/>
<path fill-rule="evenodd" clip-rule="evenodd" d="M32.9389 50.1257L37.6349 54.792L42.3309 50.1257L37.6349 45.4594L32.9389 50.1257ZM40.6442 50.1257L37.6349 53.116L34.6256 50.1257L37.6349 47.1354L40.6442 50.1257Z" fill="#7572FF"/>
<path fill-rule="evenodd" clip-rule="evenodd" d="M26.9012 44.1262L31.5972 39.46L36.2932 44.1262L31.5972 48.7925L26.9012 44.1262ZM31.5972 47.1165L34.6066 44.1262L31.5972 41.1359L28.5879 44.1262L31.5972 47.1165Z" fill="#7572FF"/>
<path fill-rule="evenodd" clip-rule="evenodd" d="M38.9766 44.1262L43.6726 48.7925L48.3686 44.1262L43.6726 39.46L38.9766 44.1262ZM46.6819 44.1262L43.6726 47.1165L40.6632 44.1262L43.6726 41.1359L46.6819 44.1262Z" fill="#7572FF"/>
<path fill-rule="evenodd" clip-rule="evenodd" d="M56.7915 38.1267L61.4875 42.793L66.1835 38.1267L61.4875 33.4605L56.7915 38.1267ZM64.4968 38.1267L61.4875 41.117L58.4781 38.1267L61.4875 35.1364L64.4968 38.1267Z" fill="#7572FF"/>
<path fill-rule="evenodd" clip-rule="evenodd" d="M56.7915 50.1257L61.4875 54.792L66.1835 50.1257L61.4875 45.4594L56.7915 50.1257ZM64.4968 50.1257L61.4875 53.116L58.4781 50.1257L61.4875 47.1354L64.4968 50.1257Z" fill="#7572FF"/>
<path fill-rule="evenodd" clip-rule="evenodd" d="M50.7538 44.1262L55.4498 39.46L60.1458 44.1262L55.4498 48.7925L50.7538 44.1262ZM55.4498 47.1165L58.4591 44.1262L55.4498 41.1359L52.4405 44.1262L55.4498 47.1165Z" fill="#7572FF"/>
<path fill-rule="evenodd" clip-rule="evenodd" d="M62.8292 44.1262L67.5252 48.7925L72.2211 44.1262L67.5252 39.46L62.8292 44.1262ZM70.5345 44.1262L67.5252 47.1165L64.5158 44.1262L67.5252 41.1359L70.5345 44.1262Z" fill="#7572FF"/>
<path fill-rule="evenodd" clip-rule="evenodd" d="M80.6441 38.1267L85.34 42.793L90.036 38.1267L85.34 33.4605L80.6441 38.1267ZM88.3494 38.1267L85.34 41.117L82.3307 38.1267L85.34 35.1364L88.3494 38.1267Z" fill="#7572FF"/>
<path fill-rule="evenodd" clip-rule="evenodd" d="M80.6441 50.1257L85.34 54.792L90.036 50.1257L85.34 45.4594L80.6441 50.1257ZM88.3494 50.1257L85.34 53.116L82.3307 50.1257L85.34 47.1354L88.3494 50.1257Z" fill="#7572FF"/>
<path fill-rule="evenodd" clip-rule="evenodd" d="M74.6064 44.1262L79.3024 39.46L83.9983 44.1262L79.3024 48.7925L74.6064 44.1262ZM79.3024 47.1165L82.3117 44.1262L79.3024 41.1359L76.293 44.1262L79.3024 47.1165Z" fill="#7572FF"/>
<path fill-rule="evenodd" clip-rule="evenodd" d="M86.6818 44.1262L91.3777 48.7925L96.0737 44.1262L91.3777 39.46L86.6818 44.1262ZM94.3871 44.1262L91.3777 47.1165L88.3684 44.1262L91.3777 41.1359L94.3871 44.1262Z" fill="#7572FF"/>
<path fill-rule="evenodd" clip-rule="evenodd" d="M98.459 44.1262L103.155 39.46L107.851 44.1262L103.155 48.7925L98.459 44.1262ZM103.155 47.1165L106.164 44.1262L103.155 41.1359L100.146 44.1262L103.155 47.1165Z" fill="#7572FF"/>
<path fill-rule="evenodd" clip-rule="evenodd" d="M-2.83994 49.9776L1.85603 54.6438L6.55201 49.9776L1.85603 45.3113L-2.83994 49.9776ZM4.86538 49.9776L1.85603 52.9679L-1.15331 49.9776L1.85603 46.9873L4.86538 49.9776Z" fill="#7572FF"/>
<path fill-rule="evenodd" clip-rule="evenodd" d="M-2.83994 61.9765L1.85603 66.6428L6.55201 61.9765L1.85603 57.3103L-2.83994 61.9765ZM4.86538 61.9765L1.85603 64.9668L-1.15331 61.9765L1.85603 58.9862L4.86538 61.9765Z" fill="#7572FF"/>
<path fill-rule="evenodd" clip-rule="evenodd" d="M-8.87762 55.977L-4.18165 51.3108L0.514324 55.977L-4.18165 60.6433L-8.87762 55.977ZM-4.18165 58.9673L-1.17231 55.977L-4.18165 52.9867L-7.19099 55.977L-4.18165 58.9673Z" fill="#7572FF"/>
<path fill-rule="evenodd" clip-rule="evenodd" d="M3.19774 55.977L7.89372 60.6433L12.5897 55.977L7.89372 51.3108L3.19774 55.977ZM10.9031 55.977L7.89372 58.9673L4.88438 55.977L7.89372 52.9867L10.9031 55.977Z" fill="#7572FF"/>
<path fill-rule="evenodd" clip-rule="evenodd" d="M21.0126 49.9776L25.7086 54.6438L30.4046 49.9776L25.7086 45.3113L21.0126 49.9776ZM28.718 49.9776L25.7086 52.9679L22.6993 49.9776L25.7086 46.9873L28.718 49.9776Z" fill="#7572FF"/>
<path fill-rule="evenodd" clip-rule="evenodd" d="M21.0126 61.9765L25.7086 66.6428L30.4046 61.9765L25.7086 57.3103L21.0126 61.9765ZM28.718 61.9765L25.7086 64.9668L22.6993 61.9765L25.7086 58.9862L28.718 61.9765Z" fill="#7572FF"/>
<path fill-rule="evenodd" clip-rule="evenodd" d="M14.975 55.977L19.6709 51.3108L24.3669 55.977L19.6709 60.6433L14.975 55.977ZM19.6709 58.9673L22.6803 55.977L19.6709 52.9867L16.6616 55.977L19.6709 58.9673Z" fill="#7572FF"/>
<path fill-rule="evenodd" clip-rule="evenodd" d="M27.0503 55.977L31.7463 60.6433L36.4423 55.977L31.7463 51.3108L27.0503 55.977ZM34.7556 55.977L31.7463 58.9673L28.737 55.977L31.7463 52.9867L34.7556 55.977Z" fill="#7572FF"/>
<path fill-rule="evenodd" clip-rule="evenodd" d="M44.8652 49.9776L49.5612 54.6438L54.2572 49.9776L49.5612 45.3113L44.8652 49.9776ZM52.5705 49.9776L49.5612 52.9679L46.5518 49.9776L49.5612 46.9873L52.5705 49.9776Z" fill="#7572FF"/>
<path fill-rule="evenodd" clip-rule="evenodd" d="M44.8652 61.9765L49.5612 66.6428L54.2572 61.9765L49.5612 57.3103L44.8652 61.9765ZM52.5705 61.9765L49.5612 64.9668L46.5518 61.9765L49.5612 58.9862L52.5705 61.9765Z" fill="#7572FF"/>
<path fill-rule="evenodd" clip-rule="evenodd" d="M38.8275 55.977L43.5235 51.3108L48.2195 55.977L43.5235 60.6433L38.8275 55.977ZM43.5235 58.9673L46.5328 55.977L43.5235 52.9867L40.5142 55.977L43.5235 58.9673Z" fill="#7572FF"/>
<path fill-rule="evenodd" clip-rule="evenodd" d="M50.9029 55.977L55.5989 60.6433L60.2949 55.977L55.5989 51.3108L50.9029 55.977ZM58.6082 55.977L55.5989 58.9673L52.5895 55.977L55.5989 52.9867L58.6082 55.977Z" fill="#7572FF"/>
<path fill-rule="evenodd" clip-rule="evenodd" d="M68.7178 49.9776L73.4138 54.6438L78.1097 49.9776L73.4138 45.3113L68.7178 49.9776ZM76.4231 49.9776L73.4138 52.9679L70.4044 49.9776L73.4138 46.9873L76.4231 49.9776Z" fill="#7572FF"/>
<path fill-rule="evenodd" clip-rule="evenodd" d="M68.7178 61.9765L73.4138 66.6428L78.1097 61.9765L73.4138 57.3103L68.7178 61.9765ZM76.4231 61.9765L73.4138 64.9668L70.4044 61.9765L73.4138 58.9862L76.4231 61.9765Z" fill="#7572FF"/>
<path fill-rule="evenodd" clip-rule="evenodd" d="M62.6801 55.977L67.3761 51.3108L72.0721 55.977L67.3761 60.6433L62.6801 55.977ZM67.3761 58.9673L70.3854 55.977L67.3761 52.9867L64.3667 55.977L67.3761 58.9673Z" fill="#7572FF"/>
<path fill-rule="evenodd" clip-rule="evenodd" d="M74.7555 55.977L79.4514 60.6433L84.1474 55.977L79.4514 51.3108L74.7555 55.977ZM82.4608 55.977L79.4514 58.9673L76.4421 55.977L79.4514 52.9867L82.4608 55.977Z" fill="#7572FF"/>
<path fill-rule="evenodd" clip-rule="evenodd" d="M92.5704 49.9776L97.2663 54.6438L101.962 49.9776L97.2663 45.3113L92.5704 49.9776ZM100.276 49.9776L97.2663 52.9679L94.257 49.9776L97.2663 46.9873L100.276 49.9776Z" fill="#7572FF"/>
<path fill-rule="evenodd" clip-rule="evenodd" d="M92.5704 61.9765L97.2663 66.6428L101.962 61.9765L97.2663 57.3103L92.5704 61.9765ZM100.276 61.9765L97.2663 64.9668L94.257 61.9765L97.2663 58.9862L100.276 61.9765Z" fill="#7572FF"/>
<path fill-rule="evenodd" clip-rule="evenodd" d="M86.5327 55.977L91.2287 51.3108L95.9246 55.977L91.2287 60.6433L86.5327 55.977ZM91.2287 58.9673L94.238 55.977L91.2287 52.9867L88.2193 55.977L91.2287 58.9673Z" fill="#7572FF"/>
<path fill-rule="evenodd" clip-rule="evenodd" d="M98.608 55.977L103.304 60.6433L108 55.977L103.304 51.3108L98.608 55.977ZM106.313 55.977L103.304 58.9673L100.295 55.977L103.304 52.9867L106.313 55.977Z" fill="#7572FF"/>
<path fill-rule="evenodd" clip-rule="evenodd" d="M-8.72854 67.8279L-4.03257 72.4941L0.663405 67.8279L-4.03257 63.1616L-8.72854 67.8279ZM-1.02323 67.8279L-4.03257 70.8182L-7.04191 67.8279L-4.03257 64.8376L-1.02323 67.8279Z" fill="#7572FF"/>
<path fill-rule="evenodd" clip-rule="evenodd" d="M9.08634 61.8284L13.7823 66.4947L18.4783 61.8284L13.7823 57.1621L9.08634 61.8284ZM16.7917 61.8284L13.7823 64.8187L10.773 61.8284L13.7823 58.8381L16.7917 61.8284Z" fill="#7572FF"/>
<path fill-rule="evenodd" clip-rule="evenodd" d="M9.08634 73.8273L13.7823 78.4936L18.4783 73.8273L13.7823 69.1611L9.08634 73.8273ZM16.7917 73.8273L13.7823 76.8176L10.773 73.8273L13.7823 70.8371L16.7917 73.8273Z" fill="#7572FF"/>
<path fill-rule="evenodd" clip-rule="evenodd" d="M3.04867 67.8279L7.74464 63.1616L12.4406 67.8279L7.74464 72.4941L3.04867 67.8279ZM7.74464 70.8182L10.754 67.8279L7.74464 64.8376L4.7353 67.8279L7.74464 70.8182Z" fill="#7572FF"/>
<path fill-rule="evenodd" clip-rule="evenodd" d="M15.124 67.8279L19.82 72.4941L24.516 67.8279L19.82 63.1616L15.124 67.8279ZM22.8293 67.8279L19.82 70.8182L16.8107 67.8279L19.82 64.8376L22.8293 67.8279Z" fill="#7572FF"/>
<path fill-rule="evenodd" clip-rule="evenodd" d="M32.9389 61.8284L37.6349 66.4947L42.3309 61.8284L37.6349 57.1621L32.9389 61.8284ZM40.6442 61.8284L37.6349 64.8187L34.6256 61.8284L37.6349 58.8381L40.6442 61.8284Z" fill="#7572FF"/>
<path fill-rule="evenodd" clip-rule="evenodd" d="M32.9389 73.8273L37.6349 78.4936L42.3309 73.8273L37.6349 69.1611L32.9389 73.8273ZM40.6442 73.8273L37.6349 76.8176L34.6256 73.8273L37.6349 70.8371L40.6442 73.8273Z" fill="#7572FF"/>
<path fill-rule="evenodd" clip-rule="evenodd" d="M26.9012 67.8279L31.5972 63.1616L36.2932 67.8279L31.5972 72.4941L26.9012 67.8279ZM31.5972 70.8182L34.6066 67.8279L31.5972 64.8376L28.5879 67.8279L31.5972 70.8182Z" fill="#7572FF"/>
<path fill-rule="evenodd" clip-rule="evenodd" d="M38.9766 67.8279L43.6726 72.4941L48.3686 67.8279L43.6726 63.1616L38.9766 67.8279ZM46.6819 67.8279L43.6726 70.8182L40.6632 67.8279L43.6726 64.8376L46.6819 67.8279Z" fill="#7572FF"/>
<path fill-rule="evenodd" clip-rule="evenodd" d="M56.7915 61.8284L61.4875 66.4947L66.1835 61.8284L61.4875 57.1621L56.7915 61.8284ZM64.4968 61.8284L61.4875 64.8187L58.4781 61.8284L61.4875 58.8381L64.4968 61.8284Z" fill="#7572FF"/>
<path fill-rule="evenodd" clip-rule="evenodd" d="M56.7915 73.8273L61.4875 78.4936L66.1835 73.8273L61.4875 69.1611L56.7915 73.8273ZM64.4968 73.8273L61.4875 76.8176L58.4781 73.8273L61.4875 70.8371L64.4968 73.8273Z" fill="#7572FF"/>
<path fill-rule="evenodd" clip-rule="evenodd" d="M50.7538 67.8279L55.4498 63.1616L60.1458 67.8279L55.4498 72.4941L50.7538 67.8279ZM55.4498 70.8182L58.4591 67.8279L55.4498 64.8376L52.4405 67.8279L55.4498 70.8182Z" fill="#7572FF"/>
<path fill-rule="evenodd" clip-rule="evenodd" d="M62.8292 67.8279L67.5252 72.4941L72.2211 67.8279L67.5252 63.1616L62.8292 67.8279ZM70.5345 67.8279L67.5252 70.8182L64.5158 67.8279L67.5252 64.8376L70.5345 67.8279Z" fill="#7572FF"/>
<path fill-rule="evenodd" clip-rule="evenodd" d="M80.6441 61.8284L85.34 66.4947L90.036 61.8284L85.34 57.1621L80.6441 61.8284ZM88.3494 61.8284L85.34 64.8187L82.3307 61.8284L85.34 58.8381L88.3494 61.8284Z" fill="#7572FF"/>
<path fill-rule="evenodd" clip-rule="evenodd" d="M80.6441 73.8273L85.34 78.4936L90.036 73.8273L85.34 69.1611L80.6441 73.8273ZM88.3494 73.8273L85.34 76.8176L82.3307 73.8273L85.34 70.8371L88.3494 73.8273Z" fill="#7572FF"/>
<path fill-rule="evenodd" clip-rule="evenodd" d="M74.6064 67.8279L79.3024 63.1616L83.9983 67.8279L79.3024 72.4941L74.6064 67.8279ZM79.3024 70.8182L82.3117 67.8279L79.3024 64.8376L76.293 67.8279L79.3024 70.8182Z" fill="#7572FF"/>
<path fill-rule="evenodd" clip-rule="evenodd" d="M86.6818 67.8279L91.3777 72.4941L96.0737 67.8279L91.3777 63.1616L86.6818 67.8279ZM94.3871 67.8279L91.3777 70.8182L88.3684 67.8279L91.3777 64.8376L94.3871 67.8279Z" fill="#7572FF"/>
<path fill-rule="evenodd" clip-rule="evenodd" d="M98.459 67.8279L103.155 63.1616L107.851 67.8279L103.155 72.4941L98.459 67.8279ZM103.155 70.8182L106.164 67.8279L103.155 64.8376L100.146 67.8279L103.155 70.8182Z" fill="#7572FF"/>
<path fill-rule="evenodd" clip-rule="evenodd" d="M-2.83994 73.6792L1.85603 78.3455L6.55201 73.6792L1.85603 69.0129L-2.83994 73.6792ZM4.86538 73.6792L1.85603 76.6695L-1.15331 73.6792L1.85603 70.6889L4.86538 73.6792Z" fill="#7572FF"/>
<path fill-rule="evenodd" clip-rule="evenodd" d="M-2.83994 85.6782L1.85603 90.3444L6.55201 85.6782L1.85603 81.0119L-2.83994 85.6782ZM4.86538 85.6782L1.85603 88.6685L-1.15331 85.6782L1.85603 82.6879L4.86538 85.6782Z" fill="#7572FF"/>
<path fill-rule="evenodd" clip-rule="evenodd" d="M-8.87762 79.6787L-4.18165 75.0124L0.514324 79.6787L-4.18165 84.345L-8.87762 79.6787ZM-4.18165 82.669L-1.17231 79.6787L-4.18165 76.6884L-7.19099 79.6787L-4.18165 82.669Z" fill="#7572FF"/>
<path fill-rule="evenodd" clip-rule="evenodd" d="M3.19774 79.6787L7.89372 84.345L12.5897 79.6787L7.89372 75.0124L3.19774 79.6787ZM10.9031 79.6787L7.89372 82.669L4.88438 79.6787L7.89372 76.6884L10.9031 79.6787Z" fill="#7572FF"/>
<path fill-rule="evenodd" clip-rule="evenodd" d="M21.0126 73.6792L25.7086 78.3455L30.4046 73.6792L25.7086 69.0129L21.0126 73.6792ZM28.718 73.6792L25.7086 76.6695L22.6993 73.6792L25.7086 70.6889L28.718 73.6792Z" fill="#7572FF"/>
<path fill-rule="evenodd" clip-rule="evenodd" d="M21.0126 85.6782L25.7086 90.3444L30.4046 85.6782L25.7086 81.0119L21.0126 85.6782ZM28.718 85.6782L25.7086 88.6685L22.6993 85.6782L25.7086 82.6879L28.718 85.6782Z" fill="#7572FF"/>
<path fill-rule="evenodd" clip-rule="evenodd" d="M14.975 79.6787L19.6709 75.0124L24.3669 79.6787L19.6709 84.345L14.975 79.6787ZM19.6709 82.669L22.6803 79.6787L19.6709 76.6884L16.6616 79.6787L19.6709 82.669Z" fill="#7572FF"/>
<path fill-rule="evenodd" clip-rule="evenodd" d="M27.0503 79.6787L31.7463 84.345L36.4423 79.6787L31.7463 75.0124L27.0503 79.6787ZM34.7556 79.6787L31.7463 82.669L28.737 79.6787L31.7463 76.6884L34.7556 79.6787Z" fill="#7572FF"/>
<path fill-rule="evenodd" clip-rule="evenodd" d="M44.8652 73.6792L49.5612 78.3455L54.2572 73.6792L49.5612 69.0129L44.8652 73.6792ZM52.5705 73.6792L49.5612 76.6695L46.5518 73.6792L49.5612 70.6889L52.5705 73.6792Z" fill="#7572FF"/>
<path fill-rule="evenodd" clip-rule="evenodd" d="M44.8652 85.6782L49.5612 90.3444L54.2572 85.6782L49.5612 81.0119L44.8652 85.6782ZM52.5705 85.6782L49.5612 88.6685L46.5518 85.6782L49.5612 82.6879L52.5705 85.6782Z" fill="#7572FF"/>
<path fill-rule="evenodd" clip-rule="evenodd" d="M38.8275 79.6787L43.5235 75.0124L48.2195 79.6787L43.5235 84.345L38.8275 79.6787ZM43.5235 82.669L46.5328 79.6787L43.5235 76.6884L40.5142 79.6787L43.5235 82.669Z" fill="#7572FF"/>
<path fill-rule="evenodd" clip-rule="evenodd" d="M50.9029 79.6787L55.5989 84.345L60.2949 79.6787L55.5989 75.0124L50.9029 79.6787ZM58.6082 79.6787L55.5989 82.669L52.5895 79.6787L55.5989 76.6884L58.6082 79.6787Z" fill="#7572FF"/>
<path fill-rule="evenodd" clip-rule="evenodd" d="M68.7178 73.6792L73.4138 78.3455L78.1097 73.6792L73.4138 69.0129L68.7178 73.6792ZM76.4231 73.6792L73.4138 76.6695L70.4044 73.6792L73.4138 70.6889L76.4231 73.6792Z" fill="#7572FF"/>
<path fill-rule="evenodd" clip-rule="evenodd" d="M68.7178 85.6782L73.4138 90.3444L78.1097 85.6782L73.4138 81.0119L68.7178 85.6782ZM76.4231 85.6782L73.4138 88.6685L70.4044 85.6782L73.4138 82.6879L76.4231 85.6782Z" fill="#7572FF"/>
<path fill-rule="evenodd" clip-rule="evenodd" d="M62.6801 79.6787L67.3761 75.0124L72.0721 79.6787L67.3761 84.345L62.6801 79.6787ZM67.3761 82.669L70.3854 79.6787L67.3761 76.6884L64.3667 79.6787L67.3761 82.669Z" fill="#7572FF"/>
<path fill-rule="evenodd" clip-rule="evenodd" d="M74.7555 79.6787L79.4514 84.345L84.1474 79.6787L79.4514 75.0124L74.7555 79.6787ZM82.4608 79.6787L79.4514 82.669L76.4421 79.6787L79.4514 76.6884L82.4608 79.6787Z" fill="#7572FF"/>
<path fill-rule="evenodd" clip-rule="evenodd" d="M92.5704 73.6792L97.2663 78.3455L101.962 73.6792L97.2663 69.0129L92.5704 73.6792ZM100.276 73.6792L97.2663 76.6695L94.257 73.6792L97.2663 70.6889L100.276 73.6792Z" fill="#7572FF"/>
<path fill-rule="evenodd" clip-rule="evenodd" d="M92.5704 85.6782L97.2663 90.3444L101.962 85.6782L97.2663 81.0119L92.5704 85.6782ZM100.276 85.6782L97.2663 88.6685L94.257 85.6782L97.2663 82.6879L100.276 85.6782Z" fill="#7572FF"/>
<path fill-rule="evenodd" clip-rule="evenodd" d="M86.5327 79.6787L91.2287 75.0124L95.9246 79.6787L91.2287 84.345L86.5327 79.6787ZM91.2287 82.669L94.238 79.6787L91.2287 76.6884L88.2193 79.6787L91.2287 82.669Z" fill="#7572FF"/>
<path fill-rule="evenodd" clip-rule="evenodd" d="M98.608 79.6787L103.304 84.345L108 79.6787L103.304 75.0124L98.608 79.6787ZM106.313 79.6787L103.304 82.669L100.295 79.6787L103.304 76.6884L106.313 79.6787Z" fill="#7572FF"/>
<path fill-rule="evenodd" clip-rule="evenodd" d="M-8.72854 91.5295L-4.03257 96.1958L0.663405 91.5295L-4.03257 86.8633L-8.72854 91.5295ZM-1.02323 91.5295L-4.03257 94.5198L-7.04191 91.5295L-4.03257 88.5392L-1.02323 91.5295Z" fill="#7572FF"/>
<path fill-rule="evenodd" clip-rule="evenodd" d="M9.08634 85.53L13.7823 90.1963L18.4783 85.53L13.7823 80.8638L9.08634 85.53ZM16.7917 85.53L13.7823 88.5203L10.773 85.53L13.7823 82.5397L16.7917 85.53Z" fill="#7572FF"/>
<path fill-rule="evenodd" clip-rule="evenodd" d="M9.08634 97.529L13.7823 102.195L18.4783 97.529L13.7823 92.8627L9.08634 97.529ZM16.7917 97.529L13.7823 100.519L10.773 97.529L13.7823 94.5387L16.7917 97.529Z" fill="#7572FF"/>
<path fill-rule="evenodd" clip-rule="evenodd" d="M3.04867 91.5295L7.74464 86.8633L12.4406 91.5295L7.74464 96.1958L3.04867 91.5295ZM7.74464 94.5198L10.754 91.5295L7.74464 88.5392L4.7353 91.5295L7.74464 94.5198Z" fill="#7572FF"/>
<path fill-rule="evenodd" clip-rule="evenodd" d="M15.124 91.5295L19.82 96.1958L24.516 91.5295L19.82 86.8633L15.124 91.5295ZM22.8293 91.5295L19.82 94.5198L16.8107 91.5295L19.82 88.5392L22.8293 91.5295Z" fill="#7572FF"/>
<path fill-rule="evenodd" clip-rule="evenodd" d="M32.9389 85.53L37.6349 90.1963L42.3309 85.53L37.6349 80.8638L32.9389 85.53ZM40.6442 85.53L37.6349 88.5203L34.6256 85.53L37.6349 82.5397L40.6442 85.53Z" fill="#7572FF"/>
<path fill-rule="evenodd" clip-rule="evenodd" d="M32.9389 97.529L37.6349 102.195L42.3309 97.529L37.6349 92.8627L32.9389 97.529ZM40.6442 97.529L37.6349 100.519L34.6256 97.529L37.6349 94.5387L40.6442 97.529Z" fill="#7572FF"/>
<path fill-rule="evenodd" clip-rule="evenodd" d="M26.9012 91.5295L31.5972 86.8633L36.2932 91.5295L31.5972 96.1958L26.9012 91.5295ZM31.5972 94.5198L34.6066 91.5295L31.5972 88.5392L28.5879 91.5295L31.5972 94.5198Z" fill="#7572FF"/>
<path fill-rule="evenodd" clip-rule="evenodd" d="M38.9766 91.5295L43.6726 96.1958L48.3686 91.5295L43.6726 86.8633L38.9766 91.5295ZM46.6819 91.5295L43.6726 94.5198L40.6632 91.5295L43.6726 88.5392L46.6819 91.5295Z" fill="#7572FF"/>
<path fill-rule="evenodd" clip-rule="evenodd" d="M56.7915 85.53L61.4875 90.1963L66.1835 85.53L61.4875 80.8638L56.7915 85.53ZM64.4968 85.53L61.4875 88.5203L58.4781 85.53L61.4875 82.5397L64.4968 85.53Z" fill="#7572FF"/>
<path fill-rule="evenodd" clip-rule="evenodd" d="M56.7915 97.529L61.4875 102.195L66.1835 97.529L61.4875 92.8627L56.7915 97.529ZM64.4968 97.529L61.4875 100.519L58.4781 97.529L61.4875 94.5387L64.4968 97.529Z" fill="#7572FF"/>
<path fill-rule="evenodd" clip-rule="evenodd" d="M50.7538 91.5295L55.4498 86.8633L60.1458 91.5295L55.4498 96.1958L50.7538 91.5295ZM55.4498 94.5198L58.4591 91.5295L55.4498 88.5392L52.4405 91.5295L55.4498 94.5198Z" fill="#7572FF"/>
<path fill-rule="evenodd" clip-rule="evenodd" d="M62.8292 91.5295L67.5252 96.1958L72.2211 91.5295L67.5252 86.8633L62.8292 91.5295ZM70.5345 91.5295L67.5252 94.5198L64.5158 91.5295L67.5252 88.5392L70.5345 91.5295Z" fill="#7572FF"/>
<path fill-rule="evenodd" clip-rule="evenodd" d="M80.6441 85.53L85.34 90.1963L90.036 85.53L85.34 80.8638L80.6441 85.53ZM88.3494 85.53L85.34 88.5203L82.3307 85.53L85.34 82.5397L88.3494 85.53Z" fill="#7572FF"/>
<path fill-rule="evenodd" clip-rule="evenodd" d="M80.6441 97.529L85.34 102.195L90.036 97.529L85.34 92.8627L80.6441 97.529ZM88.3494 97.529L85.34 100.519L82.3307 97.529L85.34 94.5387L88.3494 97.529Z" fill="#7572FF"/>
<path fill-rule="evenodd" clip-rule="evenodd" d="M74.6064 91.5295L79.3024 86.8633L83.9983 91.5295L79.3024 96.1958L74.6064 91.5295ZM79.3024 94.5198L82.3117 91.5295L79.3024 88.5392L76.293 91.5295L79.3024 94.5198Z" fill="#7572FF"/>
<path fill-rule="evenodd" clip-rule="evenodd" d="M86.6818 91.5295L91.3777 96.1958L96.0737 91.5295L91.3777 86.8633L86.6818 91.5295ZM94.3871 91.5295L91.3777 94.5198L88.3684 91.5295L91.3777 88.5392L94.3871 91.5295Z" fill="#7572FF"/>
<path fill-rule="evenodd" clip-rule="evenodd" d="M98.459 91.5295L103.155 86.8633L107.851 91.5295L103.155 96.1958L98.459 91.5295ZM103.155 94.5198L106.164 91.5295L103.155 88.5392L100.146 91.5295L103.155 94.5198Z" fill="#7572FF"/>
<path fill-rule="evenodd" clip-rule="evenodd" d="M-2.83994 97.3809L1.85603 102.047L6.55201 97.3809L1.85603 92.7146L-2.83994 97.3809ZM4.86538 97.3809L1.85603 100.371L-1.15331 97.3809L1.85603 94.3906L4.86538 97.3809Z" fill="#7572FF"/>
<path fill-rule="evenodd" clip-rule="evenodd" d="M21.0126 97.3809L25.7086 102.047L30.4046 97.3809L25.7086 92.7146L21.0126 97.3809ZM28.718 97.3809L25.7086 100.371L22.6993 97.3809L25.7086 94.3906L28.718 97.3809Z" fill="#7572FF"/>
<path fill-rule="evenodd" clip-rule="evenodd" d="M44.8652 97.3809L49.5612 102.047L54.2572 97.3809L49.5612 92.7146L44.8652 97.3809ZM52.5705 97.3809L49.5612 100.371L46.5518 97.3809L49.5612 94.3906L52.5705 97.3809Z" fill="#7572FF"/>
<path fill-rule="evenodd" clip-rule="evenodd" d="M68.7178 97.3809L73.4138 102.047L78.1097 97.3809L73.4138 92.7146L68.7178 97.3809ZM76.4231 97.3809L73.4138 100.371L70.4044 97.3809L73.4138 94.3906L76.4231 97.3809Z" fill="#7572FF"/>
<path fill-rule="evenodd" clip-rule="evenodd" d="M92.5704 97.3809L97.2663 102.047L101.962 97.3809L97.2663 92.7146L92.5704 97.3809ZM100.276 97.3809L97.2663 100.371L94.257 97.3809L97.2663 94.3906L100.276 97.3809Z" fill="#7572FF"/>
<path fill-rule="evenodd" clip-rule="evenodd" d="M68.1359 49.0372V25.572L57.6957 32.8989L46.7115 25.4618L38.719 35.9246L26.4632 32.1551L32.3403 49.418C29.8528 50.7858 28.0988 53.3721 28.0988 56.4634C28.0988 60.3949 30.9136 63.5499 34.5409 64.3572C37.2865 70.2424 43.5499 74.1807 50.6088 74.1807C57.6675 74.1807 63.9308 70.2426 66.6765 64.3575C70.3028 63.5506 73.1187 60.3942 73.1187 56.4634V56.4373L73.1151 56.2206L73.1142 56.1945C73.0045 52.928 70.9532 50.2345 68.1359 49.0372Z" fill="white"/>
<path d="M43.498 62.3461C43.9816 61.8927 44.7547 61.9031 45.2249 62.3695C47.032 64.162 49.773 64.96 52.4352 64.2276C55.0974 63.4951 56.9893 61.4225 57.544 58.9802C57.6883 58.3447 58.3394 57.9424 58.9982 58.0816C59.657 58.2208 60.0741 58.8488 59.9298 59.4842C59.1905 62.7395 56.6658 65.5132 53.1052 66.4929C49.5445 67.4725 45.8826 66.4009 43.4738 64.0117C43.0037 63.5453 43.0145 62.7996 43.498 62.3461Z" fill="#7572FF"/>
<path fill-rule="evenodd" clip-rule="evenodd" d="M65.0693 32.1249L57.7722 37.2459L47.4452 30.2538L39.9208 40.1038L31.4172 37.4884L36.2413 51.6583V52.0528C33.4939 52.165 31.2551 54.3511 31.2551 57.0314C31.2551 59.7835 33.5658 62.0146 36.4162 62.0146L36.7893 62.0143C38.5122 67.5772 44.0764 71.6372 50.6536 71.6372C57.2309 71.6372 62.795 67.5772 64.5179 62.0143L65.0614 62.0119C67.8329 61.9251 70.0521 59.7285 70.0521 57.0314L70.0493 56.867C69.9614 54.2481 67.7806 52.14 65.0693 52.0512V32.1249ZM38.7522 51.8733L38.7298 58.3657C38.7298 64.2819 43.9296 69.1166 50.4212 69.2295L50.6536 69.2316C57.1755 69.2316 62.452 64.4664 62.5752 58.5765L62.5769 48.0238L38.7522 51.8733ZM67.5605 57.0314C67.5605 58.3972 66.4604 59.5149 65.069 59.6033V54.4596L65.3432 54.4908C66.6022 54.6981 67.5605 55.7567 67.5605 57.0314ZM36.1001 54.4718L36.2382 54.4596V59.6033C34.8469 59.5149 33.7467 58.3972 33.7467 57.0314C33.7467 55.7112 34.7748 54.6228 36.1001 54.4718Z" fill="#7572FF"/>
</svg>
