<svg viewBox="0 0 24 24" fill="none" xmlns="http://www.w3.org/2000/svg">
<path d="M12.5 13.2578V15.5M12.5 15.5C11.6716 15.5 11 16.1716 11 17M12.5 15.5C13.3284 15.5 14 16.1716 14 17M12.5 15.5V18.5M14 17C14 17.8284 13.3284 18.5 12.5 18.5M14 17C13.6 17 11.8333 17 11 17M12.5 18.5C11.6716 18.5 11 17.8284 11 17M10 5C10 3.61929 11.1193 2.5 12.5 2.5C13.8807 2.5 15 3.61929 15 5V13.2578C16.206 14.065 17 15.4398 17 17C17 19.4853 14.9853 21.5 12.5 21.5C10.0147 21.5 8 19.4853 8 17C8 15.4398 8.79401 14.065 10 13.2578V5Z" stroke="currentColor" stroke-linecap="round" stroke-linejoin="round"/>
</svg>
