<svg width="49" height="48" viewBox="0 0 49 48" fill="none" xmlns="http://www.w3.org/2000/svg">
<path d="M19.6791 47.0365C19.1848 47.0365 18.784 46.6357 18.784 46.1414C18.784 44.4823 21.7232 38.2856 22.3108 33.4355C22.374 32.9139 21.6195 32.7202 21.3421 33.1665C19.8287 35.6011 17.7648 39.0082 12.7363 38.8893L12.6386 38.8923C12.5735 38.8946 12.5083 38.8968 12.4425 38.8968C6.98182 38.8968 2.5553 34.0304 2.5553 28.0275C2.5553 22.0245 6.98182 17.1581 12.4425 17.1581C13.5086 17.1581 14.535 17.3444 15.497 17.6879C15.7214 17.7681 15.9501 17.5062 15.8385 17.2957C14.9864 15.69 14.4974 13.8231 14.4974 11.8299C14.4974 5.91248 18.7528 0.963486 24.152 0.963486C29.5512 0.963486 33.8067 5.91248 33.8067 11.8299C33.8067 13.8231 33.3176 15.69 32.4655 17.2957C32.3539 17.5062 32.5827 17.7681 32.8071 17.6879C33.769 17.3444 34.7954 17.1581 35.8615 17.1581C41.3222 17.1581 45.7487 22.0245 45.7487 28.0275C45.7487 34.0304 41.3222 38.8968 35.8615 38.8968C35.7958 38.8968 35.7306 38.8946 35.6654 38.8923L35.5677 38.8893C30.5392 39.0082 28.4754 35.6011 26.962 33.1665C26.6846 32.7202 25.93 32.9139 25.9933 33.4355C26.5809 38.2855 29.52 44.4823 29.52 46.1414C29.52 46.6357 29.1193 47.0365 28.625 47.0365H19.6791Z" fill="white"/>
</svg>
