<svg viewBox="0 0 24 24" fill="none" xmlns="http://www.w3.org/2000/svg">
<path d="M7.01725 20.2206V12.2404M7.01725 12.2404C5.22902 12.2404 3.77937 10.8198 3.77937 9.06751C3.77937 7.31518 5.22902 5.89462 7.01725 5.89462M7.01725 12.2404C8.80549 12.2404 10.2551 10.8198 10.2551 9.06751C10.2551 7.31518 8.80548 5.89462 7.01725 5.89462M7.01725 3.77937V5.89462M16.9827 3.77937V9.70228M16.9827 9.70228C15.1945 9.70228 13.7449 11.1228 13.7449 12.8751C13.7449 14.6275 15.1945 16.048 16.9827 16.048M16.9827 9.70228C18.771 9.70228 20.2206 11.1228 20.2206 12.8751C20.2206 14.6275 18.771 16.048 16.9827 16.048M16.9827 20.2206V16.048" stroke="currentColor" stroke-linecap="round" stroke-linejoin="round"/>
</svg>
