<svg width="462" height="446" viewBox="0 0 462 446" fill="none" xmlns="http://www.w3.org/2000/svg">
<path d="M114.489 130.724C118.693 131.721 120.006 125.566 115.942 124.695C111.713 123.791 110.907 129.871 114.489 130.724ZM115.632 126.147C117.55 126.689 116.829 129.755 114.898 129.284C112.87 128.789 113.694 125.759 115.632 126.147Z" fill="#3E2EFF"/>
<path fill-rule="evenodd" clip-rule="evenodd" d="M64.0899 115.324C65.6553 117.36 96.3082 124.213 99.8383 124.444C100.856 124.499 100.778 122.628 99.8383 122.437C98.8496 122.2 96.7072 121.643 93.937 120.923L93.9369 120.923L93.9369 120.923C83.8271 118.296 65.3572 113.497 64.0974 114.159C63.6083 114.347 63.7187 114.933 64.0899 115.324ZM90.85 125.116C86.6469 124.373 82.435 123.14 78.3123 121.934C73.0811 120.402 67.9936 118.913 63.2501 118.521C62.7097 118.47 62.3828 119.995 62.8797 120.115C66.5989 120.966 70.2195 122.055 73.8277 123.141L73.8277 123.141C79.3392 124.799 84.8218 126.449 90.5828 127.226C91.7173 127.377 91.9327 125.303 90.85 125.116ZM83.2231 127.891C89.746 129.732 96.075 131.519 100.228 132.253C101.31 132.44 100.876 134.44 99.7411 134.289C93.8432 133.494 83.8604 130.624 74.8788 128.042C69.3438 126.45 64.189 124.968 60.6048 124.148C60.1079 124.028 60.6542 122.576 61.1946 122.627C65.9829 123.024 74.766 125.503 83.2231 127.891Z" fill="#FF6565"/>
<path d="M89.3298 90.559C97.9254 98.1054 116.941 115.159 118.516 117.722C118.693 118.265 119.801 117.909 119.684 117.391C117.092 106.089 112.401 90.2127 108.294 75.4609C107.592 72.9377 107.53 69.3778 101.871 70.0589C98.0981 70.5157 94.3506 71.1645 90.6433 72.0026C85.8076 73.2145 85.2601 75.9627 86.1678 80.204C86.7291 82.6955 88.1376 88.3553 89.3298 90.559Z" fill="#FF6565"/>
<path d="M66.0777 103.316C68.1687 105.487 71.1344 107.627 73.6481 109.29C74.357 109.775 75.544 108.492 74.8326 107.98C72.4858 106.328 70.5184 104.44 68.5177 102.383C65.0211 98.919 62.2205 98.4158 66.7201 93.6638C68.6066 91.6549 70.2517 89.6108 72.1775 87.6718C76.0412 83.7815 78.0757 86.2872 81.9728 89.5735C94.8539 100.732 105.447 109.889 116.956 120.574C117.626 121.2 119.102 119.836 118.439 119.187C107.4 108.405 95.8876 97.9621 83.9821 88.2458C79.8528 84.8892 76.089 80.587 71.0652 85.483C59.9732 96.2868 59.7289 96.7175 66.0777 103.316Z" fill="#3E2EFF"/>
<path d="M58.7126 129.111C75.6332 133.752 92.6713 138.458 109.761 142.437C115.968 143.888 117.925 144.291 119.911 137.777C120.945 134.418 121.808 131.009 122.496 127.562C123.189 123.879 120.796 122.518 117.833 121.768C99.9466 117.22 82.2606 112.087 64.2811 107.917C59.7856 106.877 57.2101 106.903 55.7216 112.16C52.42 124.375 50.7948 126.934 58.7126 129.111ZM57.7581 112.16C58.9069 108.491 59.7194 108.83 64.2811 109.996C79.9876 114.007 100.7 119.578 116.989 123.426C119.033 123.911 120.86 124.236 120.369 126.831C119.691 130.422 118.811 133.608 117.833 137.14C116.291 142.684 114.344 141.109 109.761 139.956C92.925 135.716 75.8582 131.831 59.3651 126.881C54.7616 125.495 54.4704 125.882 55.7216 120.786C56.0137 119.601 56.8297 115.124 57.7581 112.16Z" fill="#3E2EFF"/>
<path d="M123.088 122.491C123.072 122.616 123.102 122.741 123.172 122.845C123.242 122.949 123.347 123.025 123.468 123.057C123.589 123.09 123.718 123.078 123.831 123.023C123.944 122.969 124.033 122.875 124.082 122.76C127.711 109.889 131.338 94.7178 134.207 81.9439C135.204 77.5037 136.344 74.6556 130.901 72.957C128.139 72.0935 125.36 71.2891 122.562 70.5438C118.862 69.5436 115.53 68.887 114.198 73.228C114.003 73.9474 112.054 81.6488 111.885 82.8627C113.443 89.049 116.941 99.3878 123.088 122.491Z" fill="#3E2EFF"/>
<path d="M94.5458 107.95C95.4869 106.974 95.4683 105.407 94.4841 104.474C93.2245 103.281 91.5746 101.722 90.2972 100.529C89.3497 99.6444 87.8596 99.6835 86.926 100.583C85.4366 102.018 83.2993 104.055 81.7591 105.559C80.8048 106.492 80.7923 108.074 81.7266 109.026C82.1775 109.486 82.6936 109.987 83.2568 110.475C83.4727 110.662 83.7244 110.803 83.9942 110.897L88.3363 112.414C89.2161 112.721 90.194 112.492 90.8396 111.82C92.0282 110.583 93.3927 109.146 94.5458 107.95Z" fill="#3E2EFF"/>
<path d="M69.3967 95.7732C68.5212 96.6967 68.5513 98.1245 69.4841 98.9902C70.7837 100.196 72.5156 101.756 73.8831 102.923C74.7375 103.652 75.9556 103.604 76.7671 102.827C78.3847 101.279 81.0209 98.7218 82.8537 96.9344C83.8129 95.999 83.7685 94.5077 82.7325 93.6582C81.3671 92.5388 79.5404 91.0606 78.1465 89.9016C77.1731 89.0921 75.7442 89.1364 74.8657 90.0479C73.3043 91.6683 70.9631 94.1209 69.3967 95.7732Z" fill="#FF6565"/>
<path d="M102.319 115.84C103.547 116.116 104.508 114.31 103.608 113.431C102.375 112.225 101.067 110.965 100.102 110.111C99.6454 109.707 98.9632 109.752 98.5402 110.191C97.8923 110.864 97.0173 111.778 96.2161 112.626C95.5916 113.286 95.9134 114.361 96.7979 114.57C98.3359 114.934 100.362 115.402 102.319 115.84Z" fill="#FF6565"/>
<path d="M361.35 116.272C365.305 111.171 368.582 105.197 372.013 99.7412C372.677 98.639 370.117 97.0276 369.373 98.0771C367.09 101.673 366.014 103.818 366.014 103.818C363.577 99.5227 360.608 98.1303 356.567 99.0258C356.567 99.0258 361.219 94.7294 362.236 92.4338C362.578 91.5702 361.331 90.2459 360.573 90.7831C359.181 91.8749 349.592 104.022 348.252 105.738C342.861 112.735 345.592 113.437 344.837 117.089C344.04 121.002 338.954 120.278 345.661 124.284C348.99 126.282 348.106 123.964 351.069 122.136C355.666 119.292 355.54 123.76 361.35 116.272Z" fill="#FF6565"/>
<path d="M360.215 87.9276C365.542 91.5831 370.764 94.4722 375.864 98.7183C377.833 100.358 382.313 98.2884 377.191 94.1511C379.976 90.8263 382.589 87.3615 385.021 83.7703C396.25 66.5002 380.477 60.2657 371.254 72.5405C368.335 76.4105 365.629 80.4394 362.83 84.3957C357.72 81.2928 355.603 84.7611 360.215 87.9276Z" fill="#3E2EFF"/>
<path d="M361.35 116.272C365.305 111.171 368.582 105.197 372.013 99.7412C372.677 98.639 370.117 97.0276 369.373 98.0771C367.09 101.673 359.122 115.585 356.093 118.049C354.441 119.41 349.979 118.321 348.004 122.217L345.146 120.353C348.696 117.351 346.511 114.012 347.68 111.385C348.85 108.758 361.219 94.7294 362.236 92.4338C362.578 91.5702 361.331 90.2459 360.573 90.7831C359.181 91.8749 349.592 104.022 348.252 105.738C342.861 112.735 345.592 113.437 344.837 117.089C344.04 121.002 338.954 120.278 345.661 124.284C348.99 126.282 348.106 123.964 351.069 122.136C355.666 119.292 355.54 123.76 361.35 116.272Z" fill="#3E2EFF"/>
<path d="M338.015 136.968C337.697 140.972 340.511 144.644 344.365 144.84C347.271 144.885 351.944 142.743 350.945 136.922C350.049 131.704 346.716 129.481 344.836 125.697C344.617 125.257 343.892 125.261 343.674 125.701C341.882 129.312 338.466 131.688 338.015 136.968Z" fill="#FF6565"/>
<path fill-rule="evenodd" clip-rule="evenodd" d="M60.5158 212.534C76.8637 200.44 72.1026 171.547 56.8643 162.143C42.6922 153.393 21.4947 160.02 14.02 176.262C1.58558 203.281 34.0962 232.078 60.5158 212.534ZM53.1804 167.689C67.9733 176.872 68.6658 201.85 53.1805 210.181L53.1739 210.182C32.5907 221.55 10.4822 197.864 19.1562 178.911C24.2922 167.689 41.3158 160.323 53.1804 167.689Z" fill="#3E2EFF"/>
<path d="M19.3196 210.768C23.4932 215.022 25.0239 215.265 19.8537 221.003C15.4664 226.077 12.7279 228.641 7.63419 233.005C6.37552 233.948 -0.93687 228.528 0.592424 226.554C5.569 220.138 9.0424 216.316 15.0011 210.8C16.8398 209.11 17.3534 208.763 19.3196 210.768Z" fill="#FF6565"/>
<path d="M55.8845 177.909C55.5001 180.4 58.533 186.995 59.2498 189.829C59.4168 190.358 60.6767 190.005 60.8914 189.589C61.8256 186.762 60.5045 178.062 56.7234 177.389C56.3329 177.363 55.9114 177.553 55.8845 177.909Z" fill="#3E2EFF"/>
<path d="M59.7681 195.788C57.0363 203.014 50.8631 207.282 45.3061 209.2C42.8541 210.007 42.437 207.626 46.1178 206.134C52.6301 202.28 54.1389 198.881 57.8731 194.742C58.764 193.755 60.235 194.553 59.7681 195.788Z" fill="#3E2EFF"/>
<path d="M407.798 236.115C419.72 230.978 443.847 221.36 456.836 215.764C457.619 215.426 458.498 217.446 457.707 217.786C442.962 224.067 423.275 232.264 408.069 238.641C406.455 239.336 406.399 238.882 405.971 237.783C396.653 213.636 391.895 202.679 382.58 177.591C382.372 177.109 382.469 176.642 383.442 176.208C397.881 169.689 416.348 161.185 432.811 153.695C435.711 152.364 436.479 151.99 436.881 152.924C446.155 174.06 453.42 191.75 461.599 213.813C461.884 214.475 458.666 215.709 458.438 215.073C450.513 192.262 444.032 178.687 434.83 155.885C433.273 156.864 389.832 175.843 385.711 177.722C395.042 201.168 399.503 215.593 407.798 236.115Z" fill="#3E2EFF"/>
<path d="M393.127 179.482C394.678 178.168 430.22 162.589 431.126 163.109C432.22 163.752 441.107 183.836 440.591 185.075C440.074 186.313 401.896 201.47 400.8 201.106C399.704 200.741 391.585 180.796 393.12 179.467L393.127 179.482ZM405.701 194.991C409.028 191.257 412.121 187.389 415.327 183.586C421.098 184.219 426.979 184.516 432.93 184.476C433.769 184.482 433.962 183.356 433.126 183.357C427.449 183.338 421.84 183.018 416.329 182.399C420.221 177.787 424.28 173.044 427.905 168.312C428.282 167.827 427.44 167.423 427.022 167.877C422.816 172.471 418.746 177.469 414.746 182.215C411.931 181.762 403.463 179.981 401.044 180.033C400.906 180.046 400.769 180.095 400.652 180.174C400.534 180.252 400.443 180.356 400.39 180.471C400.337 180.586 400.326 180.706 400.357 180.815C400.389 180.923 400.461 181.015 400.565 181.076C401.864 181.785 412.097 183.203 413.762 183.402C410.707 187.075 407.516 190.701 404.577 194.419C404.059 195.068 405.174 195.581 405.699 194.992L405.701 194.991Z" fill="#FF6565"/>
<path d="M442.872 189.527C442.057 188.217 423.781 196.953 424.128 197.456C424.476 197.959 424.406 198.921 425.625 198.774C426.844 198.627 442.077 192.249 442.766 191.673C443.455 191.097 443.598 190.694 442.872 189.527Z" fill="#3E2EFF"/>
<path d="M444.671 193.703C443.856 192.393 425.581 201.129 425.928 201.632C426.275 202.135 426.206 203.097 427.425 202.95C428.644 202.803 443.876 196.425 444.565 195.849C445.255 195.273 445.397 194.87 444.671 193.703Z" fill="#3E2EFF"/>
<path d="M446.487 197.872C445.732 196.537 432.697 203.014 433.013 203.53C433.329 204.047 433.375 204.959 434.289 204.943C435.203 204.928 446.16 200.392 446.626 199.912C447.093 199.432 447.16 199.062 446.487 197.872Z" fill="#3E2EFF"/>
<path d="M419.311 199.512C418.569 199.052 404.169 206.036 403.574 206.293C402.979 206.549 407.07 215.419 407.591 215.614C408.111 215.809 422.54 210.279 422.908 209.497C423.276 208.714 420.496 200.244 419.311 199.512Z" fill="#3E2EFF"/>
<path d="M447.907 205.047C446.787 204.23 410.396 219.685 409.951 220.295C409.507 220.904 412.25 226.642 412.83 226.976C413.411 227.311 450.867 212.736 450.938 212.082C451.01 211.427 448.804 205.702 447.907 205.047Z" fill="#FF6565"/>
<path d="M230.238 18.3842C229.815 13.8955 229.803 5.1396 228.851 1.42497C228.549 0.265179 226.506 -0.0302394 226.15 1.27179C225.527 7.18637 225.688 13.1471 226.63 19.027C226.917 21.0621 230.453 20.6901 230.238 18.3842Z" fill="#FF6565"/>
<path d="M176.994 54.6098C179.526 54.7966 190.126 52.7481 193.991 52.3745C195.958 52.1877 195.704 48.8197 193.649 48.9674C190.591 49.1812 179.218 50.329 176.395 52.019C176.161 52.1828 175.98 52.4128 175.878 52.6794C175.775 52.946 175.754 53.2371 175.818 53.5155C175.883 53.7938 176.029 54.0467 176.238 54.2416C176.448 54.4366 176.711 54.5648 176.994 54.6098Z" fill="#FF6565"/>
<path d="M193.517 20.3392C197.445 23.7404 199.476 25.2918 202.066 27.6536C203.915 29.3376 206.626 27.5572 205.042 25.6262C201.792 22.1737 198.194 19.0654 194.303 16.3507C191.145 13.54 189.353 16.7483 193.517 20.3392Z" fill="#FF6565"/>
<path d="M264.527 7.01107C261.381 9.24636 256.368 17.6724 254.525 20.8897C254.386 21.0985 254.291 21.3336 254.246 21.5804C254.202 21.8273 254.209 22.0807 254.267 22.3248C254.325 22.5688 254.432 22.7984 254.583 22.9992C254.734 23.2001 254.924 23.3678 255.143 23.4921C255.361 23.6163 255.603 23.6945 255.853 23.7216C256.103 23.7487 256.357 23.7242 256.597 23.6496C256.837 23.5751 257.059 23.4521 257.25 23.2882C257.44 23.1244 257.595 22.9232 257.704 22.6972C260.535 17.9254 263.657 13.3133 266.561 8.5836C267.111 7.68286 265.47 6.33024 264.527 7.01107Z" fill="#FF6565"/>
<path d="M283.748 38.2229C277.798 38.9127 271.779 39.702 265.92 40.7654C264.212 41.0667 264.91 43.7147 266.466 43.5942C272.452 43.1343 278.426 42.4635 284.388 41.5818C286.413 41.2836 285.646 38.006 283.748 38.2229Z" fill="#FF6565"/>
<path d="M279.478 74.5724C274.36 71.6342 268.966 69.2026 263.372 67.3123C261.934 66.9206 261.03 69.1198 262.224 69.9362C267.041 73.1807 272.818 74.8285 277.837 77.7687C281.013 79.6455 283.394 77.2325 279.478 74.5724Z" fill="#FF6565"/>
<path d="M204.184 70.7183C201.96 71.137 194.415 80.0933 193.306 82.1659C191.073 86.3834 194.233 86.8232 194.931 85.5761C198.098 79.9095 203.716 76.0414 205.363 73.6404C206.136 72.5228 205.961 70.3839 204.184 70.7183Z" fill="#FF6565"/>
<path d="M206.272 49.7779C207.008 59.7986 214.268 68.3657 222.117 74.112C227.918 78.3597 238.598 78.6866 243.988 72.8216C250.008 66.2634 256.071 58.3011 256.858 48.9641C259.526 17.8004 204.031 19.4904 206.272 49.7779Z" fill="#FF6565"/>
<path d="M240.241 51.9854C248.747 44.5309 238.71 37.3384 235.103 45.9477C234.217 48.068 233.521 50.262 233.021 52.5041C231.054 52.8524 229.051 52.9534 227.059 52.8047C226.291 49.9527 225.239 45.2897 222.279 44.0066C216.224 41.3819 213.051 52.8652 225.265 54.8558C226.641 60.6292 227.714 66.4701 228.48 72.3549C228.504 72.5375 228.594 72.7052 228.733 72.8267C228.872 72.9482 229.05 73.0152 229.235 73.0152C229.42 73.0152 229.598 72.9482 229.737 72.8267C229.876 72.7052 229.966 72.5375 229.99 72.3549C229.89 66.5399 229.104 60.7568 227.647 55.1252C229.292 55.1911 230.938 55.1144 232.569 54.8961C231.785 60.6088 232.103 66.4182 233.505 72.0121C233.816 73.4326 235.39 73.0477 235.128 71.6785C234.04 65.9888 234.015 60.1476 235.055 54.4489C236.973 54.1018 238.763 53.2515 240.241 51.9854V51.9854ZM240.304 44.5785C243.205 46.4811 238.671 51.1771 235.601 51.9103C237.298 45.1174 239.232 43.8747 240.304 44.5785V44.5785ZM219.495 49.1224C218.298 46.7982 220.369 44.7343 222.273 46.6956C223.46 48.4111 224.256 50.3649 224.605 52.4198C223.57 52.2434 222.583 51.8602 221.701 51.2932C220.82 50.7262 220.062 49.9871 219.475 49.1205L219.495 49.1224Z" fill="white"/>
<path d="M222.68 74.2578C222.16 88.2193 225.166 96.7883 232.803 96.803C242.531 96.8177 243.582 85.1767 242.926 73.5485C236.213 74.3976 229.436 74.635 222.68 74.2578V74.2578ZM238.234 86.9748C235.595 88.737 232.567 89.8368 229.409 90.1806C228.243 90.2007 228.019 88.9122 229.128 88.6354C231.986 87.954 234.697 86.7623 237.129 85.118C237.373 85.014 237.646 85.0018 237.898 85.0837C238.15 85.1656 238.363 85.3361 238.498 85.5633C238.634 85.7905 238.681 86.0589 238.633 86.3186C238.584 86.5783 238.442 86.8115 238.234 86.9748V86.9748ZM238.547 80.0573C236.272 81.8645 228.569 83.791 227.455 83.7231C226.633 83.7231 226.131 82.8378 226.945 82.3026C228.389 81.3532 233.013 80.5558 237.35 78.2701C238.815 77.5003 239.948 78.9428 238.554 80.0573H238.547Z" fill="#3E2EFF"/>
<path d="M58.52 256.999C54.2521 256.317 49.7251 255.679 45.5859 256.891C41.4466 258.103 37.6235 260.223 34.3833 263.103C41.226 271.53 45.11 279.435 52.9715 289.835C56.9271 273.004 58.0361 266.666 58.52 256.999Z" fill="#FF6565"/>
<path d="M63.3471 261.839C60.7483 274.302 61.9514 277.323 57.3624 295.733C68.4409 295.545 76.5366 295.917 91.9023 295.552C91.9931 287.374 88.9488 276.877 83.6853 270.663C78.4218 264.449 71.3052 262.949 63.3471 261.839Z" fill="#3E2EFF"/>
<path fill-rule="evenodd" clip-rule="evenodd" d="M34.9746 271.78L36.0832 273.213C42.3456 281.314 47.8971 289.937 52.6763 298.989C55.634 299.073 58.4205 299.179 61.1993 299.285C68.2061 299.552 75.1642 299.817 84.6973 299.726L86.2097 299.711L86.5496 301.185C86.8492 302.484 86.784 303.84 86.3632 305.102C84.2665 318.276 74.1667 329.17 61.1971 332.277C43.4618 336.526 25.0788 325.202 20.9447 307.429C17.9671 294.629 22.7153 280.536 33.4998 272.833L34.9746 271.78Z" fill="#FF6565"/>
<path fill-rule="evenodd" clip-rule="evenodd" d="M424.524 274.38C431.04 273.82 437.693 273.248 437.875 273.787C444.375 292.954 443.985 328.172 442.955 329.446C441.926 330.719 385.596 334.562 384.099 333.431C383.513 330.035 383.538 323.342 383.567 315.606C383.614 302.857 383.671 287.274 381.024 278.936C381.69 278.413 389.083 278.019 394.403 277.735C397.043 277.594 399.172 277.48 399.716 277.392C400.063 279.671 404.41 281.606 407.749 281.137L407.753 281.164C408.345 284.87 408.57 286.284 411.11 285.853C413.045 285.525 412.641 283.786 411.932 280.736C411.901 280.606 411.871 280.473 411.839 280.338C413.246 280.06 415.034 279.328 416.116 278.386C417.198 277.445 418.014 276.236 418.483 274.881C420.335 274.74 422.422 274.561 424.524 274.38ZM391.844 296.002C401.6 295.775 423.723 294.609 432.854 292.931C434.044 292.721 433.734 289.963 432.57 290.044C426.121 290.538 416.767 291.387 407.869 292.195L407.869 292.195C402 292.727 396.328 293.242 391.82 293.625C390.745 293.717 390.746 296.064 391.844 296.002ZM392.803 304.01C391.699 303.969 391.798 301.628 392.889 301.629C405.056 301.57 431.898 299.1 431.898 299.1C433.344 299.126 433.178 302.239 431.798 302.194C423.116 303.159 404.96 304.474 392.803 304.01ZM402.039 312.267C399.325 312.41 396.593 312.555 393.812 312.712C392.712 312.774 392.216 310.424 393.375 310.251C403.313 308.78 412.414 308.332 422.316 308.015C425.507 307.496 425.946 310.789 421.458 311.152L421.488 311.108C414.839 311.588 408.491 311.924 402.041 312.266L402.039 312.267ZM393.8 317.781C392.709 317.78 392.61 320.121 393.714 320.161C405.871 320.625 424.028 319.311 432.709 318.346C434.09 318.391 434.255 315.277 432.809 315.252C432.809 315.252 405.967 317.722 393.8 317.781Z" fill="#FF6565"/>
<path d="M409.803 279.553C408.813 279.826 409.3 282.731 409.609 283.885C410.143 285.909 411.129 284.927 411.129 284.49C411.061 283.513 411.025 279.215 409.803 279.553ZM410.821 269.843C413.584 269.688 417.438 271.849 416.749 274.52C415.423 279.682 403.717 280.92 401.041 276.727C399.843 274.853 402.147 271.691 404.763 270.94C404.771 269.532 404.823 267.741 404.804 266.614C406.865 267.022 408.378 266.867 410.314 265.975C410.539 267.125 410.821 269.843 410.821 269.843ZM403.832 265.143C405.604 266.433 410.31 265.607 411.307 264.056C412.46 262.339 410.971 259.197 407.019 259.787C402.172 260.48 402.193 264.099 403.833 265.125L403.832 265.143Z" fill="#3E2EFF"/>
<path d="M234.429 230.738C231.797 230.665 230.924 231.351 228.22 232.168C225.991 233.162 222.709 233.882 223.188 236.86C223.579 239.212 224.803 239.301 228.713 239.472C230.376 239.391 234.607 238.156 236.204 237.605C239.962 236.098 240.242 235.464 240.065 233.944C239.728 231.231 235.202 230.762 234.429 230.738Z" fill="#3E2EFF"/>
<path d="M220.662 261.417C225.628 274.309 249.625 270.319 249.625 255.617C249.718 255.066 249.561 254.505 249.188 254.051C248.814 253.597 248.253 253.285 247.621 253.18C246.989 253.076 246.334 253.186 245.794 253.489C245.253 253.792 244.868 254.263 244.72 254.805C243.547 256.507 242.191 258.108 240.668 259.587C239.44 260.854 237.793 261.767 235.949 262.202C234.106 262.637 232.152 262.574 230.35 262.022C228.308 261.227 226.341 260.296 224.465 259.238C224.31 259.022 224.106 258.836 223.866 258.691C223.626 258.545 223.354 258.443 223.067 258.391C222.78 258.339 222.484 258.337 222.196 258.386C221.909 258.436 221.636 258.535 221.393 258.677C220.886 258.964 220.527 259.409 220.39 259.92C220.254 260.431 220.351 260.967 220.662 261.417V261.417Z" fill="#3E2EFF"/>
<path d="M205.504 211.129C205.504 213.122 206.041 215.033 206.998 216.442C207.955 217.852 209.252 218.643 210.606 218.643C211.959 218.643 213.256 217.852 214.213 216.442C215.17 215.033 215.707 213.122 215.707 211.129C215.707 209.136 215.17 207.225 214.213 205.815C213.256 204.406 211.959 203.614 210.606 203.614C209.252 203.614 207.955 204.406 206.998 205.815C206.041 207.225 205.504 209.136 205.504 211.129V211.129Z" fill="#3E2EFF"/>
<path d="M245.141 210.874C245.141 211.86 245.273 212.837 245.529 213.749C245.785 214.661 246.161 215.489 246.635 216.187C247.109 216.885 247.671 217.438 248.29 217.816C248.909 218.194 249.572 218.388 250.242 218.388C250.912 218.388 251.576 218.194 252.195 217.816C252.814 217.438 253.376 216.885 253.85 216.187C254.324 215.489 254.7 214.661 254.956 213.749C255.212 212.837 255.344 211.86 255.344 210.874C255.344 209.887 255.212 208.91 254.956 207.998C254.7 207.086 254.324 206.258 253.85 205.56C253.376 204.862 252.814 204.309 252.195 203.931C251.576 203.553 250.912 203.359 250.242 203.359C249.572 203.359 248.909 203.553 248.29 203.931C247.671 204.309 247.109 204.862 246.635 205.56C246.161 206.258 245.785 207.086 245.529 207.998C245.273 208.91 245.141 209.887 245.141 210.874V210.874Z" fill="#3E2EFF"/>
<path d="M280.582 155.121C281.122 144.882 277.533 134.843 270.586 127.162C261.242 117.103 243.347 112.403 229.829 113.625C212.989 115.159 197.179 122.697 180.485 120.383C179.799 120.289 179.101 120.402 178.482 120.706C177.864 121.011 177.356 121.493 177.026 122.087C176.696 122.682 176.559 123.361 176.635 124.034C176.711 124.706 176.995 125.34 177.449 125.851C180.383 129.049 183.928 131.655 187.885 133.522C180.344 137.591 172.259 140.613 163.865 142.501C163.202 142.598 162.583 142.885 162.087 143.326C161.59 143.766 161.238 144.341 161.076 144.976C160.913 145.612 160.947 146.281 161.173 146.898C161.399 147.515 161.807 148.053 162.345 148.444C166.242 151.211 170.743 153.059 175.493 153.842C151.333 160.481 153.638 188.249 148.217 190.063C147.542 190.288 146.957 190.716 146.547 191.286C146.136 191.856 145.922 192.538 145.934 193.235C145.946 193.932 146.184 194.607 146.613 195.164C147.043 195.72 147.642 196.128 148.325 196.33C151.414 197.3 154.632 197.822 157.876 197.881C157.472 200.64 156.631 203.321 155.385 205.829C155.051 206.414 154.911 207.086 154.983 207.753C155.056 208.419 155.337 209.047 155.789 209.551C156.242 210.055 156.842 210.409 157.509 210.566C158.175 210.723 158.875 210.675 159.513 210.428C161.226 209.8 162.866 208.996 164.405 208.029C166.091 215.386 169.29 222.331 173.807 228.442C172.897 230.257 172.382 232.236 172.295 234.255C172.208 236.275 172.55 238.29 173.3 240.173C174.05 242.056 175.192 243.767 176.653 245.197C178.114 246.627 179.863 247.746 181.789 248.481C184.656 249.694 187.699 250.464 190.809 250.763C191.411 270.271 197.038 281.011 216.141 286.641L217.337 298.75C217.346 299.033 217.413 299.31 217.533 299.567C217.653 299.825 217.824 300.056 218.036 300.248C218.248 300.439 218.497 300.588 218.769 300.685C219.04 300.782 219.329 300.825 219.617 300.812C219.906 300.804 220.191 300.738 220.453 300.619C220.715 300.501 220.951 300.332 221.145 300.122C221.339 299.912 221.487 299.667 221.582 299.4C221.676 299.132 221.714 298.849 221.694 298.568L222.67 284.23C222.716 283.493 222.49 282.765 222.032 282.178C221.575 281.591 220.917 281.184 220.178 281.031C201.905 276.972 197.574 266.102 197.574 247.791C197.586 246.969 197.279 246.173 196.714 245.563C196.149 244.954 195.368 244.576 194.53 244.508C188.977 244.016 183.35 243.432 180.182 239.048C175.875 232.939 181.519 225.925 188.334 224.675C189.613 224.423 192.138 222.239 192.138 221.083C192.138 220.768 192.063 220.457 191.919 220.175C191.774 219.893 191.565 219.648 191.307 219.459C195.759 195.397 218.716 174.635 239.177 160.481C244.388 174.556 251.596 187.847 260.59 199.963C263.948 204.434 267.812 208.519 272.11 212.14C272.389 212.381 272.724 212.552 273.085 212.639C273.447 212.727 273.824 212.728 274.186 212.644C278.536 212.502 282.836 213.586 286.574 215.765C293.086 219.824 289.793 228.718 283.206 232.497C279.587 234.195 275.587 234.97 271.578 234.75C270.691 234.746 269.839 235.086 269.208 235.694C268.576 236.302 268.216 237.13 268.206 237.997C267.616 258.39 262.101 275.154 242.126 280.735C241.406 280.942 240.784 281.39 240.367 281.999C239.949 282.609 239.764 283.342 239.842 284.071L241.416 299.686C241.471 300.204 241.727 300.682 242.132 301.021C242.537 301.359 243.06 301.532 243.592 301.505C244.124 301.463 244.617 301.217 244.964 300.821C245.31 300.424 245.482 299.91 245.44 299.39L246.47 286.044C267.234 278.738 273.833 262.729 274.838 241.268C278.91 241.162 282.897 240.106 286.466 238.188C296.055 232.813 300.254 219.763 292.554 212.969C288.788 209.555 289.71 213.825 293.206 204.059C293.294 203.603 293.434 203.158 293.622 202.732C293.707 203.262 293.963 203.753 294.352 204.133C294.741 204.513 295.243 204.763 295.786 204.846C296.329 204.929 296.885 204.842 297.375 204.597C297.864 204.352 298.262 203.962 298.51 203.482C312.002 178.71 304.552 166.604 280.582 155.121Z" fill="#3E2EFF"/>
<path fill-rule="evenodd" clip-rule="evenodd" d="M277.66 199.095C265.842 179.017 237.552 181.147 230.717 202.371C230.618 202.679 230.57 202.908 230.54 203.052C230.515 203.168 230.503 203.228 230.484 203.23C230.464 203.232 230.437 203.164 230.38 203.022C230.264 202.732 230.024 202.133 229.469 201.189C217.622 181.074 189.336 183.241 182.53 204.461C181.153 209.043 181.126 213.903 182.452 218.499C183.778 223.094 186.405 227.246 190.039 230.489C193.183 233.431 197.08 235.52 201.334 236.545C205.588 237.571 210.048 237.495 214.262 236.327C218.476 235.159 222.294 232.94 225.33 229.894C228.365 226.848 230.509 223.084 231.544 218.984C232.712 222.161 234.552 225.07 236.946 227.529C239.341 229.987 242.239 231.942 245.458 233.269C248.677 234.596 252.147 235.267 255.649 235.24C259.151 235.212 262.609 234.487 265.805 233.109C269.001 231.732 271.865 229.732 274.218 227.236C276.571 224.741 278.361 221.803 279.475 218.608C280.588 215.414 281.002 212.032 280.69 208.676C280.378 205.319 279.346 202.062 277.66 199.109V199.095ZM271.684 221.437C259.658 238.94 229.535 226.103 235.553 205.156C236.115 203.162 236.969 201.244 238.093 199.451C243.626 190.045 252.497 187.436 263.924 194.136C267.607 196.57 270.642 199.705 272.811 203.315C274.414 206.159 275.154 209.33 274.956 212.511C274.758 215.692 273.63 218.77 271.684 221.437ZM223.549 223.359C211.627 241.002 181.764 228.063 187.73 206.947C188.288 204.938 189.135 203.004 190.248 201.196C196.193 190.92 205.303 189.552 215.856 195.839C219.508 198.291 222.518 201.451 224.666 205.092C226.257 207.958 226.991 211.155 226.795 214.362C226.598 217.568 225.479 220.671 223.549 223.359Z" fill="#FF6565"/>
<path d="M290.192 304.473C277.522 296.441 265.914 291.139 249.778 288.908C249.223 288.847 248.662 288.938 248.154 289.17C247.646 289.402 247.211 289.767 246.894 290.226C243.718 294.698 236.733 304.949 232.062 310.138C226.69 304.399 221.716 298.034 215.79 292.11C215.43 291.753 214.99 291.487 214.507 291.333C214.024 291.179 213.512 291.142 213.012 291.225C198.723 293.093 182.556 297.233 170.05 304.39C169.597 304.623 169.254 305.025 169.098 305.51C168.941 305.995 168.984 306.522 169.216 306.975C169.448 307.428 169.851 307.771 170.336 307.927C170.821 308.083 171.348 308.041 171.801 307.809C179.81 304.576 189.073 302.535 197.487 300.583C197.215 305.091 197.393 320.192 197.047 336.933C197.048 337.497 197.2 338.051 197.487 338.537C197.773 339.023 198.184 339.423 198.677 339.698C199.17 339.972 199.727 340.111 200.291 340.098C200.856 340.086 201.406 339.924 201.887 339.628C210.363 334.337 220.04 328.158 228.166 322.249C225.238 338.77 228.461 416.916 228.905 433.594C228.885 434.153 229.088 434.698 229.469 435.107C229.85 435.517 230.379 435.759 230.938 435.779C231.497 435.799 232.042 435.597 232.452 435.216C232.862 434.835 233.104 434.307 233.124 433.747C237.144 404.938 235.386 349.775 234.44 320.887C241.823 326.756 250.383 335.926 257.42 342.212C257.846 342.587 258.366 342.838 258.925 342.938C259.483 343.038 260.059 342.985 260.589 342.782C261.119 342.58 261.583 342.237 261.933 341.789C262.282 341.342 262.503 340.809 262.571 340.246C262.882 337.571 263.291 334.904 263.704 332.248C269.457 298.121 269.851 300.359 270.564 300.583C277.061 302.373 282.047 304.862 288.008 308.006C288.477 308.298 289.043 308.394 289.583 308.272C290.123 308.151 290.593 307.822 290.892 307.357C291.041 307.123 291.14 306.861 291.185 306.588C291.231 306.315 291.22 306.035 291.155 305.766C291.089 305.497 290.97 305.244 290.805 305.022C290.639 304.8 290.431 304.613 290.192 304.473ZM203.437 331.179C203.437 319.826 203.736 320.2 202.713 299.631C203.107 299.631 205.739 298.844 212.398 297.763C217.513 303.057 222.484 309.367 227.556 314.728C220.355 320.105 210.863 326.45 203.437 331.179ZM257.231 333.625C250.541 327.689 243.745 320.581 236.548 314.823C241.688 308.614 246.512 302.151 251.002 295.458C256.153 296.408 261.238 297.683 266.227 299.277C263.023 310.574 259.156 322.041 257.235 333.625H257.231Z" fill="#FF6565"/>
<path d="M240.051 355.404C240.051 357.042 240.702 358.613 241.861 359.771C243.02 360.929 244.591 361.58 246.23 361.58C247.868 361.58 249.44 360.929 250.598 359.771C251.757 358.613 252.408 357.042 252.408 355.404C252.408 353.766 251.757 352.196 250.598 351.037C249.44 349.879 247.868 349.229 246.23 349.229C244.591 349.229 243.02 349.879 241.861 351.037C240.702 352.196 240.051 353.766 240.051 355.404Z" fill="#FF6565"/>
<path d="M240.083 386.291C240.083 387.929 240.733 389.5 241.892 390.658C243.051 391.816 244.622 392.467 246.261 392.467C247.899 392.467 249.471 391.816 250.629 390.658C251.788 389.5 252.439 387.929 252.439 386.291C252.439 384.653 251.788 383.082 250.629 381.924C249.471 380.766 247.899 380.115 246.261 380.115C244.622 380.115 243.051 380.766 241.892 381.924C240.733 383.082 240.083 384.653 240.083 386.291Z" fill="#FF6565"/>
<path fill-rule="evenodd" clip-rule="evenodd" d="M278.327 297.804C277.917 297.687 277.485 297.645 277.057 297.682C276.628 297.719 276.213 297.834 275.836 298.019C275.46 298.205 275.13 298.457 274.867 298.761C274.605 299.064 274.415 299.413 274.309 299.784C266.092 330.634 271.087 402.733 271.087 402.733C242.16 402.779 218.266 402.861 189.642 406.319C188.775 406.443 187.998 406.868 187.481 407.5C185.956 409.485 184.847 411.219 183.91 412.686L183.91 412.686C181.221 416.894 179.946 418.889 174.298 418.229C170.926 417.829 167.609 413.617 166.987 410.975C166.792 410.386 166.392 409.868 165.844 409.496C165.296 409.124 164.629 408.917 163.94 408.906C163.25 408.894 162.575 409.079 162.012 409.433C161.449 409.787 161.027 410.292 160.809 410.874C160.375 412.02 159.823 413.129 159.16 414.185C158.672 415.189 157.835 416.027 156.772 416.577C155.709 417.126 154.477 417.357 153.256 417.237C152.034 417.117 150.888 416.651 149.986 415.908C149.084 415.165 148.473 414.184 148.244 413.109C148.057 412.597 147.715 412.14 147.255 411.791C146.794 411.442 146.234 411.213 145.636 411.131C145.038 411.048 144.427 411.115 143.869 411.324C143.312 411.533 142.83 411.876 142.479 412.314C138.543 417.416 132.082 414.805 131.46 408.838C131.381 408.137 131.341 407.436 131.338 406.735C128.032 407.755 119.757 409.935 114.468 410.912C112.107 411.35 110.788 409.16 113.028 407.758C118.814 404.92 125.181 403.146 131.751 402.541C132.683 398.113 134.9 393.979 138.181 390.55C137.068 389.793 137.001 385.9 137.001 385.539C136.741 383.699 138.473 368.053 138.756 366.893C138.815 366.504 140.239 361.385 142.254 361.546C144.411 361.704 144.726 366.75 144.726 367.342C144.56 373.818 143.839 380.274 142.569 386.653C147.685 382.897 153.981 380.742 157.806 385.581C158.063 385.91 158.396 386.186 158.783 386.391C159.17 386.596 159.602 386.724 160.05 386.768C160.497 386.811 160.95 386.769 161.378 386.643C161.805 386.518 162.198 386.312 162.528 386.04C164.09 384.822 165.863 383.838 167.778 383.124C169.376 382.277 171.255 381.948 173.095 382.194C174.935 382.44 176.623 383.245 177.872 384.474C178.349 384.92 178.975 385.216 179.657 385.318C180.339 385.421 187.319 383.464 187.934 383.182C188.549 382.9 189.044 382.448 189.346 381.894C189.648 381.34 189.741 380.714 189.609 380.109C188.241 363.43 187.427 333.614 186.844 312.28C186.781 309.972 186.721 307.763 186.663 305.681L186.66 305.605C186.599 303.397 186.54 301.282 186.483 299.282C186.473 298.878 186.364 298.48 186.164 298.116C185.965 297.752 185.679 297.431 185.327 297.175C184.974 296.919 184.564 296.734 184.124 296.632C183.683 296.531 183.224 296.516 182.776 296.588C120.139 306.663 41.9082 366.893 56.8499 445.582H248.937C267.532 435.306 298.166 417.044 311.33 408.372C305.543 407.832 303.429 407.797 300.799 407.753C299.556 407.732 299.433 407.709 299.003 407.631C298.354 407.512 297.005 407.264 290.024 406.701C289.514 406.701 289.024 406.525 288.657 406.21C288.29 405.895 288.075 405.465 288.057 405.012C288.056 404.783 288.106 404.557 288.205 404.346C288.304 404.135 288.45 403.944 288.633 403.784C288.817 403.624 289.034 403.499 289.273 403.415C289.512 403.332 289.768 403.292 290.024 403.298C292.132 403.001 293.337 402.761 294.259 402.577C296.034 402.223 296.764 402.077 300.87 402.142C308.875 402.375 316.856 403.061 324.764 404.195C326.634 404.291 328.548 404.309 330.449 404.328H330.45C331.478 404.338 332.504 404.348 333.516 404.37C333.295 402.014 332.381 397.987 331.407 393.703C330.082 387.87 328.649 381.56 328.712 378.34C328.675 377.848 328.854 377.363 329.213 376.988C329.572 376.613 330.081 376.378 330.631 376.332C331.182 376.286 331.731 376.434 332.161 376.744C332.592 377.053 332.869 377.5 332.934 377.989C333.229 379.562 334.496 383.235 335.799 387.01L335.799 387.011L335.799 387.012C337.231 391.161 338.704 395.432 338.974 397.169C339.181 398.815 339.362 400.468 339.542 402.123L339.544 402.136C339.723 403.777 339.902 405.42 340.108 407.058C340.158 407.47 340.106 407.886 339.954 408.278C339.802 408.669 339.555 409.026 339.229 409.322C338.904 409.618 338.51 409.847 338.074 409.991C337.637 410.135 337.171 410.191 336.708 410.156C330.833 410.182 324.961 409.926 319.117 409.388C312.131 413.834 280.063 433.382 258.688 445.582H392.183C407.647 385.318 355.677 305.681 278.327 297.804ZM303.882 361.099H302.117L296.938 372.381L292.448 361.099H287L295.051 381.099H297.513L303 369.991L308.487 381.099H310.948L319 361.099H313.552L309.062 372.381L303.882 361.099Z" fill="#3E2EFF"/>
<path d="M140.008 409.432C140.297 408.619 141.157 406.49 141.306 406.105C142.96 400.409 143.903 397.501 149.311 394.255C150.22 393.579 151.199 392.987 152.234 392.488C152.801 392.39 153.302 392.089 153.63 391.652C153.959 391.215 154.087 390.676 153.987 390.152C153.888 389.628 153.568 389.161 153.099 388.853C152.629 388.545 152.046 388.42 151.477 388.505C149.837 388.368 148.184 388.524 146.607 388.963C139.264 391.176 132.756 402.549 136.002 409.519C136.034 409.997 136.265 410.444 136.647 410.767C137.029 411.091 137.532 411.265 138.051 411.254C138.569 411.242 139.062 411.046 139.427 410.707C139.792 410.367 140 409.91 140.008 409.432V409.432Z" fill="#3E2EFF"/>
<path d="M158.763 411.049C162.268 404.822 160.675 400.471 167.556 394.863C168.367 394.034 169.277 393.29 170.268 392.645C170.832 392.494 171.309 392.145 171.593 391.675C171.877 391.204 171.947 390.649 171.786 390.132C171.594 389.62 171.194 389.195 170.669 388.946C170.144 388.696 169.534 388.641 168.966 388.791C166.774 388.917 164.653 389.556 162.809 390.649C160.964 391.741 159.458 393.25 158.435 395.03C155.692 398.696 154.183 403.018 154.093 407.461C154.196 408.616 154.414 409.759 154.744 410.878C154.745 411.367 154.946 411.838 155.309 412.197C155.672 412.556 156.169 412.776 156.702 412.814C156.965 412.827 157.228 412.791 157.476 412.709C157.724 412.626 157.951 412.498 158.143 412.333C158.336 412.169 158.49 411.97 158.596 411.749C158.703 411.528 158.76 411.29 158.763 411.049V411.049Z" fill="#3E2EFF"/>
<path d="M179.684 412.966C180.121 411.826 180.379 411.628 181.103 409.825C181.64 407.441 182.478 405.123 183.602 402.916C184.718 400.822 186.232 398.925 188.074 397.314C188.749 396.477 189.476 395.676 190.252 394.915C190.774 394.672 191.171 394.25 191.354 393.741C191.538 393.233 191.493 392.678 191.23 392.199C190.939 391.727 190.463 391.373 189.896 391.21C189.33 391.046 188.717 391.086 188.182 391.321C186.684 391.601 185.248 392.106 183.931 392.815C178.251 396.044 172.871 407.266 175.649 412.898C175.636 413.14 175.678 413.383 175.771 413.61C175.864 413.838 176.006 414.046 176.189 414.221C176.373 414.397 176.593 414.538 176.837 414.634C177.081 414.73 177.344 414.78 177.61 414.78C178.148 414.79 178.669 414.605 179.058 414.265C179.446 413.925 179.672 413.458 179.684 412.966Z" fill="#3E2EFF"/>
</svg>
