<svg width="462" height="444" viewBox="0 0 462 444" fill="none" xmlns="http://www.w3.org/2000/svg">
<path d="M114.489 130.823C118.693 131.821 120.006 125.665 115.942 124.794C111.713 123.89 110.907 129.97 114.489 130.823ZM115.632 126.246C117.551 126.788 116.829 129.854 114.898 129.383C112.87 128.888 113.694 125.858 115.632 126.246Z" fill="#3E2EFF"/>
<path fill-rule="evenodd" clip-rule="evenodd" d="M64.09 115.423C65.6554 117.459 96.3082 124.312 99.8384 124.543C100.857 124.598 100.778 122.727 99.8383 122.536C98.8497 122.299 96.7072 121.742 93.937 121.023L93.937 121.023L93.9369 121.023C83.8272 118.395 65.3572 113.596 64.0974 114.258C63.6083 114.446 63.7187 115.032 64.09 115.423ZM90.85 125.215C86.6469 124.472 82.435 123.239 78.3124 122.033C73.0811 120.502 67.9936 119.012 63.2502 118.62C62.7097 118.569 62.3828 120.094 62.8797 120.214C66.5989 121.065 70.2195 122.154 73.8277 123.24L73.8278 123.24C79.3392 124.898 84.8218 126.548 90.5829 127.325C91.7173 127.476 91.9327 125.402 90.85 125.215ZM83.2231 127.99C89.746 129.831 96.075 131.618 100.228 132.352C101.31 132.539 100.876 134.539 99.7412 134.388C93.8432 133.593 83.8604 130.723 74.8789 128.141C69.3438 126.549 64.189 125.067 60.6048 124.247C60.1079 124.127 60.6542 122.675 61.1946 122.726C65.983 123.123 74.766 125.602 83.2231 127.99Z" fill="#FF6565"/>
<path d="M89.3298 90.6581C97.9254 98.2045 116.941 115.258 118.516 117.821C118.693 118.364 119.801 118.009 119.684 117.49C117.092 106.188 112.401 90.3118 108.294 75.56C107.592 73.0368 107.53 69.4769 101.871 70.158C98.0981 70.6148 94.3506 71.2636 90.6434 72.1017C85.8077 73.3136 85.2601 76.0618 86.1679 80.3031C86.7291 82.7946 88.1377 88.4544 89.3298 90.6581Z" fill="#FF6565"/>
<path d="M66.0778 103.415C68.1687 105.586 71.1344 107.726 73.6482 109.389C74.3571 109.874 75.5441 108.591 74.8327 108.079C72.4859 106.427 70.5184 104.54 68.5177 102.482C65.0212 99.0181 62.2206 98.5149 66.7202 93.7629C68.6067 91.754 70.2517 89.7099 72.1775 87.7709C76.0413 83.8806 78.0758 86.3863 81.9729 89.6726C94.8539 100.831 105.447 109.988 116.956 120.673C117.626 121.3 119.102 119.935 118.439 119.286C107.4 108.504 95.8877 98.0612 83.9821 88.3449C79.8528 84.9883 76.089 80.6861 71.0653 85.5821C59.9733 96.3859 59.7289 96.8166 66.0778 103.415Z" fill="#3E2EFF"/>
<path d="M58.7126 129.211C75.6333 133.852 92.6714 138.557 109.761 142.536C115.968 143.987 117.925 144.39 119.911 137.876C120.945 134.517 121.808 131.108 122.496 127.662C123.189 123.978 120.796 122.617 117.833 121.867C99.9467 117.319 82.2607 112.186 64.2812 108.016C59.7857 106.976 57.2102 107.002 55.7216 112.259C52.4201 124.475 50.7949 127.033 58.7126 129.211ZM57.7582 112.259C58.907 108.59 59.7194 108.929 64.2812 110.095C79.9876 114.106 100.7 119.677 116.99 123.525C119.033 124.01 120.86 124.335 120.369 126.931C119.691 130.521 118.811 133.708 117.833 137.239C116.291 142.783 114.344 141.208 109.761 140.055C92.925 135.815 75.8583 131.93 59.3652 126.98C54.7617 125.594 54.4705 125.981 55.7216 120.885C56.0138 119.7 56.8297 115.223 57.7582 112.259Z" fill="#3E2EFF"/>
<path d="M123.088 122.59C123.072 122.715 123.102 122.841 123.172 122.945C123.242 123.048 123.347 123.124 123.468 123.156C123.589 123.189 123.718 123.177 123.831 123.122C123.944 123.068 124.033 122.974 124.082 122.859C127.711 109.988 131.338 94.8169 134.207 82.043C135.204 77.6028 136.344 74.7547 130.901 73.0561C128.139 72.1926 125.36 71.3882 122.562 70.6429C118.862 69.6427 115.53 68.9861 114.198 73.327C114.003 74.0465 112.054 81.7479 111.885 82.9618C113.443 89.1481 116.941 99.4869 123.088 122.59Z" fill="#3E2EFF"/>
<path d="M94.5459 108.049C95.487 107.073 95.4684 105.506 94.4842 104.574C93.2246 103.38 91.5747 101.821 90.2973 100.628C89.3497 99.7435 87.8597 99.7826 86.9261 100.682C85.4367 102.117 83.2994 104.154 81.7592 105.658C80.8048 106.591 80.7924 108.173 81.7266 109.125C82.1776 109.585 82.6937 110.086 83.2569 110.574C83.4727 110.761 83.7245 110.902 83.9942 110.996L88.3364 112.513C89.2161 112.821 90.1941 112.591 90.8397 111.919C92.0282 110.682 93.3928 109.245 94.5459 108.049Z" fill="#3E2EFF"/>
<path d="M69.3968 95.8723C68.5213 96.7958 68.5514 98.2236 69.4841 99.0893C70.7838 100.296 72.5156 101.855 73.8831 103.022C74.7375 103.751 75.9557 103.703 76.7672 102.927C78.3847 101.379 81.021 98.8209 82.8537 97.0335C83.8129 96.0981 83.7686 94.6068 82.7325 93.7573C81.3672 92.6379 79.5405 91.1597 78.1465 90.0006C77.1731 89.1912 75.7443 89.2355 74.8658 90.147C73.3043 91.7674 70.9632 94.22 69.3968 95.8723Z" fill="#FF6565"/>
<path d="M102.32 115.94C103.547 116.215 104.508 114.409 103.608 113.53C102.375 112.324 101.067 111.064 100.102 110.21C99.6455 109.806 98.9633 109.851 98.5404 110.29C97.8924 110.963 97.0175 111.877 96.2162 112.725C95.5918 113.385 95.9136 114.46 96.798 114.669C98.336 115.033 100.362 115.501 102.32 115.94Z" fill="#FF6565"/>
<path d="M361.35 116.371C365.305 111.27 368.582 105.296 372.013 99.8403C372.677 98.7381 370.117 97.1267 369.373 98.1762C367.09 101.773 366.014 103.917 366.014 103.917C363.577 99.6218 360.608 98.2294 356.567 99.1249C356.567 99.1249 361.219 94.8285 362.236 92.5329C362.578 91.6693 361.331 90.345 360.573 90.8822C359.181 91.9739 349.592 104.121 348.252 105.837C342.861 112.834 345.592 113.536 344.837 117.188C344.04 121.101 338.954 120.377 345.661 124.383C348.99 126.381 348.106 124.064 351.069 122.235C355.667 119.391 355.54 123.859 361.35 116.371Z" fill="#FF6565"/>
<path d="M360.215 88.0267C365.542 91.6822 370.764 94.5712 375.865 98.8173C377.833 100.458 382.313 98.3875 377.191 94.2502C379.976 90.9254 382.589 87.4606 385.021 83.8694C396.251 66.5993 380.477 60.3648 371.254 72.6396C368.335 76.5095 365.629 80.5385 362.83 84.4948C357.72 81.3919 355.603 84.8602 360.215 88.0267Z" fill="#3E2EFF"/>
<path d="M361.35 116.371C365.305 111.27 368.582 105.296 372.013 99.8403C372.677 98.7381 370.117 97.1267 369.373 98.1762C367.09 101.773 359.122 115.684 356.093 118.148C354.441 119.51 349.979 118.42 348.004 122.316L345.146 120.452C348.696 117.45 346.511 114.112 347.68 111.484C348.85 108.857 361.219 94.8285 362.236 92.5329C362.578 91.6693 361.331 90.345 360.573 90.8822C359.181 91.9739 349.592 104.121 348.252 105.837C342.861 112.834 345.592 113.536 344.837 117.188C344.04 121.101 338.954 120.377 345.661 124.383C348.99 126.381 348.106 124.064 351.069 122.235C355.667 119.391 355.54 123.859 361.35 116.371Z" fill="#3E2EFF"/>
<path d="M338.016 137.067C337.697 141.071 340.511 144.743 344.365 144.939C347.271 144.984 351.944 142.842 350.945 137.021C350.049 131.803 346.716 129.58 344.836 125.796C344.617 125.356 343.892 125.361 343.674 125.801C341.882 129.411 338.466 131.787 338.016 137.067Z" fill="#FF6565"/>
<path fill-rule="evenodd" clip-rule="evenodd" d="M60.5158 212.633C76.8638 200.54 72.1027 171.646 56.8643 162.242C42.6922 153.492 21.4947 160.12 14.02 176.362C1.58564 203.381 34.0963 232.177 60.5158 212.633ZM53.1805 167.788C67.9734 176.972 68.6658 201.949 53.1805 210.28L53.1739 210.281C32.5907 221.65 10.4822 197.963 19.1562 179.011C24.2922 167.788 41.3158 160.422 53.1805 167.788Z" fill="#3E2EFF"/>
<path d="M19.3197 210.867C23.4932 215.121 25.024 215.364 19.8537 221.103C15.4664 226.176 12.728 228.74 7.63425 233.104C6.37559 234.047 -0.936809 228.627 0.592485 226.653C5.56906 220.238 9.04246 216.415 15.0012 210.9C16.8399 209.209 17.3535 208.863 19.3197 210.867Z" fill="#FF6565"/>
<path d="M55.8846 178.008C55.5001 180.499 58.533 187.095 59.2498 189.928C59.4168 190.457 60.6767 190.104 60.8914 189.688C61.8256 186.861 60.5046 178.161 56.7235 177.488C56.3329 177.462 55.9115 177.652 55.8846 178.008Z" fill="#3E2EFF"/>
<path d="M59.7682 195.887C57.0364 203.113 50.8631 207.381 45.3062 209.299C42.8542 210.106 42.4371 207.725 46.1179 206.233C52.6302 202.379 54.1389 198.98 57.8732 194.841C58.764 193.854 60.235 194.652 59.7682 195.887Z" fill="#3E2EFF"/>
<path d="M407.798 236.214C419.72 231.077 443.847 221.459 456.836 215.863C457.619 215.525 458.498 217.545 457.707 217.886C442.962 224.166 423.275 232.363 408.069 238.74C406.455 239.435 406.399 238.981 405.971 237.882C396.653 213.735 391.895 202.778 382.58 177.69C382.372 177.208 382.469 176.741 383.442 176.307C397.881 169.788 416.348 161.284 432.811 153.794C435.711 152.463 436.479 152.089 436.881 153.023C446.155 174.159 453.42 191.849 461.599 213.912C461.884 214.575 458.666 215.808 458.438 215.172C450.513 192.361 444.032 178.787 434.83 155.984C433.273 156.963 389.832 175.943 385.711 177.822C395.042 201.267 399.503 215.692 407.798 236.214Z" fill="#3E2EFF"/>
<path d="M393.127 179.582C394.678 178.268 430.22 162.688 431.126 163.208C432.22 163.851 441.107 183.935 440.591 185.174C440.074 186.413 401.896 201.569 400.8 201.205C399.704 200.84 391.585 180.895 393.12 179.566L393.127 179.582ZM405.701 195.09C409.028 191.356 412.121 187.488 415.327 183.686C421.098 184.318 426.979 184.616 432.93 184.575C433.769 184.581 433.962 183.455 433.126 183.456C427.449 183.437 421.84 183.117 416.329 182.498C420.221 177.886 424.28 173.143 427.905 168.411C428.282 167.926 427.44 167.522 427.022 167.977C422.816 172.57 418.746 177.568 414.746 182.314C411.931 181.861 403.463 180.08 401.044 180.132C400.906 180.145 400.769 180.194 400.652 180.273C400.534 180.351 400.443 180.455 400.39 180.57C400.337 180.685 400.326 180.805 400.357 180.914C400.389 181.022 400.461 181.114 400.565 181.175C401.864 181.884 412.097 183.302 413.762 183.501C410.707 187.174 407.516 190.8 404.577 194.518C404.059 195.167 405.174 195.68 405.699 195.091L405.701 195.09Z" fill="#FF6565"/>
<path d="M442.872 189.626C442.057 188.317 423.781 197.052 424.128 197.555C424.476 198.058 424.406 199.02 425.625 198.873C426.844 198.726 442.077 192.348 442.766 191.772C443.455 191.196 443.598 190.794 442.872 189.626Z" fill="#3E2EFF"/>
<path d="M444.671 193.802C443.856 192.492 425.581 201.228 425.928 201.731C426.275 202.234 426.206 203.196 427.425 203.049C428.644 202.902 443.876 196.524 444.565 195.948C445.255 195.372 445.397 194.97 444.671 193.802Z" fill="#3E2EFF"/>
<path d="M446.487 197.971C445.732 196.636 432.697 203.113 433.013 203.629C433.329 204.146 433.375 205.058 434.289 205.042C435.203 205.027 446.16 200.492 446.626 200.011C447.093 199.531 447.16 199.161 446.487 197.971Z" fill="#3E2EFF"/>
<path d="M419.311 199.611C418.569 199.151 404.169 206.135 403.574 206.392C402.979 206.648 407.07 215.518 407.591 215.713C408.111 215.908 422.54 210.379 422.908 209.596C423.276 208.813 420.496 200.343 419.311 199.611Z" fill="#3E2EFF"/>
<path d="M447.907 205.147C446.787 204.329 410.396 219.784 409.951 220.394C409.507 221.003 412.25 226.741 412.83 227.076C413.411 227.41 450.867 212.835 450.938 212.181C451.01 211.526 448.804 205.801 447.907 205.147Z" fill="#FF6565"/>
<path d="M230.238 18.4833C229.815 13.9946 229.803 5.23869 228.851 1.52406C228.549 0.36427 226.506 0.0688511 226.15 1.37088C225.527 7.28546 225.688 13.2462 226.63 19.1261C226.917 21.1612 230.453 20.7892 230.238 18.4833Z" fill="#FF6565"/>
<path d="M176.994 54.7089C179.526 54.8957 190.126 52.8471 193.991 52.4736C195.958 52.2868 195.704 48.9188 193.649 49.0664C190.591 49.2803 179.218 50.4281 176.395 52.1181C176.161 52.2819 175.98 52.5119 175.878 52.7785C175.775 53.0451 175.754 53.3362 175.818 53.6146C175.883 53.8929 176.029 54.1458 176.238 54.3407C176.448 54.5357 176.711 54.6639 176.994 54.7089Z" fill="#FF6565"/>
<path d="M193.517 20.4383C197.445 23.8395 199.476 25.3909 202.066 27.7527C203.915 29.4367 206.626 27.6563 205.042 25.7253C201.792 22.2728 198.194 19.1645 194.303 16.4498C191.145 13.6391 189.353 16.8474 193.517 20.4383Z" fill="#FF6565"/>
<path d="M264.527 7.11016C261.381 9.34545 256.368 17.7715 254.525 20.9888C254.386 21.1976 254.291 21.4327 254.246 21.6795C254.202 21.9264 254.209 22.1798 254.267 22.4238C254.325 22.6679 254.432 22.8975 254.583 23.0983C254.734 23.2992 254.924 23.4669 255.143 23.5912C255.361 23.7154 255.603 23.7935 255.853 23.8207C256.103 23.8478 256.357 23.8233 256.597 23.7487C256.837 23.6742 257.059 23.5511 257.25 23.3873C257.44 23.2235 257.595 23.0223 257.704 22.7963C260.535 18.0245 263.657 13.4123 266.561 8.68269C267.111 7.78195 265.47 6.42933 264.527 7.11016Z" fill="#FF6565"/>
<path d="M283.748 38.3219C277.798 39.0118 271.779 39.8011 265.92 40.8645C264.212 41.1658 264.91 43.8138 266.466 43.6933C272.452 43.2333 278.426 42.5626 284.388 41.6809C286.413 41.3827 285.646 38.105 283.748 38.3219Z" fill="#FF6565"/>
<path d="M279.478 74.6715C274.36 71.7333 268.966 69.3016 263.372 67.4113C261.934 67.0197 261.03 69.2189 262.224 70.0352C267.041 73.2797 272.818 74.9276 277.837 77.8678C281.013 79.7446 283.394 77.3315 279.478 74.6715Z" fill="#FF6565"/>
<path d="M204.184 70.8174C201.96 71.2361 194.415 80.1923 193.306 82.2649C191.073 86.4825 194.233 86.9223 194.931 85.6751C198.098 80.0086 203.716 76.1405 205.363 73.7395C206.136 72.6219 205.961 70.483 204.184 70.8174Z" fill="#FF6565"/>
<path d="M206.272 49.877C207.008 59.8977 214.268 68.4648 222.117 74.2111C227.918 78.4588 238.598 78.7857 243.988 72.9207C250.008 66.3625 256.071 58.4002 256.858 49.0632C259.526 17.8995 204.031 19.5895 206.272 49.877Z" fill="#FF6565"/>
<path d="M240.241 52.0845C248.747 44.63 238.71 37.4375 235.103 46.0468C234.217 48.1671 233.521 50.361 233.021 52.6032C231.054 52.9515 229.051 53.0525 227.059 52.9038C226.291 50.0518 225.239 45.3888 222.279 44.1057C216.224 41.481 213.051 52.9643 225.265 54.9549C226.641 60.7283 227.714 66.5692 228.48 72.454C228.504 72.6366 228.594 72.8043 228.733 72.9258C228.872 73.0473 229.05 73.1143 229.235 73.1143C229.42 73.1143 229.598 73.0473 229.737 72.9258C229.876 72.8043 229.966 72.6366 229.99 72.454C229.89 66.639 229.104 60.8559 227.647 55.2243C229.292 55.2902 230.938 55.2135 232.569 54.9952C231.785 60.7079 232.103 66.5173 233.505 72.1112C233.816 73.5317 235.39 73.1468 235.128 71.7776C234.04 66.0879 234.015 60.2467 235.055 54.548C236.973 54.2009 238.763 53.3506 240.241 52.0845V52.0845ZM240.304 44.6776C243.205 46.5802 238.671 51.2762 235.601 52.0094C237.298 45.2165 239.232 43.9737 240.304 44.6776V44.6776ZM219.495 49.2215C218.298 46.8973 220.369 44.8334 222.273 46.7946C223.46 48.5101 224.256 50.464 224.605 52.5189C223.57 52.3425 222.583 51.9593 221.701 51.3923C220.82 50.8253 220.062 50.0862 219.475 49.2196L219.495 49.2215Z" fill="white"/>
<path d="M222.68 74.3569C222.16 88.3184 225.166 96.8874 232.803 96.9021C242.531 96.9167 243.582 85.2758 242.926 73.6476C236.213 74.4967 229.436 74.7341 222.68 74.3569V74.3569ZM238.234 87.0739C235.595 88.8361 232.567 89.9359 229.409 90.2797C228.243 90.2998 228.019 89.0113 229.128 88.7345C231.986 88.0531 234.697 86.8614 237.129 85.2171C237.373 85.1131 237.646 85.1009 237.898 85.1828C238.15 85.2647 238.363 85.4351 238.498 85.6623C238.634 85.8896 238.681 86.158 238.633 86.4177C238.584 86.6774 238.442 86.9106 238.234 87.0739V87.0739ZM238.547 80.1564C236.272 81.9636 228.569 83.8901 227.455 83.8222C226.633 83.8222 226.131 82.9369 226.945 82.4017C228.389 81.4522 233.013 80.6549 237.35 78.3692C238.815 77.5994 239.948 79.0419 238.554 80.1564H238.547Z" fill="#3E2EFF"/>
<path d="M58.5201 257.098C54.2521 256.416 49.7252 255.778 45.5859 256.99C41.4467 258.202 37.6236 260.322 34.3834 263.202C41.2261 271.629 45.1101 279.534 52.9715 289.934C56.9272 273.103 58.0361 266.765 58.5201 257.098Z" fill="#FF6565"/>
<path d="M63.3471 261.938C60.7483 274.401 61.9515 277.422 57.3625 295.832C68.441 295.644 76.5367 296.016 91.9024 295.651C91.9932 287.473 88.9488 276.976 83.6853 270.762C78.4218 264.548 71.3053 263.048 63.3471 261.938Z" fill="#3E2EFF"/>
<path fill-rule="evenodd" clip-rule="evenodd" d="M34.9747 271.879L36.0832 273.313C42.3456 281.413 47.8971 290.036 52.6763 299.088C55.6341 299.172 58.4205 299.278 61.1994 299.384C68.2061 299.651 75.1643 299.916 84.6974 299.825L86.2098 299.81L86.5496 301.284C86.8492 302.584 86.784 303.939 86.3633 305.202C84.2666 318.375 74.1668 329.269 61.1972 332.376C43.4618 336.626 25.0789 325.302 20.9447 307.529C17.9672 294.728 22.7154 280.635 33.4998 272.932L34.9747 271.879Z" fill="#FF6565"/>
<path fill-rule="evenodd" clip-rule="evenodd" d="M424.524 274.479C431.04 273.919 437.693 273.347 437.875 273.886C444.375 293.053 443.985 328.271 442.955 329.545C441.926 330.818 385.596 334.661 384.099 333.53C383.513 330.134 383.538 323.442 383.567 315.705C383.614 302.956 383.671 287.373 381.024 279.035C381.69 278.513 389.083 278.118 394.403 277.834C397.043 277.693 399.173 277.58 399.716 277.491C400.063 279.771 404.41 281.705 407.749 281.236L407.753 281.263C408.345 284.969 408.57 286.383 411.11 285.952C413.045 285.624 412.641 283.885 411.932 280.835C411.901 280.705 411.871 280.572 411.839 280.437C413.246 280.159 415.034 279.427 416.116 278.485C417.198 277.544 418.014 276.335 418.483 274.98C420.335 274.84 422.422 274.66 424.524 274.479ZM391.844 296.101C401.6 295.874 423.723 294.708 432.854 293.03C434.044 292.82 433.734 290.062 432.57 290.143C426.121 290.637 416.767 291.486 407.869 292.294L407.869 292.294C402 292.827 396.329 293.341 391.82 293.724C390.746 293.816 390.746 296.163 391.844 296.101ZM392.803 304.109C391.699 304.068 391.798 301.727 392.889 301.728C405.056 301.67 431.898 299.199 431.898 299.199C433.344 299.225 433.178 302.338 431.798 302.293C423.117 303.258 404.96 304.573 392.803 304.109ZM402.039 312.366C399.325 312.509 396.593 312.654 393.812 312.811C392.712 312.873 392.216 310.523 393.375 310.351C403.313 308.879 412.414 308.431 422.316 308.114C425.507 307.595 425.946 310.888 421.458 311.251L421.488 311.207C414.839 311.687 408.491 312.024 402.041 312.365L402.039 312.366ZM393.8 317.88C392.709 317.879 392.61 320.22 393.714 320.26C405.871 320.724 424.028 319.41 432.709 318.445C434.09 318.49 434.255 315.377 432.809 315.351C432.809 315.351 405.967 317.821 393.8 317.88Z" fill="#FF6565"/>
<path d="M409.803 279.652C408.813 279.925 409.3 282.83 409.609 283.985C410.143 286.008 411.129 285.026 411.129 284.589C411.061 283.612 411.026 279.314 409.803 279.652ZM410.821 269.943C413.584 269.787 417.438 271.948 416.749 274.619C415.423 279.782 403.717 281.019 401.041 276.826C399.843 274.952 402.147 271.79 404.763 271.04C404.771 269.632 404.823 267.84 404.804 266.713C406.865 267.122 408.378 266.966 410.314 266.074C410.539 267.224 410.821 269.943 410.821 269.943ZM403.833 265.242C405.604 266.532 410.31 265.706 411.307 264.155C412.46 262.438 410.971 259.296 407.019 259.886C402.172 260.579 402.193 264.198 403.833 265.224L403.833 265.242Z" fill="#3E2EFF"/>
<path d="M234.429 230.837C231.797 230.764 230.924 231.45 228.22 232.267C225.991 233.261 222.71 233.981 223.188 236.959C223.579 239.311 224.803 239.4 228.713 239.571C230.376 239.49 234.607 238.255 236.205 237.704C239.962 236.197 240.242 235.563 240.066 234.043C239.728 231.331 235.202 230.861 234.429 230.837Z" fill="#3E2EFF"/>
<path d="M220.662 261.516C225.628 274.408 249.625 270.418 249.625 255.716C249.718 255.165 249.561 254.604 249.188 254.15C248.814 253.696 248.253 253.384 247.621 253.279C246.989 253.175 246.334 253.285 245.794 253.588C245.253 253.891 244.869 254.362 244.72 254.904C243.548 256.606 242.191 258.207 240.668 259.686C239.44 260.953 237.793 261.866 235.95 262.301C234.106 262.736 232.152 262.673 230.351 262.121C228.308 261.326 226.341 260.395 224.465 259.337C224.31 259.121 224.106 258.935 223.866 258.79C223.626 258.644 223.354 258.542 223.067 258.49C222.78 258.438 222.484 258.436 222.196 258.485C221.909 258.535 221.636 258.634 221.393 258.777C220.886 259.063 220.527 259.508 220.39 260.019C220.254 260.53 220.351 261.066 220.662 261.516V261.516Z" fill="#3E2EFF"/>
<path d="M205.504 211.228C205.504 213.221 206.041 215.132 206.998 216.542C207.955 217.951 209.253 218.742 210.606 218.742C211.959 218.742 213.256 217.951 214.213 216.542C215.17 215.132 215.707 213.221 215.707 211.228C215.707 209.235 215.17 207.324 214.213 205.915C213.256 204.505 211.959 203.714 210.606 203.714C209.253 203.714 207.955 204.505 206.998 205.915C206.041 207.324 205.504 209.235 205.504 211.228V211.228Z" fill="#3E2EFF"/>
<path d="M245.141 210.973C245.141 211.959 245.273 212.937 245.529 213.848C245.786 214.76 246.161 215.588 246.635 216.286C247.109 216.984 247.671 217.537 248.29 217.915C248.909 218.293 249.573 218.487 250.243 218.487C250.913 218.487 251.576 218.293 252.195 217.915C252.814 217.537 253.376 216.984 253.85 216.286C254.324 215.588 254.7 214.76 254.956 213.848C255.212 212.937 255.344 211.959 255.344 210.973C255.344 209.986 255.212 209.009 254.956 208.097C254.7 207.185 254.324 206.357 253.85 205.659C253.376 204.961 252.814 204.408 252.195 204.03C251.576 203.653 250.913 203.458 250.243 203.458C249.573 203.458 248.909 203.653 248.29 204.03C247.671 204.408 247.109 204.961 246.635 205.659C246.161 206.357 245.786 207.185 245.529 208.097C245.273 209.009 245.141 209.986 245.141 210.973V210.973Z" fill="#3E2EFF"/>
<path d="M280.582 155.22C281.122 144.981 277.533 134.942 270.586 127.261C261.242 117.202 243.347 112.502 229.829 113.724C212.989 115.258 197.179 122.796 180.485 120.482C179.799 120.388 179.101 120.501 178.483 120.805C177.864 121.11 177.356 121.592 177.026 122.186C176.696 122.781 176.559 123.46 176.635 124.133C176.711 124.805 176.995 125.439 177.449 125.95C180.383 129.148 183.928 131.754 187.885 133.621C180.344 137.69 172.26 140.712 163.865 142.6C163.202 142.697 162.583 142.984 162.087 143.425C161.59 143.865 161.238 144.44 161.076 145.076C160.913 145.711 160.947 146.38 161.173 146.997C161.399 147.614 161.807 148.152 162.345 148.543C166.243 151.31 170.743 153.158 175.493 153.941C151.333 160.58 153.638 188.348 148.217 190.162C147.542 190.387 146.957 190.815 146.547 191.385C146.136 191.955 145.922 192.637 145.934 193.334C145.946 194.031 146.184 194.706 146.613 195.263C147.043 195.819 147.642 196.227 148.325 196.429C151.414 197.399 154.632 197.921 157.877 197.98C157.472 200.739 156.631 203.42 155.385 205.928C155.051 206.513 154.911 207.185 154.983 207.852C155.056 208.518 155.337 209.146 155.789 209.65C156.242 210.154 156.842 210.509 157.509 210.666C158.176 210.822 158.876 210.774 159.513 210.527C161.226 209.899 162.866 209.095 164.405 208.128C166.091 215.485 169.29 222.43 173.807 228.541C172.897 230.356 172.382 232.335 172.295 234.355C172.208 236.374 172.55 238.389 173.3 240.272C174.051 242.155 175.192 243.866 176.653 245.296C178.114 246.726 179.863 247.845 181.789 248.581C184.656 249.793 187.699 250.563 190.809 250.862C191.411 270.37 197.038 281.11 216.142 286.74L217.338 298.849C217.347 299.132 217.413 299.409 217.533 299.667C217.653 299.924 217.824 300.155 218.036 300.347C218.248 300.539 218.497 300.687 218.769 300.784C219.04 300.881 219.329 300.924 219.617 300.911C219.906 300.903 220.191 300.837 220.453 300.719C220.716 300.6 220.951 300.431 221.145 300.221C221.339 300.012 221.487 299.766 221.582 299.499C221.676 299.232 221.714 298.949 221.694 298.667L222.67 284.329C222.716 283.592 222.49 282.864 222.032 282.277C221.575 281.69 220.917 281.283 220.178 281.13C201.905 277.071 197.574 266.201 197.574 247.891C197.586 247.068 197.279 246.272 196.714 245.662C196.149 245.053 195.368 244.676 194.53 244.607C188.978 244.116 183.35 243.531 180.182 239.147C175.875 233.038 181.519 226.024 188.334 224.774C189.613 224.522 192.138 222.339 192.138 221.182C192.138 220.867 192.063 220.556 191.919 220.274C191.774 219.992 191.565 219.747 191.307 219.558C195.759 195.496 218.716 174.734 239.178 160.58C244.388 174.656 251.596 187.946 260.59 200.062C263.948 204.533 267.812 208.618 272.11 212.24C272.39 212.48 272.724 212.651 273.085 212.738C273.447 212.826 273.824 212.828 274.186 212.743C278.536 212.601 282.836 213.685 286.574 215.864C293.086 219.923 289.793 228.817 283.206 232.596C279.587 234.294 275.587 235.069 271.578 234.849C270.692 234.845 269.839 235.185 269.208 235.793C268.576 236.402 268.216 237.229 268.206 238.096C267.616 258.489 262.101 275.253 242.126 280.834C241.406 281.042 240.784 281.489 240.367 282.098C239.949 282.708 239.764 283.441 239.842 284.171L241.416 299.785C241.471 300.303 241.727 300.781 242.132 301.12C242.538 301.458 243.06 301.631 243.592 301.604C244.124 301.562 244.617 301.316 244.964 300.92C245.31 300.523 245.482 300.009 245.44 299.489L246.47 286.143C267.234 278.837 273.833 262.828 274.838 241.368C278.91 241.261 282.897 240.205 286.466 238.287C296.055 232.912 300.254 219.863 292.555 213.068C288.788 209.654 289.71 213.924 293.207 204.158C293.295 203.702 293.434 203.257 293.622 202.831C293.707 203.361 293.963 203.852 294.352 204.232C294.741 204.612 295.243 204.862 295.786 204.945C296.329 205.029 296.886 204.941 297.375 204.696C297.864 204.451 298.262 204.061 298.51 203.582C312.002 178.809 304.552 166.703 280.582 155.22Z" fill="#3E2EFF"/>
<path fill-rule="evenodd" clip-rule="evenodd" d="M277.66 199.194C265.842 179.116 237.552 181.246 230.717 202.47C230.618 202.778 230.57 203.007 230.54 203.151C230.515 203.267 230.503 203.327 230.484 203.329C230.464 203.331 230.437 203.263 230.38 203.121C230.264 202.831 230.025 202.232 229.469 201.288C217.622 181.173 189.336 183.34 182.53 204.56C181.153 209.142 181.126 214.002 182.452 218.598C183.778 223.194 186.405 227.345 190.039 230.588C193.184 233.53 197.08 235.619 201.334 236.644C205.588 237.67 210.048 237.594 214.262 236.426C218.476 235.258 222.295 233.039 225.33 229.993C228.365 226.947 230.509 223.183 231.545 219.083C232.712 222.26 234.552 225.169 236.946 227.628C239.341 230.086 242.239 232.041 245.458 233.368C248.677 234.695 252.147 235.366 255.649 235.339C259.151 235.311 262.609 234.586 265.805 233.208C269.001 231.831 271.866 229.831 274.218 227.335C276.571 224.84 278.361 221.902 279.475 218.707C280.589 215.513 281.002 212.131 280.69 208.775C280.378 205.418 279.346 202.161 277.66 199.208V199.194ZM271.684 221.536C259.658 239.039 229.535 226.203 235.553 205.255C236.115 203.261 236.969 201.343 238.093 199.55C243.626 190.144 252.497 187.535 263.924 194.236C267.607 196.669 270.642 199.804 272.811 203.415C274.414 206.258 275.154 209.43 274.956 212.61C274.758 215.791 273.63 218.869 271.684 221.536ZM223.549 223.458C211.627 241.101 181.764 228.162 187.73 207.046C188.288 205.037 189.135 203.103 190.248 201.295C196.193 191.02 205.303 189.651 215.856 195.938C219.509 198.39 222.518 201.55 224.666 205.191C226.257 208.057 226.991 211.254 226.795 214.461C226.599 217.667 225.479 220.77 223.549 223.458Z" fill="#FF6565"/>
<path d="M290.192 304.572C277.522 296.54 265.914 291.238 249.778 289.007C249.223 288.947 248.662 289.037 248.154 289.269C247.647 289.501 247.211 289.866 246.894 290.325C243.718 294.797 236.733 305.048 232.062 310.237C226.69 304.498 221.716 298.133 215.79 292.209C215.43 291.852 214.991 291.586 214.508 291.432C214.025 291.278 213.512 291.241 213.012 291.324C198.723 293.193 182.556 297.332 170.05 304.49C169.597 304.722 169.254 305.124 169.098 305.609C168.941 306.094 168.984 306.621 169.216 307.074C169.448 307.527 169.851 307.87 170.336 308.026C170.821 308.183 171.348 308.14 171.801 307.908C179.81 304.675 189.074 302.634 197.487 300.682C197.215 305.19 197.393 320.291 197.047 337.033C197.048 337.597 197.2 338.15 197.487 338.636C197.773 339.122 198.184 339.523 198.677 339.797C199.17 340.071 199.727 340.21 200.292 340.197C200.856 340.185 201.406 340.023 201.887 339.727C210.363 334.436 220.04 328.257 228.166 322.348C225.238 338.869 228.461 417.015 228.906 433.693C228.885 434.252 229.088 434.797 229.469 435.206C229.85 435.616 230.379 435.858 230.938 435.878C231.498 435.899 232.042 435.696 232.452 435.315C232.862 434.934 233.104 434.406 233.124 433.846C237.145 405.037 235.386 349.874 234.44 320.987C241.823 326.855 250.384 336.026 257.42 342.311C257.846 342.686 258.366 342.937 258.925 343.037C259.483 343.138 260.059 343.084 260.589 342.881C261.119 342.679 261.584 342.336 261.933 341.889C262.282 341.442 262.503 340.908 262.571 340.345C262.882 337.67 263.291 335.003 263.704 332.348C269.457 298.22 269.852 300.458 270.564 300.682C277.061 302.472 282.047 304.961 288.008 308.105C288.478 308.397 289.043 308.493 289.583 308.372C290.123 308.25 290.593 307.921 290.892 307.456C291.041 307.222 291.14 306.961 291.186 306.687C291.231 306.414 291.22 306.134 291.155 305.865C291.089 305.596 290.97 305.343 290.805 305.121C290.64 304.899 290.431 304.712 290.192 304.572ZM203.437 331.278C203.437 319.925 203.736 320.299 202.713 299.73C203.107 299.73 205.739 298.943 212.398 297.862C217.514 303.156 222.484 309.466 227.556 314.827C220.355 320.205 210.863 326.549 203.437 331.278ZM257.231 333.724C250.541 327.789 243.746 320.681 236.548 314.922C241.688 308.713 246.512 302.25 251.002 295.557C256.153 296.507 261.238 297.783 266.227 299.376C263.024 310.673 259.156 322.14 257.235 333.724H257.231Z" fill="#FF6565"/>
<path d="M240.052 355.503C240.052 357.141 240.702 358.712 241.861 359.87C243.02 361.029 244.591 361.679 246.23 361.679C247.868 361.679 249.44 361.029 250.598 359.87C251.757 358.712 252.408 357.141 252.408 355.503C252.408 353.866 251.757 352.295 250.598 351.136C249.44 349.978 247.868 349.328 246.23 349.328C244.591 349.328 243.02 349.978 241.861 351.136C240.702 352.295 240.052 353.866 240.052 355.503Z" fill="#FF6565"/>
<path d="M240.083 386.39C240.083 388.028 240.734 389.599 241.892 390.757C243.051 391.915 244.622 392.566 246.261 392.566C247.899 392.566 249.471 391.915 250.63 390.757C251.788 389.599 252.439 388.028 252.439 386.39C252.439 384.752 251.788 383.181 250.63 382.023C249.471 380.865 247.899 380.214 246.261 380.214C244.622 380.214 243.051 380.865 241.892 382.023C240.734 383.181 240.083 384.752 240.083 386.39Z" fill="#FF6565"/>
<path d="M279.057 295.583C279.485 295.546 279.917 295.587 280.327 295.705C357.677 303.581 409.647 383.219 394.184 443.483H260.688C282.063 431.283 314.131 411.735 321.117 407.289C326.961 407.827 332.833 408.083 338.708 408.056C339.171 408.092 339.638 408.036 340.074 407.892C340.51 407.748 340.904 407.519 341.23 407.223C341.555 406.927 341.802 406.57 341.954 406.179C342.106 405.787 342.158 405.371 342.108 404.959C341.902 403.321 341.723 401.678 341.544 400.037C341.363 398.378 341.182 396.721 340.974 395.07C340.704 393.333 339.231 389.061 337.799 384.912C336.496 381.137 335.229 377.463 334.934 375.89C334.869 375.401 334.592 374.954 334.162 374.645C333.731 374.335 333.182 374.187 332.631 374.233C332.081 374.279 331.572 374.514 331.213 374.889C330.855 375.264 330.675 375.749 330.712 376.241C330.649 379.46 332.082 385.77 333.408 391.604C334.381 395.888 335.296 399.914 335.516 402.271C334.504 402.249 333.479 402.239 332.45 402.229C330.548 402.21 328.634 402.191 326.764 402.096C318.856 400.962 310.875 400.276 302.87 400.043C296.63 399.945 298.188 400.332 292.024 401.199C291.768 401.193 291.512 401.233 291.273 401.316C291.034 401.4 290.817 401.525 290.633 401.685C290.45 401.845 290.304 402.036 290.205 402.247C290.106 402.457 290.056 402.684 290.057 402.912C290.075 403.366 290.291 403.796 290.658 404.111C291.025 404.426 291.515 404.602 292.024 404.601C303.62 405.537 299.676 405.602 302.799 405.654C305.429 405.698 307.543 405.733 313.33 406.273C300.166 414.945 269.532 433.207 250.937 443.483H58.8499C43.9083 364.794 122.14 304.564 184.776 294.489C185.224 294.417 185.683 294.432 186.124 294.533C186.564 294.635 186.974 294.82 187.327 295.076C187.679 295.332 187.965 295.653 188.164 296.017C188.364 296.38 188.473 296.779 188.483 297.183C188.541 299.205 188.6 301.346 188.663 303.581C189.257 324.909 190.093 359.526 191.609 378.01C191.741 378.615 191.648 379.241 191.346 379.795C191.044 380.349 190.549 380.801 189.934 381.083C189.319 381.365 182.339 383.322 181.657 383.219C180.975 383.117 180.349 382.82 179.872 382.374C178.623 381.146 176.935 380.341 175.095 380.095C173.255 379.849 171.376 380.178 169.778 381.025C167.863 381.738 166.09 382.723 164.528 383.941C164.198 384.213 163.805 384.419 163.378 384.544C162.95 384.67 162.497 384.712 162.05 384.669C161.602 384.625 161.17 384.497 160.783 384.292C160.396 384.087 160.063 383.811 159.806 383.482C155.981 378.643 149.685 380.798 144.569 384.554C145.839 378.175 146.56 371.719 146.726 365.243C146.726 364.651 146.411 359.605 144.254 359.447C142.239 359.286 140.815 364.405 140.756 364.794C140.473 365.954 138.741 381.6 139.001 383.44C139.001 383.801 139.068 387.694 140.181 388.451C136.9 391.88 134.684 396.014 133.751 400.442C127.181 401.047 120.814 402.821 115.028 405.659C112.789 407.061 114.107 409.251 116.468 408.813C121.757 407.835 130.033 405.656 133.338 404.636C133.341 405.337 133.381 406.038 133.46 406.739C134.082 412.706 140.543 415.317 144.479 410.215C144.83 409.776 145.312 409.434 145.869 409.225C146.427 409.016 147.038 408.949 147.636 409.031C148.234 409.114 148.794 409.343 149.255 409.692C149.715 410.041 150.057 410.498 150.244 411.01C150.474 412.085 151.084 413.066 151.986 413.809C152.888 414.552 154.034 415.018 155.256 415.138C156.477 415.258 157.709 415.027 158.772 414.477C159.835 413.928 160.672 413.09 161.16 412.086C161.823 411.03 162.375 409.921 162.809 408.775C163.027 408.192 163.449 407.688 164.012 407.334C164.575 406.98 165.251 406.795 165.94 406.806C166.629 406.818 167.296 407.025 167.844 407.397C168.392 407.769 168.792 408.287 168.987 408.876C169.609 411.518 172.926 415.73 176.299 416.13C181.946 416.79 183.221 414.795 185.91 410.587C186.847 409.121 187.956 407.386 189.481 405.401C189.998 404.769 190.775 404.344 191.642 404.22C220.266 400.762 244.16 400.68 273.087 400.634C273.087 400.634 268.092 328.535 276.309 297.685C276.415 297.313 276.605 296.965 276.868 296.662C277.13 296.358 277.46 296.106 277.837 295.92C278.213 295.735 278.628 295.62 279.057 295.583Z" fill="#3E2EFF"/>
<path d="M140.008 409.531C140.298 408.718 141.158 406.589 141.306 406.204C142.96 400.508 143.903 397.6 149.311 394.354C150.22 393.678 151.2 393.086 152.234 392.587C152.801 392.489 153.302 392.188 153.63 391.751C153.959 391.314 154.087 390.775 153.987 390.251C153.888 389.727 153.569 389.26 153.099 388.952C152.629 388.644 152.047 388.519 151.478 388.604C149.837 388.467 148.184 388.623 146.607 389.062C139.264 391.275 132.756 402.648 136.002 409.618C136.034 410.096 136.266 410.543 136.648 410.867C137.03 411.19 137.532 411.364 138.051 411.353C138.569 411.341 139.062 411.145 139.427 410.806C139.792 410.466 140 410.009 140.008 409.531V409.531Z" fill="#3E2EFF"/>
<path d="M158.763 411.148C162.268 404.921 160.675 400.57 167.556 394.962C168.367 394.133 169.277 393.389 170.269 392.744C170.833 392.593 171.309 392.245 171.593 391.774C171.877 391.303 171.947 390.748 171.787 390.231C171.594 389.719 171.194 389.294 170.669 389.045C170.144 388.796 169.534 388.74 168.966 388.891C166.774 389.016 164.653 389.655 162.809 390.748C160.965 391.84 159.458 393.349 158.436 395.129C155.692 398.795 154.183 403.117 154.093 407.56C154.196 408.715 154.414 409.859 154.744 410.977C154.745 411.466 154.946 411.937 155.309 412.296C155.672 412.655 156.169 412.875 156.702 412.913C156.965 412.926 157.228 412.89 157.476 412.808C157.724 412.725 157.951 412.597 158.143 412.433C158.336 412.268 158.49 412.069 158.596 411.848C158.703 411.627 158.76 411.389 158.763 411.148V411.148Z" fill="#3E2EFF"/>
<path d="M179.684 413.065C180.121 411.925 180.379 411.727 181.104 409.924C181.64 407.54 182.479 405.222 183.602 403.015C184.718 400.921 186.233 399.024 188.074 397.413C188.749 396.576 189.476 395.775 190.252 395.014C190.775 394.771 191.171 394.349 191.354 393.84C191.538 393.332 191.493 392.777 191.23 392.298C190.94 391.826 190.463 391.472 189.897 391.309C189.33 391.146 188.717 391.185 188.182 391.42C186.685 391.7 185.248 392.205 183.931 392.915C178.251 396.143 172.871 407.365 175.649 412.997C175.636 413.239 175.678 413.482 175.771 413.709C175.864 413.937 176.006 414.145 176.189 414.321C176.373 414.496 176.593 414.637 176.837 414.733C177.081 414.829 177.344 414.879 177.61 414.879C178.148 414.89 178.669 414.704 179.058 414.364C179.447 414.024 179.672 413.557 179.684 413.065Z" fill="#3E2EFF"/>
</svg>
