<svg width="24" height="25" viewBox="0 0 24 25" fill="none" xmlns="http://www.w3.org/2000/svg">
<path d="M12 2.19952V5.19952M22 12.1995H19M19.07 5.12952L17.66 6.53952M6.33999 6.53952L4.92999 5.12952M8.60981 10.0756C9.31732 8.94868 10.5712 8.19952 12 8.19952C14.2091 8.19952 16 9.99039 16 12.1995C16 13.062 15.727 13.8608 15.2627 14.5141M15.1374 14.6995H14.164C13.875 13.6128 13.2778 12.6265 12.4403 11.8528C11.6027 11.0791 10.5585 10.549 9.42613 10.3227C8.29378 10.0964 7.11875 10.1831 6.03457 10.5727C4.95039 10.9624 4.00052 11.6395 3.2929 12.5271C2.58529 13.4146 2.14829 14.4771 2.03158 15.5938C1.91486 16.7104 2.12311 17.8365 2.63265 18.844C3.14219 19.8515 3.9326 20.7 4.91405 21.2932C5.89551 21.8864 7.02866 22.2004 8.18475 22.1995H15.1374C16.1618 22.1995 17.1443 21.8044 17.8687 21.1012C18.593 20.3979 19 19.4441 19 18.4495C19 17.455 18.593 16.5011 17.8687 15.7979C17.1443 15.0946 16.1618 14.6995 15.1374 14.6995Z" stroke="black" stroke-width="1.6" stroke-linecap="round" stroke-linejoin="round"/>
</svg>
