<svg width="24" height="25" viewBox="0 0 24 25" fill="none" xmlns="http://www.w3.org/2000/svg">
<path d="M6.36501 14.5038C5.37493 13.8875 4.57759 13.0058 4.06357 11.9589C3.54956 10.9121 3.33949 9.74203 3.45722 8.58174C3.57496 7.42146 4.01579 6.31747 4.72962 5.39521C5.44345 4.47295 6.40166 3.76941 7.49536 3.36452C8.58906 2.95963 9.7744 2.86964 10.9167 3.10477C12.059 3.33989 13.1124 3.89071 13.9573 4.69463C14.8022 5.49855 15.4046 6.52334 15.6962 7.65254H16.6781C17.7115 7.65254 18.7026 8.06307 19.4334 8.7938C20.1641 9.52454 20.5746 10.5156 20.5746 11.549C20.5746 12.5825 20.1641 13.5735 19.4334 14.3043M21 15.8871C19.5059 14.3747 17.1747 14.067 15.3384 15.1398L14.7741 15.4694C13.0606 16.4704 10.9394 16.4704 9.22591 15.4694L8.66163 15.1398C6.82528 14.067 4.49411 14.3747 3 15.8871M21 20.663C19.5059 19.1506 17.1747 18.8429 15.3384 19.9157L14.7741 20.2453C13.0606 21.2463 10.9394 21.2463 9.22591 20.2453L8.66163 19.9157C6.82528 18.8429 4.49411 19.1506 3 20.663" stroke="black" stroke-width="1.6" stroke-linecap="round" stroke-linejoin="round"/>
</svg>
