<svg width="24" height="25" viewBox="0 0 24 25" fill="none" xmlns="http://www.w3.org/2000/svg">
<path d="M5.66519 19.0272L5.73479 18.6995M9.86519 19.0272L9.93479 18.6995M14.0652 19.0272L14.1348 18.6995M18.2652 19.0272L18.3348 18.6995M7.76519 21.6272L7.83479 21.2995M11.9652 21.6272L12.0348 21.2995M16.1652 21.6272L16.2348 21.2995M7.34059 6.85661H8.31858C8.60897 5.73192 9.20901 4.71124 10.0505 3.91053C10.892 3.10983 11.9412 2.56122 13.079 2.32703C14.2167 2.09285 15.3973 2.18248 16.4866 2.58575C17.5759 2.98901 18.5303 3.68974 19.2413 4.60831C19.9522 5.52688 20.3913 6.62645 20.5086 7.78209C20.6258 8.93773 20.4166 10.1031 19.9046 11.1458C19.3927 12.1884 18.5985 13.0666 17.6124 13.6805C16.6263 14.2943 15.4878 14.6193 14.3262 14.6184H7.34059C6.31131 14.6184 5.32419 14.2095 4.59638 13.4817C3.86857 12.7539 3.45969 11.7668 3.45969 10.7375C3.45969 9.70823 3.86857 8.72111 4.59638 7.9933C5.32419 7.26549 6.31131 6.85661 7.34059 6.85661Z" stroke="black" stroke-width="1.6" stroke-linecap="round" stroke-linejoin="round"/>
</svg>
