<svg width="24" height="25" viewBox="0 0 24 25" fill="none" xmlns="http://www.w3.org/2000/svg">
<path d="M5.66519 18.9939L5.73479 18.6662M9.86519 18.9939L9.93479 18.6662M7.76519 21.5939L7.83479 21.2662M11.9652 21.5939L12.0348 21.2662M14.4588 17.7595L14.0705 18.4056M14.0705 18.4056L13.6862 19.0453M14.0705 18.4056L14.7254 18.7991M14.0705 18.4056L13.4396 18.0265M16.8428 20.9472L16.4545 21.5933M16.4545 21.5933L16.0702 22.2329M16.4545 21.5933L17.1094 21.9867M16.4545 21.5933L15.8236 21.2142M18.9763 17.7595L18.588 18.4056M18.588 18.4056L18.2037 19.0453M18.588 18.4056L19.2429 18.7991M18.588 18.4056L17.9571 18.0265M7.34059 6.82328H8.31858C8.60897 5.6986 9.20901 4.67791 10.0505 3.87721C10.892 3.07651 11.9412 2.52789 13.079 2.29371C14.2167 2.05952 15.3973 2.14915 16.4866 2.55242C17.5759 2.95569 18.5303 3.65642 19.2413 4.57498C19.9522 5.49355 20.3913 6.59313 20.5086 7.74877C20.6258 8.9044 20.4166 10.0698 19.9046 11.1124C19.3927 12.1551 18.5985 13.0333 17.6124 13.6471C16.6263 14.261 15.4878 14.586 14.3262 14.5851H7.34059C6.31131 14.5851 5.32419 14.1762 4.59638 13.4484C3.86857 12.7206 3.45969 11.7335 3.45969 10.7042C3.45969 9.67491 3.86857 8.68779 4.59638 7.95997C5.32419 7.23216 6.31131 6.82328 7.34059 6.82328Z" stroke="black" stroke-width="1.4" stroke-linecap="round" stroke-linejoin="round"/>
</svg>
