<svg width="24" height="25" viewBox="0 0 24 25" fill="none" xmlns="http://www.w3.org/2000/svg">
<path d="M3.58867 18.9939L3.65827 18.6662M7.78867 18.9939L7.85827 18.6662M11.9887 18.9939L12.0583 18.6662M5.68867 21.5939L5.75827 21.2662M9.88867 21.5939L9.95827 21.2662M14.0887 21.5939L14.1583 21.2662M16.4339 17.7595L16.0457 18.4056M16.0457 18.4056L15.6613 19.0453M16.0457 18.4056L16.7005 18.7991M16.0457 18.4056L15.4147 18.0265M18.8179 20.9472L18.4297 21.5933M18.4297 21.5933L18.0453 22.2329M18.4297 21.5933L19.0845 21.9867M18.4297 21.5933L17.7987 21.2142M20.9514 17.7595L20.5632 18.4056M20.5632 18.4056L20.1788 19.0453M20.5632 18.4056L21.218 18.7991M20.5632 18.4056L19.9322 18.0265M7.34059 6.82328H8.31858C8.60897 5.6986 9.20901 4.67791 10.0505 3.87721C10.892 3.07651 11.9412 2.52789 13.079 2.29371C14.2167 2.05952 15.3973 2.14915 16.4866 2.55242C17.5759 2.95569 18.5303 3.65642 19.2413 4.57498C19.9522 5.49355 20.3913 6.59313 20.5086 7.74877C20.6258 8.9044 20.4166 10.0698 19.9046 11.1124C19.3927 12.1551 18.5985 13.0333 17.6124 13.6471C16.6263 14.261 15.4878 14.586 14.3262 14.5851H7.34059C6.31131 14.5851 5.32419 14.1762 4.59638 13.4484C3.86857 12.7206 3.45969 11.7335 3.45969 10.7042C3.45969 9.67491 3.86857 8.68779 4.59638 7.95997C5.32419 7.23216 6.31131 6.82328 7.34059 6.82328Z" stroke="black" stroke-width="1.4" stroke-linecap="round" stroke-linejoin="round"/>
</svg>
