<svg width="24" height="25" viewBox="0 0 24 25" fill="none" xmlns="http://www.w3.org/2000/svg">
<path d="M4.02412 17.738L3.6359 18.3841M3.6359 18.3841L3.25156 19.0237M3.6359 18.3841L4.29073 18.7775M3.6359 18.3841L3.00497 18.005M6.14112 21.433L5.75291 22.0791M5.75291 22.0791L5.36857 22.7188M5.75291 22.0791L6.40773 22.4726M5.75291 22.0791L5.12198 21.7M10.3162 21.433L9.92795 22.0791M9.92795 22.0791L9.54361 22.7188M9.92795 22.0791L10.5828 22.4726M9.92795 22.0791L9.29703 21.7M14.4912 21.433L14.103 22.0791M14.103 22.0791L13.7187 22.7188M14.103 22.0791L14.7578 22.4726M14.103 22.0791L13.4721 21.7M18.6663 21.433L18.278 22.0791M18.278 22.0791L17.8937 22.7188M18.278 22.0791L18.9329 22.4726M18.278 22.0791L17.6471 21.7M8.19943 17.738L7.81121 18.3841M7.81121 18.3841L7.42687 19.0237M7.81121 18.3841L8.46603 18.7775M7.81121 18.3841L7.18028 18.005M12.3745 17.738L11.9863 18.3841M11.9863 18.3841L11.6019 19.0237M11.9863 18.3841L12.6411 18.7775M11.9863 18.3841L11.3553 18.005M16.5495 17.738L16.1613 18.3841M16.1613 18.3841L15.777 19.0237M16.1613 18.3841L16.8161 18.7775M16.1613 18.3841L15.5304 18.005M20.7246 17.738L20.3363 18.3841M20.3363 18.3841L19.952 19.0237M20.3363 18.3841L20.9912 18.7775M20.3363 18.3841L19.7054 18.005M7.3406 6.80174H8.31859C8.60898 5.67705 9.20902 4.65637 10.0505 3.85566C10.892 3.05496 11.9412 2.50635 13.079 2.27216C14.2167 2.03798 15.3973 2.12761 16.4866 2.53087C17.5759 2.93414 18.5303 3.63487 19.2413 4.55344C19.9522 5.47201 20.3913 6.57158 20.5086 7.72722C20.6258 8.88286 20.4166 10.0482 19.9047 11.0909C19.3927 12.1336 18.5985 13.0117 17.6124 13.6256C16.6263 14.2395 15.4878 14.5644 14.3262 14.5635H7.3406C6.31132 14.5635 5.3242 14.1547 4.59638 13.4269C3.86857 12.699 3.45969 11.7119 3.45969 10.6826C3.45969 9.65336 3.86857 8.66624 4.59638 7.93843C5.3242 7.21062 6.31132 6.80174 7.3406 6.80174Z" stroke="black" stroke-width="1.4" stroke-linecap="round" stroke-linejoin="round"/>
</svg>
