<svg width="24" height="25" viewBox="0 0 24 25" fill="none" xmlns="http://www.w3.org/2000/svg">
<path d="M5.18187 18.8432L5.34997 17.9559M9.38187 18.8432L9.54997 17.9559M13.5819 18.8432L13.75 17.9559M17.7819 18.8432L17.95 17.9559M7.28187 22.4432L7.44997 21.5559M11.4819 22.4432L11.65 21.5559M15.6819 22.4432L15.85 21.5559M7.34059 6.61296H8.31858C8.60897 5.48827 9.20901 4.46758 10.0505 3.66688C10.892 2.86618 11.9412 2.31757 13.079 2.08338C14.2167 1.84919 15.3973 1.93883 16.4866 2.34209C17.5759 2.74536 18.5303 3.44609 19.2413 4.36466C19.9522 5.28323 20.3913 6.3828 20.5086 7.53844C20.6258 8.69408 20.4166 9.85944 19.9046 10.9021C19.3927 11.9448 18.5985 12.8229 17.6124 13.4368C16.6263 14.0507 15.4878 14.3756 14.3262 14.3748H7.34059C6.31131 14.3748 5.32419 13.9659 4.59638 13.2381C3.86857 12.5103 3.45969 11.5231 3.45969 10.4939C3.45969 9.46458 3.86857 8.47746 4.59638 7.74965C5.32419 7.02184 6.31131 6.61296 7.34059 6.61296Z" stroke="black" stroke-width="1.6" stroke-linecap="round" stroke-linejoin="round"/>
</svg>
