<svg width="24" height="25" viewBox="0 0 24 25" fill="none" xmlns="http://www.w3.org/2000/svg">
<path d="M5.34781 18.815L5.51592 17.9277M8.54781 18.815L8.71592 17.9277M11.7478 18.815L11.9159 17.9277M14.9478 18.815L15.1159 17.9277M18.3159 18.8713L18.4841 17.984M6.94781 22.415L7.11592 21.5277M10.1478 22.415L10.3159 21.5277M13.3478 22.415L13.5159 21.5277M16.7159 22.4713L16.8841 21.584M7.34059 6.58476H8.31858C8.60897 5.46007 9.20901 4.43939 10.0505 3.63868C10.892 2.83798 11.9412 2.28937 13.079 2.05518C14.2167 1.821 15.3973 1.91063 16.4866 2.31389C17.5759 2.71716 18.5303 3.41789 19.2413 4.33646C19.9522 5.25503 20.3913 6.3546 20.5086 7.51024C20.6258 8.66588 20.4166 9.83124 19.9046 10.8739C19.3927 11.9166 18.5985 12.7947 17.6124 13.4086C16.6263 14.0225 15.4878 14.3474 14.3262 14.3466H7.34059C6.31131 14.3466 5.32419 13.9377 4.59638 13.2099C3.86857 12.4821 3.45969 11.4949 3.45969 10.4657C3.45969 9.43638 3.86857 8.44926 4.59638 7.72145C5.32419 6.99364 6.31131 6.58476 7.34059 6.58476Z" stroke="black" stroke-width="1.6" stroke-linecap="round" stroke-linejoin="round"/>
</svg>
