<svg width="24" height="25" viewBox="0 0 24 25" fill="none" xmlns="http://www.w3.org/2000/svg">
<path d="M7.19914 17.738L6.81092 18.3841M6.81092 18.3841L6.42658 19.0237M6.81092 18.3841L7.46575 18.7775M6.81092 18.3841L6.18 18.005M9.31614 21.433L8.92793 22.0791M8.92793 22.0791L8.54359 22.7188M8.92793 22.0791L9.58275 22.4726M8.92793 22.0791L8.297 21.7M15.4912 21.433L15.103 22.0791M15.103 22.0791L14.7186 22.7188M15.103 22.0791L15.7578 22.4726M15.103 22.0791L14.4721 21.7M12.3745 17.738L11.9862 18.3841M11.9862 18.3841L11.6019 19.0237M11.9862 18.3841L12.6411 18.7775M11.9862 18.3841L11.3553 18.005M17.5495 17.738L17.1613 18.3841M17.1613 18.3841L16.7769 19.0237M17.1613 18.3841L17.8161 18.7775M17.1613 18.3841L16.5304 18.005M7.34059 6.80174H8.31858C8.60897 5.67705 9.20901 4.65637 10.0505 3.85566C10.892 3.05496 11.9412 2.50635 13.079 2.27216C14.2167 2.03798 15.3973 2.12761 16.4866 2.53087C17.5759 2.93414 18.5303 3.63487 19.2413 4.55344C19.9522 5.47201 20.3913 6.57158 20.5086 7.72722C20.6258 8.88286 20.4166 10.0482 19.9046 11.0909C19.3927 12.1336 18.5985 13.0117 17.6124 13.6256C16.6263 14.2395 15.4878 14.5644 14.3262 14.5635H7.34059C6.31131 14.5635 5.32419 14.1547 4.59638 13.4269C3.86857 12.699 3.45969 11.7119 3.45969 10.6826C3.45969 9.65336 3.86857 8.66624 4.59638 7.93843C5.32419 7.21062 6.31131 6.80174 7.34059 6.80174Z" stroke="black" stroke-width="1.4" stroke-linecap="round" stroke-linejoin="round"/>
</svg>
