<svg width="24" height="25" viewBox="0 0 24 25" fill="none" xmlns="http://www.w3.org/2000/svg">
<path d="M5.991 17.5069V18.5069M18.009 17.5069V18.5069M7.991 21.5414V22.5414M11.997 17.5069L10.997 19.7655L12.997 20.2828L11.997 22.5414M16.003 21.5414V22.5414M7.34059 6.97923H8.31858C8.60897 5.85454 9.20901 4.83386 10.0505 4.03315C10.892 3.23245 11.9412 2.68384 13.079 2.44965C14.2167 2.21547 15.3973 2.3051 16.4866 2.70836C17.5759 3.11163 18.5303 3.81236 19.2413 4.73093C19.9522 5.6495 20.3913 6.74907 20.5086 7.90471C20.6258 9.06035 20.4166 10.2257 19.9046 11.2684C19.3927 12.311 18.5985 13.1892 17.6124 13.8031C16.6263 14.4169 15.4878 14.7419 14.3262 14.741H7.34059C6.31131 14.741 5.32419 14.3322 4.59638 13.6043C3.86857 12.8765 3.45969 11.8894 3.45969 10.8601C3.45969 9.83085 3.86857 8.84373 4.59638 8.11592C5.32419 7.38811 6.31131 6.97923 7.34059 6.97923Z" stroke="black" stroke-width="1.6" stroke-linecap="round" stroke-linejoin="round"/>
</svg>
